G04*
G04 #@! TF.GenerationSoftware,Altium Limited,Altium Designer,24.4.1 (13)*
G04*
G04 Layer_Color=16711935*
%FSLAX44Y44*%
%MOMM*%
G71*
G04*
G04 #@! TF.SameCoordinates,85F95AA7-1CD2-4A53-B858-D1680FFA15A6*
G04*
G04*
G04 #@! TF.FilePolarity,Negative*
G04*
G01*
G75*
%ADD56R,0.8432X0.8032*%
%ADD71O,1.7032X2.2032*%
%ADD72O,1.3208X1.1684*%
%ADD73C,0.7032*%
%ADD74C,1.4732*%
%ADD89R,2.6532X3.3532*%
%ADD90R,3.6032X1.7032*%
%ADD91R,3.7032X1.2032*%
D56*
X769000Y638350D02*
D03*
Y647150D02*
D03*
D71*
X720500Y235000D02*
D03*
X680500D02*
D03*
X660500D02*
D03*
X640500D02*
D03*
X580500D02*
D03*
X560500D02*
D03*
X540500D02*
D03*
X600500D02*
D03*
X620500D02*
D03*
X700500D02*
D03*
X733000Y21500D02*
D03*
X693000D02*
D03*
X673000D02*
D03*
X653000D02*
D03*
X593000D02*
D03*
X573000D02*
D03*
X553000D02*
D03*
X613000D02*
D03*
X633000D02*
D03*
X713000D02*
D03*
D72*
X150650Y295900D02*
D03*
Y308600D02*
D03*
Y321300D02*
D03*
Y334000D02*
D03*
Y346700D02*
D03*
X125250Y302250D02*
D03*
Y314950D02*
D03*
Y327650D02*
D03*
Y340350D02*
D03*
D73*
X165250Y100900D02*
D03*
X155750Y114750D02*
D03*
X153750Y8750D02*
D03*
X256000Y100000D02*
D03*
X144250Y82000D02*
D03*
X154850Y73850D02*
D03*
X15500Y28000D02*
D03*
X49500Y38500D02*
D03*
X640000Y412000D02*
D03*
X605500Y414500D02*
D03*
X638750Y447000D02*
D03*
X604250Y445750D02*
D03*
X621500Y430250D02*
D03*
X638500Y365000D02*
D03*
X586250Y396500D02*
D03*
X619250Y525500D02*
D03*
X614500Y518250D02*
D03*
X602000Y496250D02*
D03*
X581250Y536500D02*
D03*
X564750Y503250D02*
D03*
X564500Y514000D02*
D03*
X553750Y390250D02*
D03*
X545750Y390500D02*
D03*
X518250Y346750D02*
D03*
X519000Y437250D02*
D03*
X494000Y373500D02*
D03*
Y362500D02*
D03*
X494250Y338250D02*
D03*
X637388Y478362D02*
D03*
X587000Y464500D02*
D03*
X599000Y479000D02*
D03*
X631250Y498250D02*
D03*
X557750Y462750D02*
D03*
X537000Y447750D02*
D03*
X495000Y427000D02*
D03*
X578000Y482000D02*
D03*
X573000Y404250D02*
D03*
X650500Y475500D02*
D03*
X644750Y480250D02*
D03*
X631500Y474000D02*
D03*
X667000Y329750D02*
D03*
X560750Y328500D02*
D03*
X619000Y385750D02*
D03*
X623500Y378750D02*
D03*
X507500Y457750D02*
D03*
X629750Y382750D02*
D03*
X368000Y352000D02*
D03*
X322250Y361000D02*
D03*
X334000Y360750D02*
D03*
X100000Y747500D02*
D03*
X99500Y728500D02*
D03*
X99750Y768000D02*
D03*
X505500Y730250D02*
D03*
Y748750D02*
D03*
Y770750D02*
D03*
X296750Y748250D02*
D03*
X297000Y730500D02*
D03*
X296750Y767250D02*
D03*
X557000Y520500D02*
D03*
X709500Y404000D02*
D03*
X732000Y410250D02*
D03*
X685000Y403750D02*
D03*
X684500Y418000D02*
D03*
X666750Y261750D02*
D03*
X674500Y391500D02*
D03*
X540250Y261750D02*
D03*
X694000Y411000D02*
D03*
X698750Y261250D02*
D03*
X688250Y461000D02*
D03*
X754500Y614250D02*
D03*
X754000Y636500D02*
D03*
X769750Y625500D02*
D03*
X677750Y470250D02*
D03*
X753500Y658750D02*
D03*
X575750Y452500D02*
D03*
X506750Y494500D02*
D03*
X493250Y470250D02*
D03*
X346750Y417250D02*
D03*
X754370Y669250D02*
D03*
X717000Y375269D02*
D03*
X202750Y122500D02*
D03*
X328000Y398250D02*
D03*
X327500Y466000D02*
D03*
X316750Y464000D02*
D03*
X233750Y114000D02*
D03*
X121500Y18750D02*
D03*
X557000Y551750D02*
D03*
X180000Y184250D02*
D03*
X127750Y181750D02*
D03*
X128000Y189500D02*
D03*
X123750Y199500D02*
D03*
Y207750D02*
D03*
X221000Y52750D02*
D03*
X219750Y84000D02*
D03*
X184000Y113250D02*
D03*
X205500Y76000D02*
D03*
X149750Y127500D02*
D03*
X316750Y398250D02*
D03*
X769000Y647150D02*
D03*
X397250Y286000D02*
D03*
X397500Y250500D02*
D03*
X667750Y470250D02*
D03*
X558500Y415500D02*
D03*
X346750Y690250D02*
D03*
X535250Y707500D02*
D03*
X129500Y708250D02*
D03*
X327498Y708082D02*
D03*
D74*
X128750Y142000D02*
D03*
D89*
X81500Y128750D02*
D03*
X19500D02*
D03*
D90*
X81750Y15500D02*
D03*
Y82500D02*
D03*
D91*
X24250Y39000D02*
D03*
Y59000D02*
D03*
M02*
