G04*
G04 #@! TF.GenerationSoftware,Altium Limited,Altium Designer,24.4.1 (13)*
G04*
G04 Layer_Color=65535*
%FSLAX44Y44*%
%MOMM*%
G71*
G04*
G04 #@! TF.SameCoordinates,85F95AA7-1CD2-4A53-B858-D1680FFA15A6*
G04*
G04*
G04 #@! TF.FilePolarity,Positive*
G04*
G01*
G75*
%ADD10C,0.5080*%
%ADD11C,0.1524*%
%ADD12C,0.2000*%
%ADD13C,0.1270*%
%ADD14C,0.1500*%
%ADD15C,0.1000*%
%ADD16C,0.0762*%
%ADD17C,0.2540*%
G36*
X580352Y444655D02*
Y440845D01*
X577812D01*
Y444655D01*
X580352D01*
D02*
G37*
G36*
X637095Y389102D02*
Y386562D01*
X640905D01*
Y389102D01*
X637095D01*
D02*
G37*
G36*
X662648Y439655D02*
Y435845D01*
X665188D01*
Y439655D01*
X662648D01*
D02*
G37*
G36*
X622095Y471398D02*
Y473938D01*
X625905D01*
Y471398D01*
X622095D01*
D02*
G37*
G36*
X623105Y503690D02*
X619295D01*
Y501150D01*
X623105D01*
Y503690D01*
D02*
G37*
G36*
X618805Y539310D02*
X614995D01*
Y541850D01*
X618805D01*
Y539310D01*
D02*
G37*
D10*
X76750Y747500D02*
G03*
X76750Y747500I-3810J0D01*
G01*
X481750Y748698D02*
G03*
X481750Y748698I-3810J0D01*
G01*
X274250Y748250D02*
G03*
X274250Y748250I-3810J0D01*
G01*
D11*
X758042Y413750D02*
G03*
X758042Y413750I-18542J0D01*
G01*
X216418Y105791D02*
G03*
X222514Y105791I3048J0D01*
G01*
X131201Y172250D02*
G03*
X131201Y172250I-1016J0D01*
G01*
X79290Y723730D02*
Y751687D01*
Y796374D02*
X201210D01*
X79290Y788313D02*
Y796374D01*
Y723730D02*
X101970D01*
X201210D02*
Y751687D01*
X118530Y723730D02*
X121970D01*
X138530D02*
X141970D01*
X158530D02*
X161970D01*
X178530D02*
X201210D01*
Y788313D02*
Y796374D01*
X484290Y724928D02*
Y752885D01*
Y797572D02*
X606210D01*
X484290Y789511D02*
Y797572D01*
Y724928D02*
X506970D01*
X606210D02*
Y752885D01*
X523530Y724928D02*
X526970D01*
X543530D02*
X546970D01*
X563530D02*
X566970D01*
X583530D02*
X606210D01*
Y789511D02*
Y797572D01*
X769137Y381492D02*
X771758D01*
X724137D02*
X754863D01*
X707242Y446008D02*
X709863D01*
X724137D02*
X754863D01*
X769137D02*
X771758D01*
Y381492D02*
Y446008D01*
X707242Y381492D02*
X709863D01*
X707242D02*
Y446008D01*
X658330Y393420D02*
Y397899D01*
X653851Y467080D02*
X658330D01*
X584670Y462601D02*
Y467080D01*
Y393420D02*
X589149D01*
X653851D02*
X658330D01*
Y462601D02*
Y467080D01*
X584670D02*
X589149D01*
X584670Y393420D02*
Y397899D01*
X214409Y84709D02*
X224523D01*
X214409Y105791D02*
X224523D01*
X398710Y789063D02*
Y797124D01*
X376030Y724480D02*
X398710D01*
X356030D02*
X359470D01*
X336030D02*
X339470D01*
X316030D02*
X319470D01*
X398710D02*
Y752437D01*
X276790Y724480D02*
X299470D01*
X276790Y789063D02*
Y797124D01*
X398710D01*
X276790Y724480D02*
Y752437D01*
X650745Y649230D02*
X653285D01*
X794255Y687383D02*
Y704692D01*
X650745Y634031D02*
Y649969D01*
Y580269D02*
X764734D01*
X650745Y706031D02*
Y720731D01*
X764734D01*
X794255Y590768D02*
Y596617D01*
X650745Y683031D02*
Y687969D01*
Y580269D02*
Y600969D01*
X155613Y88475D02*
X158521D01*
X139979D02*
X142886D01*
X158521D02*
Y90977D01*
X155613Y107525D02*
X158521D01*
X139979Y105023D02*
Y107525D01*
X142886D01*
X139979Y88475D02*
Y90977D01*
X145611Y107525D02*
X147888D01*
X158521Y105023D02*
Y107525D01*
X150612D02*
X152889D01*
X145611Y88475D02*
X147888D01*
X150612D02*
X152889D01*
X161198Y220335D02*
Y422265D01*
X55280D02*
X161198D01*
X55280Y220335D02*
Y422265D01*
Y220335D02*
X161198D01*
X57820Y276088D02*
Y366512D01*
X3210D02*
X57820D01*
X3210Y276088D02*
Y366512D01*
Y276088D02*
X57820D01*
X139503Y152431D02*
X154997D01*
X139503Y177069D02*
X154997D01*
D12*
X492500Y338950D02*
G03*
X492500Y338950I-1000J0D01*
G01*
X205900Y39500D02*
G03*
X205900Y39500I-500J0D01*
G01*
X615250Y391750D02*
G03*
X615250Y391750I-500J0D01*
G01*
X143775Y14525D02*
X149025D01*
X128025D02*
X129525D01*
X128025Y48525D02*
X129525D01*
X147525D02*
X149025D01*
X162750Y12250D02*
X167750D01*
Y42250D01*
X162750D02*
X167750D01*
X151750Y12250D02*
X156750D01*
X151750D02*
Y42250D01*
X156750D01*
X151750Y27250D02*
X167750D01*
X530500Y223000D02*
Y247000D01*
X528500Y223000D02*
Y247000D01*
Y223000D02*
X732500D01*
Y247000D01*
X528500D02*
X732500D01*
X543000Y9500D02*
Y33500D01*
X541000Y9500D02*
Y33500D01*
Y9500D02*
X745000D01*
Y33500D01*
X541000D02*
X745000D01*
X366750Y265250D02*
X386750D01*
Y305250D02*
X406750D01*
Y265250D02*
X426750D01*
Y305250D02*
X446750D01*
Y265250D02*
X468750D01*
Y305250D01*
X464750D02*
X468750D01*
X344750D02*
X366750D01*
X344750Y265250D02*
Y305250D01*
Y265250D02*
X347750D01*
X518000Y482000D02*
Y488000D01*
Y502000D02*
Y508000D01*
X544000Y482000D02*
Y508000D01*
X540000Y488000D02*
X544000Y492000D01*
X555000Y287500D02*
Y296750D01*
Y326750D02*
Y336000D01*
X670500Y326750D02*
Y336000D01*
Y287500D02*
Y296750D01*
X555000Y336000D02*
X670500D01*
X555000Y287500D02*
X670500D01*
D13*
X352500Y491250D02*
X474500D01*
X352500Y331250D02*
X474500D01*
X208400Y35650D02*
X234400D01*
X208400Y63350D02*
X234400D01*
D14*
X494920Y520250D02*
X505080D01*
X494920Y508820D02*
X496190D01*
X494920D02*
Y531680D01*
X496190D01*
X503810D02*
X505080D01*
Y508820D02*
Y531680D01*
X503810Y508820D02*
X505080D01*
X603000Y559000D02*
X605000D01*
X603000Y539000D02*
Y559000D01*
Y539000D02*
X605000D01*
X611000D02*
X613000D01*
Y559000D01*
X611000D02*
X613000D01*
X639500Y547750D02*
Y549750D01*
X619500D02*
X639500D01*
X619500Y547750D02*
Y549750D01*
Y539750D02*
Y541750D01*
Y539750D02*
X639500D01*
Y541750D01*
X593000Y558500D02*
X595000D01*
X593000Y538500D02*
Y558500D01*
Y538500D02*
X595000D01*
X601000D02*
X603000D01*
Y558500D01*
X601000D02*
X603000D01*
X582250Y498420D02*
Y508580D01*
X570820Y507310D02*
Y508580D01*
X593680D01*
Y507310D02*
Y508580D01*
Y498420D02*
Y499690D01*
X570820Y498420D02*
X593680D01*
X570820D02*
Y499690D01*
X582000Y509420D02*
Y519580D01*
X570570Y518310D02*
Y519580D01*
X593430D01*
Y518310D02*
Y519580D01*
Y509420D02*
Y510690D01*
X570570Y509420D02*
X593430D01*
X570570D02*
Y510690D01*
X151350Y61650D02*
X153350D01*
X151350Y41650D02*
Y61650D01*
Y41650D02*
X153350D01*
X159350D02*
X161350D01*
Y61650D01*
X159350D02*
X161350D01*
X130000Y6000D02*
Y8000D01*
Y6000D02*
X150000D01*
Y8000D01*
Y14000D02*
Y16000D01*
X130000D02*
X150000D01*
X130000Y14000D02*
Y16000D01*
X551500Y395920D02*
Y406080D01*
X540070Y404810D02*
Y406080D01*
X562930D01*
Y404810D02*
Y406080D01*
Y395920D02*
Y397190D01*
X540070Y395920D02*
X562930D01*
X540070D02*
Y397190D01*
X672750Y445650D02*
X674750D01*
X672750D02*
Y465650D01*
X674750D01*
X680750D02*
X682750D01*
Y445650D02*
Y465650D01*
X680750Y445650D02*
X682750D01*
X561600Y59250D02*
Y61250D01*
X541600Y59250D02*
X561600D01*
X541600D02*
Y61250D01*
Y67250D02*
Y69250D01*
X561600D01*
Y67250D02*
Y69250D01*
Y49250D02*
Y51250D01*
X541600Y49250D02*
X561600D01*
X541600D02*
Y51250D01*
Y57250D02*
Y59250D01*
X561600D01*
Y57250D02*
Y59250D01*
X603500Y355500D02*
X617500D01*
X603500Y341500D02*
X606500D01*
X603500D02*
Y369500D01*
X606500D01*
X614500D02*
X617500D01*
Y341500D02*
Y369500D01*
X614500Y341500D02*
X617500D01*
X244750Y49500D02*
X246750D01*
Y29500D02*
Y49500D01*
X244750Y29500D02*
X246750D01*
X236750D02*
X238750D01*
X236750D02*
Y49500D01*
X238750D01*
X244750Y68500D02*
X246750D01*
Y48500D02*
Y68500D01*
X244750Y48500D02*
X246750D01*
X236750D02*
X238750D01*
X236750D02*
Y68500D01*
X238750D01*
X559320Y384920D02*
Y386190D01*
Y384920D02*
X582180D01*
Y386190D01*
Y393810D02*
Y395080D01*
X559320D02*
X582180D01*
X559320Y393810D02*
Y395080D01*
X570750Y384920D02*
Y395080D01*
X547430Y415810D02*
Y417080D01*
X524570D02*
X547430D01*
X524570Y415810D02*
Y417080D01*
Y406920D02*
Y408190D01*
Y406920D02*
X547430D01*
Y408190D01*
X536000Y406920D02*
Y417080D01*
X194716Y85000D02*
X196716D01*
Y105000D01*
X194716D02*
X196716D01*
X186716D02*
X188716D01*
X186716Y85000D02*
Y105000D01*
Y85000D02*
X188716D01*
X241966Y105150D02*
X243966D01*
X241966Y85150D02*
Y105150D01*
Y85150D02*
X243966D01*
X249966D02*
X251966D01*
Y105150D01*
X249966D02*
X251966D01*
X135560Y86320D02*
X136830D01*
Y109180D01*
X135560D02*
X136830D01*
X126670D02*
X127940D01*
X126670Y86320D02*
Y109180D01*
Y86320D02*
X127940D01*
X126670Y97750D02*
X136830D01*
X561600Y47250D02*
Y49250D01*
X541600D02*
X561600D01*
X541600Y47250D02*
Y49250D01*
Y39250D02*
Y41250D01*
Y39250D02*
X561600D01*
Y41250D01*
X652900Y377000D02*
Y379000D01*
X632900D02*
X652900D01*
X632900Y377000D02*
Y379000D01*
Y369000D02*
Y371000D01*
Y369000D02*
X652900D01*
Y371000D01*
X505250Y520750D02*
Y522750D01*
Y520750D02*
X525250D01*
Y522750D01*
Y528750D02*
Y530750D01*
X505250D02*
X525250D01*
X505250Y528750D02*
Y530750D01*
X146500Y194500D02*
Y212500D01*
X129500Y194500D02*
Y198500D01*
Y194500D02*
X163500D01*
Y198500D01*
Y208500D02*
Y212500D01*
X129500D02*
X163500D01*
X129500Y208500D02*
Y212500D01*
X160750Y190500D02*
Y193500D01*
X132750D02*
X160750D01*
X132750Y190500D02*
Y193500D01*
Y179500D02*
Y182500D01*
Y179500D02*
X160750D01*
Y182500D01*
X146750Y179500D02*
Y193500D01*
X162820Y169670D02*
Y170940D01*
Y169670D02*
X185680D01*
Y170940D01*
Y178560D02*
Y179830D01*
X162820D02*
X185680D01*
X162820Y178560D02*
Y179830D01*
X174250Y169670D02*
Y179830D01*
X111750Y163500D02*
X129750D01*
X109750Y176500D02*
X115750D01*
X109750Y150500D02*
Y176500D01*
Y150500D02*
X115750D01*
X125750D02*
X131750D01*
Y176500D01*
X125750D02*
X131750D01*
X185680Y167560D02*
Y168830D01*
X162820D02*
X185680D01*
X162820Y167560D02*
Y168830D01*
Y158670D02*
Y159940D01*
Y158670D02*
X185680D01*
Y159940D01*
X174250Y158670D02*
Y168830D01*
X138570Y109670D02*
Y110940D01*
Y109670D02*
X161430D01*
Y110940D01*
Y118560D02*
Y119830D01*
X138570D02*
X161430D01*
X138570Y118560D02*
Y119830D01*
X150000Y109670D02*
Y119830D01*
X157350Y148500D02*
Y150500D01*
X137350D02*
X157350D01*
X137350Y148500D02*
Y150500D01*
Y140500D02*
Y142500D01*
Y140500D02*
X157350D01*
Y142500D01*
X169250Y85000D02*
Y87000D01*
X149250D02*
X169250D01*
X149250Y85000D02*
Y87000D01*
Y77000D02*
Y79000D01*
Y77000D02*
X169250D01*
Y79000D01*
X168250Y86500D02*
X170250D01*
Y106500D01*
X168250D02*
X170250D01*
X160250D02*
X162250D01*
X160250Y86500D02*
Y106500D01*
Y86500D02*
X162250D01*
X512930Y351060D02*
Y352330D01*
X490070D02*
X512930D01*
X490070Y351060D02*
Y352330D01*
Y342170D02*
Y343440D01*
Y342170D02*
X512930D01*
Y343440D01*
X501500Y342170D02*
Y352330D01*
X512930Y441060D02*
Y442330D01*
X490070D02*
X512930D01*
X490070Y441060D02*
Y442330D01*
Y432170D02*
Y433440D01*
Y432170D02*
X512930D01*
Y433440D01*
X501500Y432170D02*
Y442330D01*
X628500Y355500D02*
X630500D01*
Y375500D01*
X628500D02*
X630500D01*
X620500D02*
X622500D01*
X620500Y355500D02*
Y375500D01*
Y355500D02*
X622500D01*
X673500Y351000D02*
X676500D01*
X673500Y323000D02*
Y351000D01*
Y323000D02*
X676500D01*
X684500D02*
X687500D01*
Y351000D01*
X684500D02*
X687500D01*
X673500Y337000D02*
X687500D01*
X328000Y356750D02*
X330000D01*
X328000Y336750D02*
Y356750D01*
Y336750D02*
X330000D01*
X336000D02*
X338000D01*
Y356750D01*
X336000D02*
X338000D01*
X652900Y387000D02*
Y389000D01*
X632900D02*
X652900D01*
X632900Y387000D02*
Y389000D01*
Y379000D02*
Y381000D01*
Y379000D02*
X652900D01*
Y381000D01*
X495000Y508750D02*
X497000D01*
X495000Y488750D02*
Y508750D01*
Y488750D02*
X497000D01*
X503000D02*
X505000D01*
Y508750D01*
X503000D02*
X505000D01*
X325750Y336750D02*
X327750D01*
Y356750D01*
X325750D02*
X327750D01*
X317750D02*
X319750D01*
X317750Y336750D02*
Y356750D01*
Y336750D02*
X319750D01*
X670750Y445650D02*
X672750D01*
Y465650D01*
X670750D02*
X672750D01*
X662750D02*
X664750D01*
X662750Y445650D02*
Y465650D01*
Y445650D02*
X664750D01*
X599500Y341500D02*
X602500D01*
Y369500D01*
X599500D02*
X602500D01*
X588500D02*
X591500D01*
X588500Y341500D02*
Y369500D01*
Y341500D02*
X591500D01*
X588500Y355500D02*
X602500D01*
X588750Y389750D02*
X616750D01*
X588750Y369750D02*
Y389750D01*
Y369750D02*
X616750D01*
Y389750D01*
X538000Y351250D02*
X541000D01*
X538000Y323250D02*
Y351250D01*
Y323250D02*
X541000D01*
X549000D02*
X552000D01*
Y351250D01*
X549000D02*
X552000D01*
X538000Y337250D02*
X552000D01*
X674250Y418750D02*
X677250D01*
Y446750D01*
X674250D02*
X677250D01*
X663250D02*
X666250D01*
X663250Y418750D02*
Y446750D01*
Y418750D02*
X666250D01*
X663250Y432750D02*
X677250D01*
D15*
X590500Y526400D02*
X592500D01*
Y539900D01*
X590500D02*
X592500D01*
X586000D02*
X588000D01*
X586000Y526400D02*
Y539900D01*
Y526400D02*
X588000D01*
X617750Y554000D02*
X619750D01*
Y540500D02*
Y554000D01*
X617750Y540500D02*
X619750D01*
X613250D02*
X615250D01*
X613250D02*
Y554000D01*
X615250D01*
X205750Y53750D02*
Y55750D01*
X191750D02*
X205750D01*
X191750Y53750D02*
Y55750D01*
Y49250D02*
Y51250D01*
Y49250D02*
X205750D01*
Y51250D01*
Y60750D02*
Y62750D01*
X191750D02*
X205750D01*
X191750Y60750D02*
Y62750D01*
Y56250D02*
Y58250D01*
Y56250D02*
X205750D01*
Y58250D01*
D16*
X778930Y457946D02*
X770466Y449482D01*
Y457946D02*
X778930Y449482D01*
X774698Y457946D02*
Y449482D01*
X770466Y453714D02*
X778930D01*
X587270Y382117D02*
X595734Y390581D01*
Y382117D02*
X587270Y390581D01*
X591502Y382117D02*
Y390581D01*
X595734Y386349D02*
X587270D01*
X200035Y114600D02*
X208499Y106136D01*
X200035D02*
X208499Y114600D01*
X200035Y110368D02*
X208499D01*
X204267Y106136D02*
Y114600D01*
X587455Y534330D02*
X595919Y525866D01*
X587455D02*
X595919Y534330D01*
X587455Y530098D02*
X595919D01*
X591687Y525866D02*
Y534330D01*
X781770Y682885D02*
X790234Y691349D01*
Y682885D02*
X781770Y691349D01*
X786002Y682885D02*
Y691349D01*
X790234Y687117D02*
X781770D01*
X128549Y96651D02*
Y105115D01*
X132781Y109347D01*
X137013Y105115D01*
Y96651D01*
Y102999D01*
X128549D01*
X137013Y97229D02*
X134897Y99345D01*
X130665D01*
X128549Y97229D01*
Y88765D01*
X130665Y86649D01*
X134897D01*
X137013Y88765D01*
X157250Y111250D02*
Y115482D01*
Y113366D01*
X144554D01*
X146670Y111250D01*
X146290Y117050D02*
X144174Y119166D01*
Y123398D01*
X146290Y125514D01*
X148406D01*
X150522Y123398D01*
Y121282D01*
Y123398D01*
X152638Y125514D01*
X154754D01*
X156870Y123398D01*
Y119166D01*
X154754Y117050D01*
D17*
X128524Y72385D02*
Y59689D01*
X131063Y57150D01*
X136142D01*
X138681Y59689D01*
Y72385D01*
X153916D02*
X148837Y69846D01*
X143759Y64767D01*
Y59689D01*
X146298Y57150D01*
X151377D01*
X153916Y59689D01*
Y62228D01*
X151377Y64767D01*
X143759D01*
X206502Y88133D02*
Y75437D01*
X209041Y72898D01*
X214119D01*
X216659Y75437D01*
Y88133D01*
X221737Y85594D02*
X224276Y88133D01*
X229355D01*
X231894Y85594D01*
Y83055D01*
X229355Y80515D01*
X231894Y77976D01*
Y75437D01*
X229355Y72898D01*
X224276D01*
X221737Y75437D01*
Y77976D01*
X224276Y80515D01*
X221737Y83055D01*
Y85594D01*
X224276Y80515D02*
X229355D01*
X153416Y66035D02*
Y50800D01*
X163573D01*
X168651D02*
X173729D01*
X171190D01*
Y66035D01*
X168651Y63496D01*
X163319Y82800D02*
X160779Y85339D01*
X155701D01*
X153162Y82800D01*
Y72643D01*
X155701Y70104D01*
X160779D01*
X163319Y72643D01*
X178554Y70104D02*
X168397D01*
X178554Y80261D01*
Y82800D01*
X176015Y85339D01*
X170936D01*
X168397Y82800D01*
X183632D02*
X186171Y85339D01*
X191250D01*
X193789Y82800D01*
Y72643D01*
X191250Y70104D01*
X186171D01*
X183632Y72643D01*
Y82800D01*
X141983Y37080D02*
X139444Y39619D01*
X134365D01*
X131826Y37080D01*
Y26923D01*
X134365Y24384D01*
X139444D01*
X141983Y26923D01*
X147061Y24384D02*
X152139D01*
X149600D01*
Y39619D01*
X147061Y37080D01*
X159757Y26923D02*
X162296Y24384D01*
X167374D01*
X169914Y26923D01*
Y37080D01*
X167374Y39619D01*
X162296D01*
X159757Y37080D01*
Y34541D01*
X162296Y32002D01*
X169914D01*
X684731Y486624D02*
X682191Y489163D01*
X677113D01*
X674574Y486624D01*
Y476467D01*
X677113Y473928D01*
X682191D01*
X684731Y476467D01*
X689809D02*
X692348Y473928D01*
X697427D01*
X699966Y476467D01*
Y486624D01*
X697427Y489163D01*
X692348D01*
X689809Y486624D01*
Y484085D01*
X692348Y481545D01*
X699966D01*
X534159Y275839D02*
X529080D01*
X531619D01*
Y263143D01*
X529080Y260604D01*
X526541D01*
X524002Y263143D01*
X539237Y260604D02*
X544315D01*
X541776D01*
Y275839D01*
X539237Y273300D01*
X551933D02*
X554472Y275839D01*
X559551D01*
X562090Y273300D01*
Y263143D01*
X559551Y260604D01*
X554472D01*
X551933Y263143D01*
Y273300D01*
X340360Y516885D02*
Y504189D01*
X342899Y501650D01*
X347977D01*
X350517Y504189D01*
Y516885D01*
X363213Y501650D02*
Y516885D01*
X355595Y509268D01*
X365752D01*
X707644Y488437D02*
Y475741D01*
X710183Y473202D01*
X715262D01*
X717801Y475741D01*
Y488437D01*
X733036Y473202D02*
X722879D01*
X733036Y483359D01*
Y485898D01*
X730497Y488437D01*
X725418D01*
X722879Y485898D01*
X580340Y496783D02*
Y484087D01*
X582879Y481548D01*
X587957D01*
X590497Y484087D01*
Y496783D01*
X595575Y481548D02*
X600653D01*
X598114D01*
Y496783D01*
X595575Y494244D01*
X484375Y822447D02*
X479296D01*
X481836D01*
Y809751D01*
X479296Y807212D01*
X476757D01*
X474218Y809751D01*
X499610Y822447D02*
X489453D01*
Y814829D01*
X494531Y817369D01*
X497071D01*
X499610Y814829D01*
Y809751D01*
X497071Y807212D01*
X491992D01*
X489453Y809751D01*
X79245Y821177D02*
X74166D01*
X76705D01*
Y808481D01*
X74166Y805942D01*
X71627D01*
X69088Y808481D01*
X84323Y818638D02*
X86862Y821177D01*
X91941D01*
X94480Y818638D01*
Y816099D01*
X91941Y813559D01*
X89401D01*
X91941D01*
X94480Y811020D01*
Y808481D01*
X91941Y805942D01*
X86862D01*
X84323Y808481D01*
X276857Y821939D02*
X271778D01*
X274317D01*
Y809243D01*
X271778Y806704D01*
X269239D01*
X266700Y809243D01*
X292092Y806704D02*
X281935D01*
X292092Y816861D01*
Y819400D01*
X289553Y821939D01*
X284474D01*
X281935Y819400D01*
X661413Y749041D02*
X656334D01*
X658874D01*
Y736345D01*
X656334Y733806D01*
X653795D01*
X651256Y736345D01*
X674109Y733806D02*
Y749041D01*
X666491Y741423D01*
X676648D01*
X253997Y126234D02*
X251458Y128773D01*
X246379D01*
X243840Y126234D01*
Y116077D01*
X246379Y113538D01*
X251458D01*
X253997Y116077D01*
X259075Y126234D02*
X261614Y128773D01*
X266693D01*
X269232Y126234D01*
Y123695D01*
X266693Y121156D01*
X264153D01*
X266693D01*
X269232Y118616D01*
Y116077D01*
X266693Y113538D01*
X261614D01*
X259075Y116077D01*
X274310Y126234D02*
X276849Y128773D01*
X281928D01*
X284467Y126234D01*
Y116077D01*
X281928Y113538D01*
X276849D01*
X274310Y116077D01*
Y126234D01*
X198625Y125980D02*
X196085Y128519D01*
X191007D01*
X188468Y125980D01*
Y115823D01*
X191007Y113284D01*
X196085D01*
X198625Y115823D01*
X213860Y113284D02*
X203703D01*
X213860Y123441D01*
Y125980D01*
X211321Y128519D01*
X206242D01*
X203703Y125980D01*
X218938Y115823D02*
X221477Y113284D01*
X226556D01*
X229095Y115823D01*
Y125980D01*
X226556Y128519D01*
X221477D01*
X218938Y125980D01*
Y123441D01*
X221477Y120901D01*
X229095D01*
X130302Y149093D02*
Y136397D01*
X132841Y133858D01*
X137920D01*
X140459Y136397D01*
Y149093D01*
X145537D02*
X155694D01*
Y146554D01*
X145537Y136397D01*
Y133858D01*
X128262Y118070D02*
Y133305D01*
X135879D01*
X138419Y130766D01*
Y125688D01*
X135879Y123148D01*
X128262D01*
X133340D02*
X138419Y118070D01*
X143497D02*
X148575D01*
X146036D01*
Y133305D01*
X143497Y130766D01*
X166350Y118070D02*
X156193D01*
X166350Y128227D01*
Y130766D01*
X163811Y133305D01*
X158732D01*
X156193Y130766D01*
X553463Y90420D02*
X550924Y92959D01*
X545845D01*
X543306Y90420D01*
Y80263D01*
X545845Y77724D01*
X550924D01*
X553463Y80263D01*
X558541Y90420D02*
X561080Y92959D01*
X566159D01*
X568698Y90420D01*
Y87881D01*
X566159Y85342D01*
X563619D01*
X566159D01*
X568698Y82802D01*
Y80263D01*
X566159Y77724D01*
X561080D01*
X558541Y80263D01*
X573776Y90420D02*
X576315Y92959D01*
X581394D01*
X583933Y90420D01*
Y87881D01*
X581394Y85342D01*
X578854D01*
X581394D01*
X583933Y82802D01*
Y80263D01*
X581394Y77724D01*
X576315D01*
X573776Y80263D01*
X553463Y80260D02*
X550924Y82799D01*
X545845D01*
X543306Y80260D01*
Y70103D01*
X545845Y67564D01*
X550924D01*
X553463Y70103D01*
X558541Y80260D02*
X561080Y82799D01*
X566159D01*
X568698Y80260D01*
Y77721D01*
X566159Y75181D01*
X563619D01*
X566159D01*
X568698Y72642D01*
Y70103D01*
X566159Y67564D01*
X561080D01*
X558541Y70103D01*
X583933Y67564D02*
X573776D01*
X583933Y77721D01*
Y80260D01*
X581394Y82799D01*
X576315D01*
X573776Y80260D01*
X553463Y70354D02*
X550924Y72893D01*
X545845D01*
X543306Y70354D01*
Y60197D01*
X545845Y57658D01*
X550924D01*
X553463Y60197D01*
X558541Y70354D02*
X561080Y72893D01*
X566159D01*
X568698Y70354D01*
Y67815D01*
X566159Y65276D01*
X563619D01*
X566159D01*
X568698Y62736D01*
Y60197D01*
X566159Y57658D01*
X561080D01*
X558541Y60197D01*
X573776Y57658D02*
X578854D01*
X576315D01*
Y72893D01*
X573776Y70354D01*
X248663Y89658D02*
X246124Y92197D01*
X241045D01*
X238506Y89658D01*
Y79501D01*
X241045Y76962D01*
X246124D01*
X248663Y79501D01*
X263898Y76962D02*
X253741D01*
X263898Y87119D01*
Y89658D01*
X261359Y92197D01*
X256280D01*
X253741Y89658D01*
X268976D02*
X271515Y92197D01*
X276594D01*
X279133Y89658D01*
Y87119D01*
X276594Y84579D01*
X279133Y82040D01*
Y79501D01*
X276594Y76962D01*
X271515D01*
X268976Y79501D01*
Y82040D01*
X271515Y84579D01*
X268976Y87119D01*
Y89658D01*
X271515Y84579D02*
X276594D01*
X644903Y400046D02*
X642364Y402585D01*
X637285D01*
X634746Y400046D01*
Y389889D01*
X637285Y387350D01*
X642364D01*
X644903Y389889D01*
X660138Y402585D02*
X655059Y400046D01*
X649981Y394967D01*
Y389889D01*
X652520Y387350D01*
X657599D01*
X660138Y389889D01*
Y392428D01*
X657599Y394967D01*
X649981D01*
X199136Y138171D02*
Y125475D01*
X201675Y122936D01*
X206754D01*
X209293Y125475D01*
Y138171D01*
X214371Y125475D02*
X216910Y122936D01*
X221989D01*
X224528Y125475D01*
Y135632D01*
X221989Y138171D01*
X216910D01*
X214371Y135632D01*
Y133093D01*
X216910Y130554D01*
X224528D01*
X193802Y70866D02*
Y86101D01*
X201420D01*
X203959Y83562D01*
Y78484D01*
X201420Y75944D01*
X193802D01*
X198880D02*
X203959Y70866D01*
X209037D02*
X214115D01*
X211576D01*
Y86101D01*
X209037Y83562D01*
X229350Y70866D02*
Y86101D01*
X221733Y78484D01*
X231890D01*
X193802Y63754D02*
Y78989D01*
X201420D01*
X203959Y76450D01*
Y71371D01*
X201420Y68832D01*
X193802D01*
X198880D02*
X203959Y63754D01*
X209037D02*
X214115D01*
X211576D01*
Y78989D01*
X209037Y76450D01*
X221733D02*
X224272Y78989D01*
X229350D01*
X231890Y76450D01*
Y73911D01*
X229350Y71371D01*
X226811D01*
X229350D01*
X231890Y68832D01*
Y66293D01*
X229350Y63754D01*
X224272D01*
X221733Y66293D01*
X139692Y128484D02*
Y143719D01*
X147310D01*
X149849Y141180D01*
Y136102D01*
X147310Y133562D01*
X139692D01*
X144770D02*
X149849Y128484D01*
X154927D02*
X160005D01*
X157466D01*
Y143719D01*
X154927Y141180D01*
X167623Y128484D02*
X172701D01*
X170162D01*
Y143719D01*
X167623Y141180D01*
X164076Y177252D02*
Y192487D01*
X171693D01*
X174233Y189948D01*
Y184869D01*
X171693Y182330D01*
X164076D01*
X169154D02*
X174233Y177252D01*
X179311D02*
X184389D01*
X181850D01*
Y192487D01*
X179311Y189948D01*
X192007D02*
X194546Y192487D01*
X199625D01*
X202164Y189948D01*
Y179791D01*
X199625Y177252D01*
X194546D01*
X192007Y179791D01*
Y189948D01*
X164076Y188428D02*
Y203663D01*
X171693D01*
X174233Y201124D01*
Y196045D01*
X171693Y193506D01*
X164076D01*
X169154D02*
X174233Y188428D01*
X179311Y190967D02*
X181850Y188428D01*
X186929D01*
X189468Y190967D01*
Y201124D01*
X186929Y203663D01*
X181850D01*
X179311Y201124D01*
Y198585D01*
X181850Y196045D01*
X189468D01*
X496570Y540512D02*
Y555747D01*
X504188D01*
X506727Y553208D01*
Y548130D01*
X504188Y545590D01*
X496570D01*
X501648D02*
X506727Y540512D01*
X511805Y553208D02*
X514344Y555747D01*
X519423D01*
X521962Y553208D01*
Y550669D01*
X519423Y548130D01*
X521962Y545590D01*
Y543051D01*
X519423Y540512D01*
X514344D01*
X511805Y543051D01*
Y545590D01*
X514344Y548130D01*
X511805Y550669D01*
Y553208D01*
X514344Y548130D02*
X519423D01*
X110998Y200655D02*
Y185420D01*
X121155D01*
X136390D02*
X126233D01*
X136390Y195577D01*
Y198116D01*
X133851Y200655D01*
X128772D01*
X126233Y198116D01*
X546605Y62479D02*
X541526D01*
X544066D01*
Y49783D01*
X541526Y47244D01*
X538987D01*
X536448Y49783D01*
X551683D02*
X554222Y47244D01*
X559301D01*
X561840Y49783D01*
Y59940D01*
X559301Y62479D01*
X554222D01*
X551683Y59940D01*
Y57401D01*
X554222Y54861D01*
X561840D01*
X353565Y338069D02*
X348486D01*
X351026D01*
Y325373D01*
X348486Y322834D01*
X345947D01*
X343408Y325373D01*
X358643Y335530D02*
X361182Y338069D01*
X366261D01*
X368800Y335530D01*
Y332991D01*
X366261Y330452D01*
X368800Y327912D01*
Y325373D01*
X366261Y322834D01*
X361182D01*
X358643Y325373D01*
Y327912D01*
X361182Y330452D01*
X358643Y332991D01*
Y335530D01*
X361182Y330452D02*
X366261D01*
X13967Y447035D02*
X8888D01*
X11428D01*
Y434339D01*
X8888Y431800D01*
X6349D01*
X3810Y434339D01*
X19045Y447035D02*
X29202D01*
Y444496D01*
X19045Y434339D01*
Y431800D01*
X248663Y70608D02*
X246124Y73147D01*
X241045D01*
X238506Y70608D01*
Y60451D01*
X241045Y57912D01*
X246124D01*
X248663Y60451D01*
X263898Y57912D02*
X253741D01*
X263898Y68069D01*
Y70608D01*
X261359Y73147D01*
X256280D01*
X253741Y70608D01*
X268976Y73147D02*
X279133D01*
Y70608D01*
X268976Y60451D01*
Y57912D01*
X161287Y107946D02*
X158748Y110485D01*
X153669D01*
X151130Y107946D01*
Y97789D01*
X153669Y95250D01*
X158748D01*
X161287Y97789D01*
X176522Y95250D02*
X166365D01*
X176522Y105407D01*
Y107946D01*
X173983Y110485D01*
X168904D01*
X166365Y107946D01*
X191757Y110485D02*
X186679Y107946D01*
X181600Y102867D01*
Y97789D01*
X184139Y95250D01*
X189218D01*
X191757Y97789D01*
Y100328D01*
X189218Y102867D01*
X181600D01*
X172209Y127504D02*
X169669Y130043D01*
X164591D01*
X162052Y127504D01*
Y117347D01*
X164591Y114808D01*
X169669D01*
X172209Y117347D01*
X187444Y114808D02*
X177287D01*
X187444Y124965D01*
Y127504D01*
X184905Y130043D01*
X179826D01*
X177287Y127504D01*
X202679Y130043D02*
X192522D01*
Y122425D01*
X197600Y124965D01*
X200140D01*
X202679Y122425D01*
Y117347D01*
X200140Y114808D01*
X195061D01*
X192522Y117347D01*
X141475Y233676D02*
X138935Y236215D01*
X133857D01*
X131318Y233676D01*
Y223519D01*
X133857Y220980D01*
X138935D01*
X141475Y223519D01*
X156710Y220980D02*
X146553D01*
X156710Y231137D01*
Y233676D01*
X154171Y236215D01*
X149092D01*
X146553Y233676D01*
X161788D02*
X164327Y236215D01*
X169406D01*
X171945Y233676D01*
Y231137D01*
X169406Y228598D01*
X166866D01*
X169406D01*
X171945Y226058D01*
Y223519D01*
X169406Y220980D01*
X164327D01*
X161788Y223519D01*
X144777Y214626D02*
X142238Y217165D01*
X137159D01*
X134620Y214626D01*
Y204469D01*
X137159Y201930D01*
X142238D01*
X144777Y204469D01*
X160012Y201930D02*
X149855D01*
X160012Y212087D01*
Y214626D01*
X157473Y217165D01*
X152394D01*
X149855Y214626D01*
X175247Y201930D02*
X165090D01*
X175247Y212087D01*
Y214626D01*
X172708Y217165D01*
X167629D01*
X165090Y214626D01*
X149349Y171446D02*
X146810Y173985D01*
X141731D01*
X139192Y171446D01*
Y161289D01*
X141731Y158750D01*
X146810D01*
X149349Y161289D01*
X164584Y158750D02*
X154427D01*
X164584Y168907D01*
Y171446D01*
X162045Y173985D01*
X156966D01*
X154427Y171446D01*
X169662Y158750D02*
X174741D01*
X172201D01*
Y173985D01*
X169662Y171446D01*
X598167Y561336D02*
X595628Y563875D01*
X590549D01*
X588010Y561336D01*
Y551179D01*
X590549Y548640D01*
X595628D01*
X598167Y551179D01*
X603245Y548640D02*
X608323D01*
X605784D01*
Y563875D01*
X603245Y561336D01*
X615941D02*
X618480Y563875D01*
X623559D01*
X626098Y561336D01*
Y558797D01*
X623559Y556258D01*
X626098Y553718D01*
Y551179D01*
X623559Y548640D01*
X618480D01*
X615941Y551179D01*
Y553718D01*
X618480Y556258D01*
X615941Y558797D01*
Y561336D01*
X618480Y556258D02*
X623559D01*
X517141Y551938D02*
X514602Y554477D01*
X509523D01*
X506984Y551938D01*
Y541781D01*
X509523Y539242D01*
X514602D01*
X517141Y541781D01*
X522219Y539242D02*
X527297D01*
X524758D01*
Y554477D01*
X522219Y551938D01*
X534915Y554477D02*
X545072D01*
Y551938D01*
X534915Y541781D01*
Y539242D01*
X538856Y361705D02*
Y359166D01*
X543934Y354088D01*
X549013Y359166D01*
Y361705D01*
X543934Y354088D02*
Y346470D01*
X564248D02*
X554091D01*
X564248Y356627D01*
Y359166D01*
X561709Y361705D01*
X556630D01*
X554091Y359166D01*
X590296Y416047D02*
Y413508D01*
X595374Y408429D01*
X600453Y413508D01*
Y416047D01*
X595374Y408429D02*
Y400812D01*
X605531D02*
X610609D01*
X608070D01*
Y416047D01*
X605531Y413508D01*
X131056Y201885D02*
Y189189D01*
X133595Y186650D01*
X138673D01*
X141213Y189189D01*
Y201885D01*
X156448D02*
X146291D01*
Y194268D01*
X151369Y196807D01*
X153909D01*
X156448Y194268D01*
Y189189D01*
X153909Y186650D01*
X148830D01*
X146291Y189189D01*
X589280Y564637D02*
Y551941D01*
X591819Y549402D01*
X596898D01*
X599437Y551941D01*
Y564637D01*
X604515Y562098D02*
X607054Y564637D01*
X612133D01*
X614672Y562098D01*
Y559559D01*
X612133Y557020D01*
X609593D01*
X612133D01*
X614672Y554480D01*
Y551941D01*
X612133Y549402D01*
X607054D01*
X604515Y551941D01*
X571754Y528066D02*
Y543301D01*
X579371D01*
X581911Y540762D01*
Y535684D01*
X579371Y533144D01*
X571754D01*
X576832D02*
X581911Y528066D01*
X586989Y543301D02*
X597146D01*
Y540762D01*
X586989Y530605D01*
Y528066D01*
X572008Y517144D02*
Y532379D01*
X579626D01*
X582165Y529840D01*
Y524762D01*
X579626Y522222D01*
X572008D01*
X577086D02*
X582165Y517144D01*
X597400Y532379D02*
X592321Y529840D01*
X587243Y524762D01*
Y519683D01*
X589782Y517144D01*
X594861D01*
X597400Y519683D01*
Y522222D01*
X594861Y524762D01*
X587243D01*
X491236Y360934D02*
Y376169D01*
X498853D01*
X501393Y373630D01*
Y368551D01*
X498853Y366012D01*
X491236D01*
X496314D02*
X501393Y360934D01*
X516628Y376169D02*
X506471D01*
Y368551D01*
X511549Y371091D01*
X514089D01*
X516628Y368551D01*
Y363473D01*
X514089Y360934D01*
X509010D01*
X506471Y363473D01*
X491236Y450850D02*
Y466085D01*
X498853D01*
X501393Y463546D01*
Y458467D01*
X498853Y455928D01*
X491236D01*
X496314D02*
X501393Y450850D01*
X514089D02*
Y466085D01*
X506471Y458467D01*
X516628D01*
X525730Y425668D02*
Y440903D01*
X533348D01*
X535887Y438364D01*
Y433285D01*
X533348Y430746D01*
X525730D01*
X530808D02*
X535887Y425668D01*
X540965Y438364D02*
X543504Y440903D01*
X548583D01*
X551122Y438364D01*
Y435825D01*
X548583Y433285D01*
X546043D01*
X548583D01*
X551122Y430746D01*
Y428207D01*
X548583Y425668D01*
X543504D01*
X540965Y428207D01*
X560528Y403570D02*
Y418805D01*
X568145D01*
X570685Y416266D01*
Y411188D01*
X568145Y408648D01*
X560528D01*
X565606D02*
X570685Y403570D01*
X585920D02*
X575763D01*
X585920Y413727D01*
Y416266D01*
X583381Y418805D01*
X578302D01*
X575763Y416266D01*
X541224Y414746D02*
Y429981D01*
X548842D01*
X551381Y427442D01*
Y422364D01*
X548842Y419824D01*
X541224D01*
X546302D02*
X551381Y414746D01*
X556459D02*
X561537D01*
X558998D01*
Y429981D01*
X556459Y427442D01*
X517649Y543809D02*
X512570D01*
X515109D01*
Y531113D01*
X512570Y528574D01*
X510031D01*
X507492Y531113D01*
X522727Y528574D02*
X527805D01*
X525266D01*
Y543809D01*
X522727Y541270D01*
X506981Y532379D02*
X496824D01*
Y524762D01*
X501902D01*
X496824D01*
Y517144D01*
X512059Y532379D02*
Y517144D01*
X519677D01*
X522216Y519683D01*
Y522222D01*
X519677Y524762D01*
X512059D01*
X519677D01*
X522216Y527301D01*
Y529840D01*
X519677Y532379D01*
X512059D01*
X527294Y517144D02*
X532373D01*
X529833D01*
Y532379D01*
X527294Y529840D01*
X614931Y580132D02*
X612392Y582671D01*
X607313D01*
X604774Y580132D01*
Y569975D01*
X607313Y567436D01*
X612392D01*
X614931Y569975D01*
X620009Y567436D02*
X625087D01*
X622548D01*
Y582671D01*
X620009Y580132D01*
X642862Y582671D02*
X637783Y580132D01*
X632705Y575053D01*
Y569975D01*
X635244Y567436D01*
X640322D01*
X642862Y569975D01*
Y572514D01*
X640322Y575053D01*
X632705D01*
X631441Y570734D02*
X628901Y573273D01*
X623823D01*
X621284Y570734D01*
Y560577D01*
X623823Y558038D01*
X628901D01*
X631441Y560577D01*
X636519Y558038D02*
X641597D01*
X639058D01*
Y573273D01*
X636519Y570734D01*
X659372Y573273D02*
X649215D01*
Y565656D01*
X654293Y568195D01*
X656833D01*
X659372Y565656D01*
Y560577D01*
X656833Y558038D01*
X651754D01*
X649215Y560577D01*
X605025Y579624D02*
X602486Y582163D01*
X597407D01*
X594868Y579624D01*
Y569467D01*
X597407Y566928D01*
X602486D01*
X605025Y569467D01*
X610103Y566928D02*
X615181D01*
X612642D01*
Y582163D01*
X610103Y579624D01*
X630416Y566928D02*
Y582163D01*
X622799Y574546D01*
X632956D01*
X625345Y575306D02*
X622805Y577845D01*
X617727D01*
X615188Y575306D01*
Y565149D01*
X617727Y562610D01*
X622805D01*
X625345Y565149D01*
X630423Y562610D02*
X635501D01*
X632962D01*
Y577845D01*
X630423Y575306D01*
X643119D02*
X645658Y577845D01*
X650736D01*
X653276Y575306D01*
Y572767D01*
X650736Y570228D01*
X648197D01*
X650736D01*
X653276Y567688D01*
Y565149D01*
X650736Y562610D01*
X645658D01*
X643119Y565149D01*
X329689Y377694D02*
X327150Y380233D01*
X322071D01*
X319532Y377694D01*
Y367537D01*
X322071Y364998D01*
X327150D01*
X329689Y367537D01*
X334767Y364998D02*
X339845D01*
X337306D01*
Y380233D01*
X334767Y377694D01*
X357620Y364998D02*
X347463D01*
X357620Y375155D01*
Y377694D01*
X355080Y380233D01*
X350002D01*
X347463Y377694D01*
X339849D02*
X337309Y380233D01*
X332231D01*
X329692Y377694D01*
Y367537D01*
X332231Y364998D01*
X337309D01*
X339849Y367537D01*
X344927Y364998D02*
X350005D01*
X347466D01*
Y380233D01*
X344927Y377694D01*
X357623Y364998D02*
X362701D01*
X360162D01*
Y380233D01*
X357623Y377694D01*
X674571Y486624D02*
X672031Y489163D01*
X666953D01*
X664414Y486624D01*
Y476467D01*
X666953Y473928D01*
X672031D01*
X674571Y476467D01*
X679649Y473928D02*
X684727D01*
X682188D01*
Y489163D01*
X679649Y486624D01*
X692345D02*
X694884Y489163D01*
X699962D01*
X702502Y486624D01*
Y476467D01*
X699962Y473928D01*
X694884D01*
X692345Y476467D01*
Y486624D01*
X644903Y409952D02*
X642364Y412491D01*
X637285D01*
X634746Y409952D01*
Y399795D01*
X637285Y397256D01*
X642364D01*
X644903Y399795D01*
X649981Y412491D02*
X660138D01*
Y409952D01*
X649981Y399795D01*
Y397256D01*
X685493Y372070D02*
X682953Y374609D01*
X677875D01*
X675336Y372070D01*
Y361913D01*
X677875Y359374D01*
X682953D01*
X685493Y361913D01*
X690571Y372070D02*
X693110Y374609D01*
X698189D01*
X700728Y372070D01*
Y369531D01*
X698189Y366992D01*
X700728Y364452D01*
Y361913D01*
X698189Y359374D01*
X693110D01*
X690571Y361913D01*
Y364452D01*
X693110Y366992D01*
X690571Y369531D01*
Y372070D01*
X693110Y366992D02*
X698189D01*
X632457Y396490D02*
X629917Y399029D01*
X624839D01*
X622300Y396490D01*
Y386333D01*
X624839Y383794D01*
X629917D01*
X632457Y386333D01*
X647692Y399029D02*
X637535D01*
Y391412D01*
X642613Y393951D01*
X645153D01*
X647692Y391412D01*
Y386333D01*
X645153Y383794D01*
X640074D01*
X637535Y386333D01*
X675079Y467828D02*
X672540Y470367D01*
X667461D01*
X664922Y467828D01*
Y457671D01*
X667461Y455132D01*
X672540D01*
X675079Y457671D01*
X687775Y455132D02*
Y470367D01*
X680157Y462749D01*
X690314D01*
X549857Y372324D02*
X547318Y374863D01*
X542239D01*
X539700Y372324D01*
Y362167D01*
X542239Y359628D01*
X547318D01*
X549857Y362167D01*
X554935Y372324D02*
X557474Y374863D01*
X562553D01*
X565092Y372324D01*
Y369785D01*
X562553Y367245D01*
X560013D01*
X562553D01*
X565092Y364706D01*
Y362167D01*
X562553Y359628D01*
X557474D01*
X554935Y362167D01*
X615439Y390648D02*
X612900Y393187D01*
X607821D01*
X605282Y390648D01*
Y380491D01*
X607821Y377952D01*
X612900D01*
X615439Y380491D01*
X630674Y377952D02*
X620517D01*
X630674Y388109D01*
Y390648D01*
X628135Y393187D01*
X623056D01*
X620517Y390648D01*
X600453D02*
X597914Y393187D01*
X592835D01*
X590296Y390648D01*
Y380491D01*
X592835Y377952D01*
X597914D01*
X600453Y380491D01*
X605531Y377952D02*
X610609D01*
X608070D01*
Y393187D01*
X605531Y390648D01*
M02*
