G04*
G04 #@! TF.GenerationSoftware,Altium Limited,Altium Designer,24.4.1 (13)*
G04*
G04 Layer_Color=32896*
%FSLAX44Y44*%
%MOMM*%
G71*
G04*
G04 #@! TF.SameCoordinates,85F95AA7-1CD2-4A53-B858-D1680FFA15A6*
G04*
G04*
G04 #@! TF.FilePolarity,Positive*
G04*
G01*
G75*
%ADD10C,0.5080*%
%ADD12C,0.2000*%
%ADD14C,0.1500*%
%ADD16C,0.0762*%
%ADD17C,0.2540*%
D10*
X76750Y747500D02*
G03*
X76750Y747500I-3810J0D01*
G01*
X481750Y748698D02*
G03*
X481750Y748698I-3810J0D01*
G01*
X274250Y748250D02*
G03*
X274250Y748250I-3810J0D01*
G01*
D12*
X44500Y128750D02*
X47500D01*
X54500D02*
X56500D01*
X47500Y124750D02*
Y133750D01*
X54500Y128750D01*
X47500Y124750D02*
X54500Y128750D01*
Y123750D02*
Y133750D01*
X99500Y95750D02*
Y123750D01*
X97500D02*
X99500D01*
X97500Y95750D02*
Y123750D01*
Y133750D02*
Y161750D01*
Y133750D02*
X99500D01*
Y161750D01*
X1500Y148500D02*
Y161750D01*
Y95750D02*
Y109000D01*
Y161750D02*
X99500D01*
X1500Y95750D02*
X99500D01*
X21750Y89000D02*
X60750D01*
X21750Y80000D02*
Y89000D01*
Y80000D02*
X36750D01*
Y69000D02*
Y80000D01*
X21750Y9000D02*
X60750D01*
X21750D02*
Y18000D01*
X36750D01*
Y29000D01*
X96750Y27000D02*
Y71000D01*
D14*
X772000Y632750D02*
X774000D01*
Y652750D01*
X772000D02*
X774000D01*
X764000D02*
X766000D01*
X764000Y632750D02*
Y652750D01*
Y632750D02*
X766000D01*
D16*
X137000Y96750D02*
Y105214D01*
X132768Y109446D01*
X128536Y105214D01*
Y96750D01*
Y103098D01*
X137000D01*
X128536Y97080D02*
X130652Y99196D01*
X134884D01*
X137000Y97080D01*
Y88616D01*
X134884Y86500D01*
X130652D01*
X128536Y88616D01*
X157250Y111250D02*
Y115482D01*
Y113366D01*
X144554D01*
X146670Y111250D01*
X154750Y117050D02*
X156866Y119166D01*
Y123398D01*
X154750Y125514D01*
X152634D01*
X150518Y123398D01*
Y121282D01*
Y123398D01*
X148402Y125514D01*
X146286D01*
X144170Y123398D01*
Y119166D01*
X146286Y117050D01*
D17*
X90173Y117851D02*
X95252D01*
X92712D01*
Y105155D01*
X95252Y102616D01*
X97791D01*
X100330Y105155D01*
X74938Y117851D02*
X80017Y115312D01*
X85095Y110233D01*
Y105155D01*
X82556Y102616D01*
X77477D01*
X74938Y105155D01*
Y107694D01*
X77477Y110233D01*
X85095D01*
X23368Y185923D02*
Y170688D01*
X15750D01*
X13211Y173227D01*
Y183384D01*
X15750Y185923D01*
X23368D01*
X8133Y170688D02*
X3055D01*
X5594D01*
Y185923D01*
X8133Y183384D01*
X762003Y673858D02*
X764542Y676397D01*
X769621D01*
X772160Y673858D01*
Y663701D01*
X769621Y661162D01*
X764542D01*
X762003Y663701D01*
X746768Y661162D02*
X756925D01*
X746768Y671319D01*
Y673858D01*
X749307Y676397D01*
X754386D01*
X756925Y673858D01*
X734072Y661162D02*
Y676397D01*
X741690Y668780D01*
X731533D01*
M02*
