G04*
G04 #@! TF.GenerationSoftware,Altium Limited,Altium Designer,24.4.1 (13)*
G04*
G04 Layer_Physical_Order=3*
G04 Layer_Color=16440176*
%FSLAX44Y44*%
%MOMM*%
G71*
G04*
G04 #@! TF.SameCoordinates,85F95AA7-1CD2-4A53-B858-D1680FFA15A6*
G04*
G04*
G04 #@! TF.FilePolarity,Positive*
G04*
G01*
G75*
%ADD17C,0.2540*%
%ADD81O,1.5000X2.0000*%
%ADD83C,0.5000*%
%ADD84C,1.2700*%
%ADD85C,1.5240*%
G36*
X798517Y1483D02*
X1483D01*
Y798517D01*
X798517D01*
Y1483D01*
D02*
G37*
%LPC*%
G36*
X506017Y773350D02*
X504983D01*
X504027Y772954D01*
X503296Y772223D01*
X502900Y771267D01*
Y770233D01*
X503296Y769277D01*
X504027Y768546D01*
X504983Y768150D01*
X506017D01*
X506973Y768546D01*
X507704Y769277D01*
X508100Y770233D01*
Y771267D01*
X507704Y772223D01*
X506973Y772954D01*
X506017Y773350D01*
D02*
G37*
G36*
X100267Y770600D02*
X99233D01*
X98277Y770204D01*
X97546Y769473D01*
X97150Y768517D01*
Y767483D01*
X97546Y766527D01*
X98277Y765796D01*
X99233Y765400D01*
X100267D01*
X101223Y765796D01*
X101954Y766527D01*
X102350Y767483D01*
Y768517D01*
X101954Y769473D01*
X101223Y770204D01*
X100267Y770600D01*
D02*
G37*
G36*
X297267Y769850D02*
X296233D01*
X295277Y769454D01*
X294546Y768723D01*
X294150Y767767D01*
Y766733D01*
X294546Y765777D01*
X295277Y765046D01*
X296233Y764650D01*
X297267D01*
X298223Y765046D01*
X298954Y765777D01*
X299350Y766733D01*
Y767767D01*
X298954Y768723D01*
X298223Y769454D01*
X297267Y769850D01*
D02*
G37*
G36*
X506017Y751350D02*
X504983D01*
X504027Y750954D01*
X503296Y750223D01*
X502900Y749267D01*
Y748233D01*
X503296Y747277D01*
X504027Y746546D01*
X504983Y746150D01*
X506017D01*
X506973Y746546D01*
X507704Y747277D01*
X508100Y748233D01*
Y749267D01*
X507704Y750223D01*
X506973Y750954D01*
X506017Y751350D01*
D02*
G37*
G36*
X297267Y750850D02*
X296233D01*
X295277Y750454D01*
X294546Y749723D01*
X294150Y748767D01*
Y747733D01*
X294546Y746777D01*
X295277Y746046D01*
X296233Y745650D01*
X297267D01*
X298223Y746046D01*
X298954Y746777D01*
X299350Y747733D01*
Y748767D01*
X298954Y749723D01*
X298223Y750454D01*
X297267Y750850D01*
D02*
G37*
G36*
X100517Y750100D02*
X99483D01*
X98527Y749704D01*
X97796Y748973D01*
X97400Y748017D01*
Y746983D01*
X97796Y746027D01*
X98527Y745296D01*
X99483Y744900D01*
X100517D01*
X101473Y745296D01*
X102204Y746027D01*
X102600Y746983D01*
Y748017D01*
X102204Y748973D01*
X101473Y749704D01*
X100517Y750100D01*
D02*
G37*
G36*
X297517Y733100D02*
X296483D01*
X295527Y732704D01*
X294796Y731973D01*
X294400Y731017D01*
Y729983D01*
X294796Y729027D01*
X295527Y728296D01*
X296483Y727900D01*
X297517D01*
X298473Y728296D01*
X299204Y729027D01*
X299600Y729983D01*
Y731017D01*
X299204Y731973D01*
X298473Y732704D01*
X297517Y733100D01*
D02*
G37*
G36*
X506017Y732850D02*
X504983D01*
X504027Y732454D01*
X503296Y731723D01*
X502900Y730767D01*
Y729733D01*
X503296Y728777D01*
X504027Y728046D01*
X504983Y727650D01*
X506017D01*
X506973Y728046D01*
X507704Y728777D01*
X508100Y729733D01*
Y730767D01*
X507704Y731723D01*
X506973Y732454D01*
X506017Y732850D01*
D02*
G37*
G36*
X100017Y731100D02*
X98983D01*
X98027Y730704D01*
X97296Y729973D01*
X96900Y729017D01*
Y727983D01*
X97296Y727027D01*
X98027Y726296D01*
X98983Y725900D01*
X100017D01*
X100973Y726296D01*
X101704Y727027D01*
X102100Y727983D01*
Y729017D01*
X101704Y729973D01*
X100973Y730704D01*
X100017Y731100D01*
D02*
G37*
G36*
X130017Y710850D02*
X128983D01*
X128027Y710454D01*
X127296Y709723D01*
X126900Y708767D01*
Y707733D01*
X127296Y706777D01*
X128027Y706046D01*
X128983Y705650D01*
X130017D01*
X130973Y706046D01*
X131704Y706777D01*
X132100Y707733D01*
Y708767D01*
X131704Y709723D01*
X130973Y710454D01*
X130017Y710850D01*
D02*
G37*
G36*
X328015Y710682D02*
X326981D01*
X326025Y710287D01*
X325294Y709555D01*
X324898Y708600D01*
Y707565D01*
X325294Y706610D01*
X326025Y705878D01*
X326981Y705482D01*
X328015D01*
X328971Y705878D01*
X329702Y706610D01*
X330098Y707565D01*
Y708600D01*
X329702Y709555D01*
X328971Y710287D01*
X328015Y710682D01*
D02*
G37*
G36*
X535767Y710100D02*
X534733D01*
X533777Y709704D01*
X533046Y708973D01*
X532650Y708017D01*
Y706983D01*
X533046Y706027D01*
X533777Y705296D01*
X534733Y704900D01*
X535767D01*
X536723Y705296D01*
X537454Y706027D01*
X537850Y706983D01*
Y708017D01*
X537454Y708973D01*
X536723Y709704D01*
X535767Y710100D01*
D02*
G37*
G36*
X347267Y692850D02*
X346233D01*
X345277Y692454D01*
X344546Y691723D01*
X344150Y690767D01*
Y689733D01*
X344546Y688777D01*
X345277Y688046D01*
X346233Y687650D01*
X347267D01*
X348223Y688046D01*
X348954Y688777D01*
X349350Y689733D01*
Y690767D01*
X348954Y691723D01*
X348223Y692454D01*
X347267Y692850D01*
D02*
G37*
G36*
X754887Y671850D02*
X753853D01*
X752897Y671454D01*
X752166Y670723D01*
X751770Y669767D01*
Y668733D01*
X752166Y667777D01*
X752897Y667046D01*
X753853Y666650D01*
X754887D01*
X755843Y667046D01*
X756574Y667777D01*
X756970Y668733D01*
Y669767D01*
X756574Y670723D01*
X755843Y671454D01*
X754887Y671850D01*
D02*
G37*
G36*
X754017Y661350D02*
X752983D01*
X752027Y660954D01*
X751296Y660223D01*
X750900Y659267D01*
Y658233D01*
X751296Y657277D01*
X752027Y656546D01*
X752983Y656150D01*
X754017D01*
X754973Y656546D01*
X755704Y657277D01*
X756100Y658233D01*
Y659267D01*
X755704Y660223D01*
X754973Y660954D01*
X754017Y661350D01*
D02*
G37*
G36*
X769517Y649750D02*
X768483D01*
X767527Y649354D01*
X766796Y648623D01*
X766400Y647667D01*
Y646633D01*
X766796Y645677D01*
X767527Y644946D01*
X768483Y644550D01*
X769517D01*
X770473Y644946D01*
X771204Y645677D01*
X771600Y646633D01*
Y647667D01*
X771204Y648623D01*
X770473Y649354D01*
X769517Y649750D01*
D02*
G37*
G36*
X754517Y639100D02*
X753483D01*
X752527Y638704D01*
X751796Y637973D01*
X751400Y637017D01*
Y635983D01*
X751796Y635027D01*
X752527Y634296D01*
X753483Y633900D01*
X754517D01*
X755473Y634296D01*
X756204Y635027D01*
X756600Y635983D01*
Y637017D01*
X756204Y637973D01*
X755473Y638704D01*
X754517Y639100D01*
D02*
G37*
G36*
X771020Y630429D02*
Y626770D01*
X774679D01*
X774023Y628355D01*
X772605Y629773D01*
X771020Y630429D01*
D02*
G37*
G36*
X768480D02*
X766895Y629773D01*
X765477Y628355D01*
X764821Y626770D01*
X768480D01*
Y630429D01*
D02*
G37*
G36*
X774679Y624230D02*
X771020D01*
Y620571D01*
X772605Y621227D01*
X774023Y622645D01*
X774679Y624230D01*
D02*
G37*
G36*
X768480D02*
X764821D01*
X765477Y622645D01*
X766895Y621227D01*
X768480Y620571D01*
Y624230D01*
D02*
G37*
G36*
X755017Y616850D02*
X753983D01*
X753027Y616454D01*
X752296Y615723D01*
X751900Y614767D01*
Y613733D01*
X752296Y612777D01*
X753027Y612046D01*
X753983Y611650D01*
X755017D01*
X755973Y612046D01*
X756704Y612777D01*
X757100Y613733D01*
Y614767D01*
X756704Y615723D01*
X755973Y616454D01*
X755017Y616850D01*
D02*
G37*
G36*
X557517Y554350D02*
X556483D01*
X555527Y553954D01*
X554796Y553223D01*
X554400Y552267D01*
Y551233D01*
X554796Y550277D01*
X555527Y549546D01*
X556483Y549150D01*
X557517D01*
X558473Y549546D01*
X559204Y550277D01*
X559600Y551233D01*
Y552267D01*
X559204Y553223D01*
X558473Y553954D01*
X557517Y554350D01*
D02*
G37*
G36*
X581767Y539100D02*
X580733D01*
X579777Y538704D01*
X579046Y537973D01*
X578650Y537017D01*
Y535983D01*
X579046Y535027D01*
X579777Y534296D01*
X580733Y533900D01*
X581767D01*
X582723Y534296D01*
X583454Y535027D01*
X583850Y535983D01*
Y537017D01*
X583454Y537973D01*
X582723Y538704D01*
X581767Y539100D01*
D02*
G37*
G36*
X619767Y528100D02*
X618733D01*
X617777Y527704D01*
X617046Y526973D01*
X616650Y526017D01*
Y524983D01*
X617046Y524027D01*
X617777Y523296D01*
X618733Y522900D01*
X619767D01*
X620723Y523296D01*
X621454Y524027D01*
X621850Y524983D01*
Y526017D01*
X621454Y526973D01*
X620723Y527704D01*
X619767Y528100D01*
D02*
G37*
G36*
X557517Y523100D02*
X556483D01*
X555527Y522704D01*
X554796Y521973D01*
X554400Y521017D01*
Y519983D01*
X554796Y519027D01*
X555527Y518296D01*
X556483Y517900D01*
X557517D01*
X558473Y518296D01*
X559204Y519027D01*
X559600Y519983D01*
Y521017D01*
X559204Y521973D01*
X558473Y522704D01*
X557517Y523100D01*
D02*
G37*
G36*
X615017Y520850D02*
X613983D01*
X613027Y520454D01*
X612296Y519723D01*
X611900Y518767D01*
Y517733D01*
X612296Y516777D01*
X613027Y516046D01*
X613983Y515650D01*
X615017D01*
X615973Y516046D01*
X616704Y516777D01*
X617100Y517733D01*
Y518767D01*
X616704Y519723D01*
X615973Y520454D01*
X615017Y520850D01*
D02*
G37*
G36*
X565017Y516600D02*
X563983D01*
X563027Y516204D01*
X562296Y515473D01*
X561900Y514517D01*
Y513483D01*
X562296Y512527D01*
X563027Y511796D01*
X563983Y511400D01*
X565017D01*
X565973Y511796D01*
X566704Y512527D01*
X567100Y513483D01*
Y514517D01*
X566704Y515473D01*
X565973Y516204D01*
X565017Y516600D01*
D02*
G37*
G36*
X565267Y505850D02*
X564233D01*
X563277Y505454D01*
X562546Y504723D01*
X562150Y503767D01*
Y502733D01*
X562546Y501777D01*
X563277Y501046D01*
X564233Y500650D01*
X565267D01*
X566223Y501046D01*
X566954Y501777D01*
X567350Y502733D01*
Y503767D01*
X566954Y504723D01*
X566223Y505454D01*
X565267Y505850D01*
D02*
G37*
G36*
X631767Y500850D02*
X630733D01*
X629777Y500454D01*
X629046Y499723D01*
X628650Y498767D01*
Y497733D01*
X629046Y496777D01*
X629777Y496046D01*
X630733Y495650D01*
X631767D01*
X632723Y496046D01*
X633454Y496777D01*
X633850Y497733D01*
Y498767D01*
X633454Y499723D01*
X632723Y500454D01*
X631767Y500850D01*
D02*
G37*
G36*
X602517Y498850D02*
X601483D01*
X600527Y498454D01*
X599796Y497723D01*
X599400Y496767D01*
Y495733D01*
X599796Y494777D01*
X600527Y494046D01*
X601483Y493650D01*
X602517D01*
X603473Y494046D01*
X604204Y494777D01*
X604600Y495733D01*
Y496767D01*
X604204Y497723D01*
X603473Y498454D01*
X602517Y498850D01*
D02*
G37*
G36*
X507267Y497100D02*
X506233D01*
X505277Y496704D01*
X504546Y495973D01*
X504150Y495017D01*
Y493983D01*
X504546Y493027D01*
X505277Y492296D01*
X506233Y491900D01*
X507267D01*
X508223Y492296D01*
X508954Y493027D01*
X509350Y493983D01*
Y495017D01*
X508954Y495973D01*
X508223Y496704D01*
X507267Y497100D01*
D02*
G37*
G36*
X578517Y484600D02*
X577483D01*
X576527Y484204D01*
X575796Y483473D01*
X575400Y482517D01*
Y481483D01*
X575796Y480527D01*
X576527Y479796D01*
X577483Y479400D01*
X578517D01*
X579473Y479796D01*
X580204Y480527D01*
X580600Y481483D01*
Y482517D01*
X580204Y483473D01*
X579473Y484204D01*
X578517Y484600D01*
D02*
G37*
G36*
X645267Y482850D02*
X644233D01*
X643277Y482454D01*
X642546Y481723D01*
X642150Y480767D01*
Y479733D01*
X642546Y478777D01*
X643277Y478046D01*
X644233Y477650D01*
X645267D01*
X646223Y478046D01*
X646954Y478777D01*
X647350Y479733D01*
Y480767D01*
X646954Y481723D01*
X646223Y482454D01*
X645267Y482850D01*
D02*
G37*
G36*
X599517Y481600D02*
X598483D01*
X597527Y481204D01*
X596796Y480473D01*
X596400Y479517D01*
Y478483D01*
X596796Y477527D01*
X597527Y476796D01*
X597631Y476753D01*
X597378Y475483D01*
X577000D01*
X577000Y475483D01*
X575951Y475049D01*
X529386Y428483D01*
X497194D01*
X496473Y429204D01*
X495517Y429600D01*
X494483D01*
X493527Y429204D01*
X492796Y428473D01*
X492400Y427517D01*
Y426483D01*
X492796Y425527D01*
X493527Y424796D01*
X494483Y424400D01*
X495517D01*
X496473Y424796D01*
X497194Y425517D01*
X530000D01*
X530000Y425517D01*
X531049Y425951D01*
X577614Y472517D01*
X629306D01*
X630027Y471796D01*
X630983Y471400D01*
X632017D01*
X632973Y471796D01*
X633704Y472527D01*
X634100Y473483D01*
Y474517D01*
X633704Y475473D01*
X632973Y476204D01*
X632017Y476600D01*
X630983D01*
X630027Y476204D01*
X629306Y475483D01*
X600622D01*
X600369Y476753D01*
X600473Y476796D01*
X601204Y477527D01*
X601600Y478483D01*
Y479517D01*
X601204Y480473D01*
X600473Y481204D01*
X599517Y481600D01*
D02*
G37*
G36*
X651017Y478100D02*
X649983D01*
X649027Y477704D01*
X648296Y476973D01*
X647900Y476017D01*
Y474983D01*
X648296Y474027D01*
X649027Y473296D01*
X649983Y472900D01*
X651017D01*
X651973Y473296D01*
X652704Y474027D01*
X653100Y474983D01*
Y476017D01*
X652704Y476973D01*
X651973Y477704D01*
X651017Y478100D01*
D02*
G37*
G36*
X678267Y472850D02*
X677233D01*
X676277Y472454D01*
X675546Y471723D01*
X675150Y470767D01*
Y469733D01*
X675546Y468777D01*
X676277Y468046D01*
X677233Y467650D01*
X678267D01*
X679223Y468046D01*
X679954Y468777D01*
X680350Y469733D01*
Y470767D01*
X679954Y471723D01*
X679223Y472454D01*
X678267Y472850D01*
D02*
G37*
G36*
X668267D02*
X667233D01*
X666277Y472454D01*
X665546Y471723D01*
X665150Y470767D01*
Y469733D01*
X665546Y468777D01*
X666277Y468046D01*
X667233Y467650D01*
X668267D01*
X669223Y468046D01*
X669954Y468777D01*
X670350Y469733D01*
Y470767D01*
X669954Y471723D01*
X669223Y472454D01*
X668267Y472850D01*
D02*
G37*
G36*
X493767D02*
X492733D01*
X491777Y472454D01*
X491046Y471723D01*
X490650Y470767D01*
Y469733D01*
X491046Y468777D01*
X491777Y468046D01*
X492733Y467650D01*
X493767D01*
X494723Y468046D01*
X495454Y468777D01*
X495850Y469733D01*
Y470767D01*
X495454Y471723D01*
X494723Y472454D01*
X493767Y472850D01*
D02*
G37*
G36*
X328017Y468600D02*
X326983D01*
X326027Y468204D01*
X325296Y467473D01*
X324900Y466517D01*
Y465483D01*
X325296Y464527D01*
X326027Y463796D01*
X326983Y463400D01*
X328017D01*
X328973Y463796D01*
X329704Y464527D01*
X330100Y465483D01*
Y466517D01*
X329704Y467473D01*
X328973Y468204D01*
X328017Y468600D01*
D02*
G37*
G36*
X587517Y467100D02*
X586483D01*
X585527Y466704D01*
X584796Y465973D01*
X584400Y465017D01*
Y463983D01*
X584796Y463027D01*
X585527Y462296D01*
X586483Y461900D01*
X587517D01*
X588473Y462296D01*
X589204Y463027D01*
X589600Y463983D01*
Y465017D01*
X589204Y465973D01*
X588473Y466704D01*
X587517Y467100D01*
D02*
G37*
G36*
X317267Y466600D02*
X316233D01*
X315277Y466204D01*
X314546Y465473D01*
X314150Y464517D01*
Y463483D01*
X314546Y462527D01*
X315277Y461796D01*
X316233Y461400D01*
X317267D01*
X318223Y461796D01*
X318954Y462527D01*
X319350Y463483D01*
Y464517D01*
X318954Y465473D01*
X318223Y466204D01*
X317267Y466600D01*
D02*
G37*
G36*
X558267Y465350D02*
X557233D01*
X556277Y464954D01*
X555546Y464223D01*
X555150Y463267D01*
Y462233D01*
X555546Y461277D01*
X556277Y460546D01*
X557233Y460150D01*
X558267D01*
X559223Y460546D01*
X559954Y461277D01*
X560350Y462233D01*
Y463267D01*
X559954Y464223D01*
X559223Y464954D01*
X558267Y465350D01*
D02*
G37*
G36*
X688767Y463600D02*
X687733D01*
X686777Y463204D01*
X686046Y462473D01*
X685650Y461517D01*
Y460483D01*
X686046Y459527D01*
X686777Y458796D01*
X687733Y458400D01*
X688767D01*
X689723Y458796D01*
X690454Y459527D01*
X690850Y460483D01*
Y461517D01*
X690454Y462473D01*
X689723Y463204D01*
X688767Y463600D01*
D02*
G37*
G36*
X508017Y460350D02*
X506983D01*
X506027Y459954D01*
X505296Y459223D01*
X504900Y458267D01*
Y457233D01*
X505296Y456277D01*
X506027Y455546D01*
X506983Y455150D01*
X508017D01*
X508973Y455546D01*
X509704Y456277D01*
X510100Y457233D01*
Y458267D01*
X509704Y459223D01*
X508973Y459954D01*
X508017Y460350D01*
D02*
G37*
G36*
X576267Y455100D02*
X575233D01*
X574277Y454704D01*
X573546Y453973D01*
X573150Y453017D01*
Y451983D01*
X573546Y451027D01*
X574277Y450296D01*
X575233Y449900D01*
X576267D01*
X577223Y450296D01*
X577954Y451027D01*
X578350Y451983D01*
Y453017D01*
X577954Y453973D01*
X577223Y454704D01*
X576267Y455100D01*
D02*
G37*
G36*
X640020Y451929D02*
Y448270D01*
X643679D01*
X643023Y449855D01*
X641605Y451273D01*
X640020Y451929D01*
D02*
G37*
G36*
X637480D02*
X635895Y451273D01*
X634477Y449855D01*
X633821Y448270D01*
X637480D01*
Y451929D01*
D02*
G37*
G36*
X605520Y450679D02*
Y447020D01*
X609179D01*
X608523Y448605D01*
X607105Y450023D01*
X605520Y450679D01*
D02*
G37*
G36*
X602980D02*
X601395Y450023D01*
X599977Y448605D01*
X599321Y447020D01*
X602980D01*
Y450679D01*
D02*
G37*
G36*
X537517Y450350D02*
X536483D01*
X535527Y449954D01*
X534796Y449223D01*
X534400Y448267D01*
Y447233D01*
X534796Y446277D01*
X535527Y445546D01*
X536483Y445150D01*
X537517D01*
X538473Y445546D01*
X539204Y446277D01*
X539600Y447233D01*
Y448267D01*
X539204Y449223D01*
X538473Y449954D01*
X537517Y450350D01*
D02*
G37*
G36*
X643679Y445730D02*
X640020D01*
Y442071D01*
X641605Y442727D01*
X643023Y444145D01*
X643679Y445730D01*
D02*
G37*
G36*
X637480D02*
X633821D01*
X634477Y444145D01*
X635895Y442727D01*
X637480Y442071D01*
Y445730D01*
D02*
G37*
G36*
X609179Y444480D02*
X605520D01*
Y440821D01*
X607105Y441477D01*
X608523Y442895D01*
X609179Y444480D01*
D02*
G37*
G36*
X602980D02*
X599321D01*
X599977Y442895D01*
X601395Y441477D01*
X602980Y440821D01*
Y444480D01*
D02*
G37*
G36*
X519517Y439850D02*
X518483D01*
X517527Y439454D01*
X516796Y438723D01*
X516400Y437767D01*
Y436733D01*
X516796Y435777D01*
X517527Y435046D01*
X518483Y434650D01*
X519517D01*
X520473Y435046D01*
X521204Y435777D01*
X521600Y436733D01*
Y437767D01*
X521204Y438723D01*
X520473Y439454D01*
X519517Y439850D01*
D02*
G37*
G36*
X622770Y435179D02*
Y431520D01*
X626429D01*
X625773Y433105D01*
X624355Y434523D01*
X622770Y435179D01*
D02*
G37*
G36*
X620230D02*
X618645Y434523D01*
X617227Y433105D01*
X616571Y431520D01*
X620230D01*
Y435179D01*
D02*
G37*
G36*
X626429Y428980D02*
X622770D01*
Y425321D01*
X624355Y425977D01*
X625773Y427395D01*
X626429Y428980D01*
D02*
G37*
G36*
X620230D02*
X616571D01*
X617227Y427395D01*
X618645Y425977D01*
X620230Y425321D01*
Y428980D01*
D02*
G37*
G36*
X606770Y419429D02*
Y415770D01*
X610429D01*
X609773Y417355D01*
X608355Y418773D01*
X606770Y419429D01*
D02*
G37*
G36*
X604230D02*
X602645Y418773D01*
X601227Y417355D01*
X600571Y415770D01*
X604230D01*
Y419429D01*
D02*
G37*
G36*
X685017Y420600D02*
X683983D01*
X683027Y420204D01*
X682296Y419473D01*
X681900Y418517D01*
Y417483D01*
X682296Y416527D01*
X683027Y415796D01*
X683983Y415400D01*
X685017D01*
X685973Y415796D01*
X686704Y416527D01*
X687100Y417483D01*
Y418517D01*
X686704Y419473D01*
X685973Y420204D01*
X685017Y420600D01*
D02*
G37*
G36*
X347267Y419850D02*
X346233D01*
X345277Y419454D01*
X344546Y418723D01*
X344150Y417767D01*
Y416733D01*
X344546Y415777D01*
X345277Y415046D01*
X346233Y414650D01*
X347267D01*
X348223Y415046D01*
X348954Y415777D01*
X349350Y416733D01*
Y417767D01*
X348954Y418723D01*
X348223Y419454D01*
X347267Y419850D01*
D02*
G37*
G36*
X641270Y416929D02*
Y413270D01*
X644929D01*
X644273Y414855D01*
X642855Y416273D01*
X641270Y416929D01*
D02*
G37*
G36*
X638730D02*
X637145Y416273D01*
X635727Y414855D01*
X635071Y413270D01*
X638730D01*
Y416929D01*
D02*
G37*
G36*
X559017Y418100D02*
X557983D01*
X557027Y417704D01*
X556296Y416973D01*
X555900Y416017D01*
Y414983D01*
X556296Y414027D01*
X557027Y413296D01*
X557983Y412900D01*
X559017D01*
X559973Y413296D01*
X560704Y414027D01*
X561100Y414983D01*
Y416017D01*
X560704Y416973D01*
X559973Y417704D01*
X559017Y418100D01*
D02*
G37*
G36*
X610429Y413230D02*
X606770D01*
Y409571D01*
X608355Y410227D01*
X609773Y411645D01*
X610429Y413230D01*
D02*
G37*
G36*
X604230D02*
X600571D01*
X601227Y411645D01*
X602645Y410227D01*
X604230Y409571D01*
Y413230D01*
D02*
G37*
G36*
X694517Y413600D02*
X693483D01*
X692527Y413204D01*
X691796Y412473D01*
X691400Y411517D01*
Y410483D01*
X691796Y409527D01*
X692527Y408796D01*
X693483Y408400D01*
X694517D01*
X695473Y408796D01*
X696204Y409527D01*
X696600Y410483D01*
Y411517D01*
X696204Y412473D01*
X695473Y413204D01*
X694517Y413600D01*
D02*
G37*
G36*
X732517Y412850D02*
X731483D01*
X730527Y412454D01*
X729796Y411723D01*
X729400Y410767D01*
Y409733D01*
X729796Y408777D01*
X730527Y408046D01*
X731483Y407650D01*
X732517D01*
X733473Y408046D01*
X734204Y408777D01*
X734600Y409733D01*
Y410767D01*
X734204Y411723D01*
X733473Y412454D01*
X732517Y412850D01*
D02*
G37*
G36*
X644929Y410730D02*
X641270D01*
Y407071D01*
X642855Y407727D01*
X644273Y409145D01*
X644929Y410730D01*
D02*
G37*
G36*
X638730D02*
X635071D01*
X635727Y409145D01*
X637145Y407727D01*
X638730Y407071D01*
Y410730D01*
D02*
G37*
G36*
X637906Y480961D02*
X636871D01*
X635916Y480566D01*
X635184Y479834D01*
X634789Y478879D01*
Y477844D01*
X635184Y476889D01*
X635906Y476167D01*
Y463780D01*
X576870Y404744D01*
X576485Y404751D01*
X575453Y405123D01*
X575204Y405723D01*
X574473Y406454D01*
X573517Y406850D01*
X572483D01*
X571527Y406454D01*
X570796Y405723D01*
X570400Y404767D01*
Y403733D01*
X570796Y402777D01*
X571527Y402046D01*
X572127Y401797D01*
X572499Y400765D01*
X572506Y400380D01*
X547109Y374983D01*
X496194D01*
X495473Y375704D01*
X494517Y376100D01*
X493483D01*
X492527Y375704D01*
X491796Y374973D01*
X491400Y374017D01*
Y372983D01*
X491796Y372027D01*
X492527Y371296D01*
X493483Y370900D01*
X494517D01*
X495473Y371296D01*
X496194Y372017D01*
X547723D01*
X547723Y372017D01*
X548772Y372451D01*
X638437Y462117D01*
X638437Y462117D01*
X638871Y463166D01*
Y476167D01*
X639593Y476889D01*
X639989Y477844D01*
Y478879D01*
X639593Y479834D01*
X638861Y480566D01*
X637906Y480961D01*
D02*
G37*
G36*
X710017Y406600D02*
X708983D01*
X708027Y406204D01*
X707296Y405473D01*
X706900Y404517D01*
Y403483D01*
X707296Y402527D01*
X708027Y401796D01*
X708983Y401400D01*
X710017D01*
X710973Y401796D01*
X711704Y402527D01*
X712100Y403483D01*
Y404517D01*
X711704Y405473D01*
X710973Y406204D01*
X710017Y406600D01*
D02*
G37*
G36*
X685517Y406350D02*
X684483D01*
X683527Y405954D01*
X682796Y405223D01*
X682400Y404267D01*
Y403233D01*
X682796Y402277D01*
X683527Y401546D01*
X684483Y401150D01*
X685517D01*
X686473Y401546D01*
X687204Y402277D01*
X687600Y403233D01*
Y404267D01*
X687204Y405223D01*
X686473Y405954D01*
X685517Y406350D01*
D02*
G37*
G36*
X328517Y400850D02*
X327483D01*
X326527Y400454D01*
X325796Y399723D01*
X325400Y398767D01*
Y397733D01*
X325796Y396777D01*
X326527Y396046D01*
X327483Y395650D01*
X328517D01*
X329473Y396046D01*
X330204Y396777D01*
X330600Y397733D01*
Y398767D01*
X330204Y399723D01*
X329473Y400454D01*
X328517Y400850D01*
D02*
G37*
G36*
X317267D02*
X316233D01*
X315277Y400454D01*
X314546Y399723D01*
X314150Y398767D01*
Y397733D01*
X314546Y396777D01*
X315277Y396046D01*
X316233Y395650D01*
X317267D01*
X318223Y396046D01*
X318954Y396777D01*
X319350Y397733D01*
Y398767D01*
X318954Y399723D01*
X318223Y400454D01*
X317267Y400850D01*
D02*
G37*
G36*
X586767Y399100D02*
X585733D01*
X584777Y398704D01*
X584046Y397973D01*
X583650Y397017D01*
Y395983D01*
X584046Y395027D01*
X584777Y394296D01*
X585733Y393900D01*
X586767D01*
X587723Y394296D01*
X588454Y395027D01*
X588850Y395983D01*
Y397017D01*
X588454Y397973D01*
X587723Y398704D01*
X586767Y399100D01*
D02*
G37*
G36*
X675017Y394100D02*
X673983D01*
X673027Y393704D01*
X672296Y392973D01*
X671900Y392017D01*
Y390983D01*
X672296Y390027D01*
X673027Y389296D01*
X673983Y388900D01*
X675017D01*
X675973Y389296D01*
X676704Y390027D01*
X677100Y390983D01*
Y392017D01*
X676704Y392973D01*
X675973Y393704D01*
X675017Y394100D01*
D02*
G37*
G36*
X546267Y393100D02*
X545233D01*
X544277Y392704D01*
X543546Y391973D01*
X543150Y391017D01*
Y389983D01*
X543546Y389027D01*
X544277Y388296D01*
X545233Y387900D01*
X546267D01*
X547223Y388296D01*
X547954Y389027D01*
X548350Y389983D01*
Y391017D01*
X547954Y391973D01*
X547223Y392704D01*
X546267Y393100D01*
D02*
G37*
G36*
X554267Y392850D02*
X553233D01*
X552277Y392454D01*
X551546Y391723D01*
X551150Y390767D01*
Y389733D01*
X551546Y388777D01*
X552277Y388046D01*
X553233Y387650D01*
X554267D01*
X555223Y388046D01*
X555954Y388777D01*
X556350Y389733D01*
Y390767D01*
X555954Y391723D01*
X555223Y392454D01*
X554267Y392850D01*
D02*
G37*
G36*
X619517Y388350D02*
X618483D01*
X617527Y387954D01*
X616796Y387223D01*
X616400Y386267D01*
Y385233D01*
X616796Y384277D01*
X617527Y383546D01*
X618483Y383150D01*
X619517D01*
X620473Y383546D01*
X621204Y384277D01*
X621600Y385233D01*
Y386267D01*
X621204Y387223D01*
X620473Y387954D01*
X619517Y388350D01*
D02*
G37*
G36*
X114402Y407120D02*
X110698D01*
X107119Y406161D01*
X103911Y404309D01*
X101291Y401689D01*
X99439Y398481D01*
X98480Y394902D01*
Y391198D01*
X99439Y387619D01*
X101291Y384411D01*
X103911Y381791D01*
X107119Y379939D01*
X110698Y378980D01*
X114402D01*
X117981Y379939D01*
X121189Y381791D01*
X123809Y384411D01*
X125661Y387619D01*
X126620Y391198D01*
Y394902D01*
X125661Y398481D01*
X123809Y401689D01*
X121189Y404309D01*
X117981Y406161D01*
X114402Y407120D01*
D02*
G37*
G36*
X624017Y381350D02*
X622983D01*
X622027Y380954D01*
X621296Y380223D01*
X620900Y379267D01*
Y378233D01*
X621296Y377277D01*
X622027Y376546D01*
X622983Y376150D01*
X624017D01*
X624973Y376546D01*
X625704Y377277D01*
X626100Y378233D01*
Y379267D01*
X625704Y380223D01*
X624973Y380954D01*
X624017Y381350D01*
D02*
G37*
G36*
X630267Y385350D02*
X629233D01*
X628277Y384954D01*
X627546Y384223D01*
X627150Y383267D01*
Y382233D01*
X627546Y381277D01*
X628277Y380546D01*
X628738Y380355D01*
Y378529D01*
X628738Y378529D01*
X629172Y377481D01*
X632432Y374220D01*
X633481Y373786D01*
X633481Y373786D01*
X714806D01*
X715527Y373065D01*
X716483Y372669D01*
X717517D01*
X718473Y373065D01*
X719204Y373796D01*
X719600Y374752D01*
Y375786D01*
X719204Y376742D01*
X718473Y377473D01*
X717517Y377869D01*
X716483D01*
X715527Y377473D01*
X714806Y376752D01*
X634095D01*
X631704Y379144D01*
Y381027D01*
X631954Y381277D01*
X632350Y382233D01*
Y383267D01*
X631954Y384223D01*
X631223Y384954D01*
X630267Y385350D01*
D02*
G37*
G36*
X639017Y367600D02*
X637983D01*
X637027Y367204D01*
X636296Y366473D01*
X635900Y365517D01*
Y364483D01*
X636296Y363527D01*
X637027Y362796D01*
X637983Y362400D01*
X639017D01*
X639973Y362796D01*
X640704Y363527D01*
X641100Y364483D01*
Y365517D01*
X640704Y366473D01*
X639973Y367204D01*
X639017Y367600D01*
D02*
G37*
G36*
X494517Y365100D02*
X493483D01*
X492527Y364704D01*
X491796Y363973D01*
X491400Y363017D01*
Y361983D01*
X491796Y361027D01*
X492527Y360296D01*
X493483Y359900D01*
X494517D01*
X495473Y360296D01*
X496204Y361027D01*
X496600Y361983D01*
Y363017D01*
X496204Y363973D01*
X495473Y364704D01*
X494517Y365100D01*
D02*
G37*
G36*
X322767Y363600D02*
X321733D01*
X320777Y363204D01*
X320046Y362473D01*
X319650Y361517D01*
Y360483D01*
X320046Y359527D01*
X320777Y358796D01*
X321733Y358400D01*
X322767D01*
X323723Y358796D01*
X324454Y359527D01*
X324850Y360483D01*
Y361517D01*
X324454Y362473D01*
X323723Y363204D01*
X322767Y363600D01*
D02*
G37*
G36*
X334517Y363350D02*
X333483D01*
X332527Y362954D01*
X331796Y362223D01*
X331400Y361267D01*
Y360233D01*
X331796Y359277D01*
X332527Y358546D01*
X333483Y358150D01*
X334517D01*
X335473Y358546D01*
X336204Y359277D01*
X336600Y360233D01*
Y361267D01*
X336204Y362223D01*
X335473Y362954D01*
X334517Y363350D01*
D02*
G37*
G36*
X368517Y354600D02*
X367483D01*
X366527Y354204D01*
X365796Y353473D01*
X365400Y352517D01*
Y351483D01*
X365796Y350527D01*
X366527Y349796D01*
X367483Y349400D01*
X368517D01*
X369473Y349796D01*
X370204Y350527D01*
X370600Y351483D01*
Y352517D01*
X370204Y353473D01*
X369473Y354204D01*
X368517Y354600D01*
D02*
G37*
G36*
X151988Y356860D02*
X151920D01*
Y347970D01*
X160810D01*
Y348038D01*
X160118Y350622D01*
X158780Y352938D01*
X156888Y354830D01*
X154572Y356168D01*
X151988Y356860D01*
D02*
G37*
G36*
X149380D02*
X149312D01*
X146728Y356168D01*
X144412Y354830D01*
X142520Y352938D01*
X141182Y350622D01*
X140490Y348038D01*
Y347970D01*
X149380D01*
Y356860D01*
D02*
G37*
G36*
X518767Y349350D02*
X517733D01*
X516777Y348954D01*
X516046Y348223D01*
X515650Y347267D01*
Y346233D01*
X516046Y345277D01*
X516777Y344546D01*
X517733Y344150D01*
X518767D01*
X519723Y344546D01*
X520454Y345277D01*
X520850Y346233D01*
Y347267D01*
X520454Y348223D01*
X519723Y348954D01*
X518767Y349350D01*
D02*
G37*
G36*
X494767Y340850D02*
X493733D01*
X492777Y340454D01*
X492046Y339723D01*
X491650Y338767D01*
Y337733D01*
X492046Y336777D01*
X492777Y336046D01*
X493733Y335650D01*
X494767D01*
X495723Y336046D01*
X496454Y336777D01*
X496850Y337733D01*
Y338767D01*
X496454Y339723D01*
X495723Y340454D01*
X494767Y340850D01*
D02*
G37*
G36*
X667517Y332350D02*
X666483D01*
X665527Y331954D01*
X664796Y331223D01*
X664400Y330267D01*
Y329233D01*
X664796Y328277D01*
X665527Y327546D01*
X666483Y327150D01*
X667517D01*
X668473Y327546D01*
X669204Y328277D01*
X669600Y329233D01*
Y330267D01*
X669204Y331223D01*
X668473Y331954D01*
X667517Y332350D01*
D02*
G37*
G36*
X561267Y331100D02*
X560233D01*
X559277Y330704D01*
X558546Y329973D01*
X558150Y329017D01*
Y327983D01*
X558546Y327027D01*
X559277Y326296D01*
X560233Y325900D01*
X561267D01*
X562223Y326296D01*
X562954Y327027D01*
X563350Y327983D01*
Y329017D01*
X562954Y329973D01*
X562223Y330704D01*
X561267Y331100D01*
D02*
G37*
G36*
X126266Y348070D02*
X124234D01*
X122270Y347544D01*
X120510Y346527D01*
X119073Y345090D01*
X118056Y343330D01*
X117530Y341366D01*
Y339334D01*
X118056Y337370D01*
X119073Y335610D01*
X119823Y334860D01*
X120395Y334000D01*
X119823Y333140D01*
X119073Y332390D01*
X118056Y330630D01*
X117530Y328666D01*
Y326634D01*
X118056Y324670D01*
X119073Y322910D01*
X119823Y322160D01*
X120395Y321300D01*
X119823Y320440D01*
X119073Y319690D01*
X118056Y317930D01*
X117530Y315966D01*
Y313934D01*
X118056Y311970D01*
X119073Y310210D01*
X119823Y309459D01*
X120395Y308600D01*
X119823Y307740D01*
X119073Y306990D01*
X118056Y305230D01*
X117530Y303266D01*
Y301234D01*
X118056Y299270D01*
X119073Y297510D01*
X120510Y296073D01*
X122270Y295056D01*
X124234Y294530D01*
X126266D01*
X128230Y295056D01*
X129990Y296073D01*
X131427Y297510D01*
X132444Y299270D01*
X132970Y301234D01*
Y303266D01*
X132444Y305230D01*
X131427Y306990D01*
X130677Y307740D01*
X130105Y308600D01*
X130677Y309459D01*
X131427Y310210D01*
X132444Y311970D01*
X132970Y313934D01*
Y315966D01*
X132444Y317930D01*
X131427Y319690D01*
X130677Y320440D01*
X130105Y321300D01*
X130677Y322160D01*
X131427Y322910D01*
X132444Y324670D01*
X132970Y326634D01*
Y328666D01*
X132444Y330630D01*
X131427Y332390D01*
X130677Y333140D01*
X130105Y334000D01*
X130677Y334860D01*
X131427Y335610D01*
X132444Y337370D01*
X132970Y339334D01*
Y341366D01*
X132444Y343330D01*
X131427Y345090D01*
X129990Y346527D01*
X128230Y347544D01*
X126266Y348070D01*
D02*
G37*
G36*
X160810Y345430D02*
X150650D01*
X140490D01*
Y345362D01*
X141182Y342778D01*
X142520Y340462D01*
X144388Y338594D01*
X143456Y336980D01*
X142930Y335016D01*
Y332984D01*
X143456Y331020D01*
X144473Y329260D01*
X145223Y328509D01*
X145795Y327650D01*
X145223Y326791D01*
X144473Y326040D01*
X143456Y324280D01*
X142930Y322316D01*
Y320284D01*
X143456Y318320D01*
X144473Y316560D01*
X145223Y315809D01*
X145795Y314950D01*
X145223Y314090D01*
X144473Y313340D01*
X143456Y311580D01*
X142930Y309616D01*
Y307584D01*
X143456Y305620D01*
X144473Y303860D01*
X145223Y303109D01*
X145795Y302250D01*
X145223Y301390D01*
X144473Y300640D01*
X143456Y298880D01*
X142930Y296916D01*
Y294884D01*
X143456Y292920D01*
X144473Y291160D01*
X145910Y289722D01*
X147670Y288706D01*
X149634Y288180D01*
X151666D01*
X153630Y288706D01*
X155390Y289722D01*
X156827Y291160D01*
X157844Y292920D01*
X158370Y294884D01*
Y296916D01*
X157844Y298880D01*
X156827Y300640D01*
X156077Y301390D01*
X155505Y302250D01*
X156077Y303109D01*
X156827Y303860D01*
X157844Y305620D01*
X158370Y307584D01*
Y309616D01*
X157844Y311580D01*
X156827Y313340D01*
X156077Y314090D01*
X155505Y314950D01*
X156077Y315809D01*
X156827Y316560D01*
X157844Y318320D01*
X158370Y320284D01*
Y322316D01*
X157844Y324280D01*
X156827Y326040D01*
X156077Y326791D01*
X155505Y327650D01*
X156077Y328509D01*
X156827Y329260D01*
X157844Y331020D01*
X158370Y332984D01*
Y335016D01*
X157844Y336980D01*
X156912Y338594D01*
X158780Y340462D01*
X160118Y342778D01*
X160810Y345362D01*
Y345430D01*
D02*
G37*
G36*
X397767Y288600D02*
X396733D01*
X395777Y288204D01*
X395046Y287473D01*
X394650Y286517D01*
Y285483D01*
X395046Y284527D01*
X395777Y283796D01*
X396733Y283400D01*
X397767D01*
X398723Y283796D01*
X399454Y284527D01*
X399850Y285483D01*
Y286517D01*
X399454Y287473D01*
X398723Y288204D01*
X397767Y288600D01*
D02*
G37*
G36*
X667267Y264350D02*
X666233D01*
X665277Y263954D01*
X664546Y263223D01*
X664150Y262267D01*
Y261233D01*
X664546Y260277D01*
X665277Y259546D01*
X666233Y259150D01*
X667267D01*
X668223Y259546D01*
X668954Y260277D01*
X669350Y261233D01*
Y262267D01*
X668954Y263223D01*
X668223Y263954D01*
X667267Y264350D01*
D02*
G37*
G36*
X540767D02*
X539733D01*
X538777Y263954D01*
X538046Y263223D01*
X537650Y262267D01*
Y261233D01*
X538046Y260277D01*
X538777Y259546D01*
X539733Y259150D01*
X540767D01*
X541723Y259546D01*
X542454Y260277D01*
X542850Y261233D01*
Y262267D01*
X542454Y263223D01*
X541723Y263954D01*
X540767Y264350D01*
D02*
G37*
G36*
X699267Y263850D02*
X698233D01*
X697277Y263454D01*
X696546Y262723D01*
X696150Y261767D01*
Y260733D01*
X696546Y259777D01*
X697277Y259046D01*
X698233Y258650D01*
X699267D01*
X700223Y259046D01*
X700954Y259777D01*
X701350Y260733D01*
Y261767D01*
X700954Y262723D01*
X700223Y263454D01*
X699267Y263850D01*
D02*
G37*
G36*
X398017Y253100D02*
X396983D01*
X396027Y252704D01*
X395296Y251973D01*
X394900Y251017D01*
Y249983D01*
X395296Y249027D01*
X396027Y248296D01*
X396983Y247900D01*
X398017D01*
X398973Y248296D01*
X399704Y249027D01*
X400100Y249983D01*
Y251017D01*
X399704Y251973D01*
X398973Y252704D01*
X398017Y253100D01*
D02*
G37*
G36*
X114402Y263620D02*
X110698D01*
X107119Y262661D01*
X103911Y260809D01*
X101291Y258189D01*
X99439Y254981D01*
X98480Y251402D01*
Y247698D01*
X99439Y244119D01*
X101291Y240911D01*
X103911Y238291D01*
X107119Y236439D01*
X110698Y235480D01*
X114402D01*
X117981Y236439D01*
X121189Y238291D01*
X123809Y240911D01*
X125661Y244119D01*
X126620Y247698D01*
Y251402D01*
X125661Y254981D01*
X123809Y258189D01*
X121189Y260809D01*
X117981Y262661D01*
X114402Y263620D01*
D02*
G37*
G36*
X720500Y245166D02*
X718516Y244904D01*
X716667Y244139D01*
X715080Y242920D01*
X713861Y241333D01*
X713096Y239484D01*
X712834Y237500D01*
Y232500D01*
X713096Y230516D01*
X713861Y228667D01*
X715080Y227080D01*
X716667Y225861D01*
X718516Y225096D01*
X720500Y224834D01*
X722484Y225096D01*
X724333Y225861D01*
X725920Y227080D01*
X727139Y228667D01*
X727904Y230516D01*
X728166Y232500D01*
Y237500D01*
X727904Y239484D01*
X727139Y241333D01*
X725920Y242920D01*
X724333Y244139D01*
X722484Y244904D01*
X720500Y245166D01*
D02*
G37*
G36*
X700500D02*
X698516Y244904D01*
X696667Y244139D01*
X695080Y242920D01*
X693861Y241333D01*
X693096Y239484D01*
X692834Y237500D01*
Y232500D01*
X693096Y230516D01*
X693861Y228667D01*
X695080Y227080D01*
X696667Y225861D01*
X698516Y225096D01*
X700500Y224834D01*
X702484Y225096D01*
X704333Y225861D01*
X705920Y227080D01*
X707139Y228667D01*
X707904Y230516D01*
X708166Y232500D01*
Y237500D01*
X707904Y239484D01*
X707139Y241333D01*
X705920Y242920D01*
X704333Y244139D01*
X702484Y244904D01*
X700500Y245166D01*
D02*
G37*
G36*
X680500D02*
X678516Y244904D01*
X676667Y244139D01*
X675080Y242920D01*
X673861Y241333D01*
X673096Y239484D01*
X672834Y237500D01*
Y232500D01*
X673096Y230516D01*
X673861Y228667D01*
X675080Y227080D01*
X676667Y225861D01*
X678516Y225096D01*
X680500Y224834D01*
X682484Y225096D01*
X684333Y225861D01*
X685920Y227080D01*
X687139Y228667D01*
X687904Y230516D01*
X688166Y232500D01*
Y237500D01*
X687904Y239484D01*
X687139Y241333D01*
X685920Y242920D01*
X684333Y244139D01*
X682484Y244904D01*
X680500Y245166D01*
D02*
G37*
G36*
X660500D02*
X658516Y244904D01*
X656667Y244139D01*
X655080Y242920D01*
X653861Y241333D01*
X653096Y239484D01*
X652834Y237500D01*
Y232500D01*
X653096Y230516D01*
X653861Y228667D01*
X655080Y227080D01*
X656667Y225861D01*
X658516Y225096D01*
X660500Y224834D01*
X662484Y225096D01*
X664333Y225861D01*
X665920Y227080D01*
X667139Y228667D01*
X667904Y230516D01*
X668166Y232500D01*
Y237500D01*
X667904Y239484D01*
X667139Y241333D01*
X665920Y242920D01*
X664333Y244139D01*
X662484Y244904D01*
X660500Y245166D01*
D02*
G37*
G36*
X640500D02*
X638516Y244904D01*
X636667Y244139D01*
X635080Y242920D01*
X633862Y241333D01*
X633096Y239484D01*
X632835Y237500D01*
Y232500D01*
X633096Y230516D01*
X633862Y228667D01*
X635080Y227080D01*
X636667Y225861D01*
X638516Y225096D01*
X640500Y224834D01*
X642484Y225096D01*
X644333Y225861D01*
X645920Y227080D01*
X647139Y228667D01*
X647904Y230516D01*
X648166Y232500D01*
Y237500D01*
X647904Y239484D01*
X647139Y241333D01*
X645920Y242920D01*
X644333Y244139D01*
X642484Y244904D01*
X640500Y245166D01*
D02*
G37*
G36*
X620500D02*
X618516Y244904D01*
X616667Y244139D01*
X615080Y242920D01*
X613862Y241333D01*
X613096Y239484D01*
X612835Y237500D01*
Y232500D01*
X613096Y230516D01*
X613862Y228667D01*
X615080Y227080D01*
X616667Y225861D01*
X618516Y225096D01*
X620500Y224834D01*
X622484Y225096D01*
X624333Y225861D01*
X625920Y227080D01*
X627139Y228667D01*
X627904Y230516D01*
X628166Y232500D01*
Y237500D01*
X627904Y239484D01*
X627139Y241333D01*
X625920Y242920D01*
X624333Y244139D01*
X622484Y244904D01*
X620500Y245166D01*
D02*
G37*
G36*
X600500D02*
X598516Y244904D01*
X596667Y244139D01*
X595080Y242920D01*
X593862Y241333D01*
X593096Y239484D01*
X592835Y237500D01*
Y232500D01*
X593096Y230516D01*
X593862Y228667D01*
X595080Y227080D01*
X596667Y225861D01*
X598516Y225096D01*
X600500Y224834D01*
X602484Y225096D01*
X604333Y225861D01*
X605920Y227080D01*
X607139Y228667D01*
X607904Y230516D01*
X608166Y232500D01*
Y237500D01*
X607904Y239484D01*
X607139Y241333D01*
X605920Y242920D01*
X604333Y244139D01*
X602484Y244904D01*
X600500Y245166D01*
D02*
G37*
G36*
X580500D02*
X578516Y244904D01*
X576667Y244139D01*
X575080Y242920D01*
X573862Y241333D01*
X573096Y239484D01*
X572835Y237500D01*
Y232500D01*
X573096Y230516D01*
X573862Y228667D01*
X575080Y227080D01*
X576667Y225861D01*
X578516Y225096D01*
X580500Y224834D01*
X582484Y225096D01*
X584333Y225861D01*
X585920Y227080D01*
X587139Y228667D01*
X587905Y230516D01*
X588166Y232500D01*
Y237500D01*
X587905Y239484D01*
X587139Y241333D01*
X585920Y242920D01*
X584333Y244139D01*
X582484Y244904D01*
X580500Y245166D01*
D02*
G37*
G36*
X560500D02*
X558516Y244904D01*
X556667Y244139D01*
X555080Y242920D01*
X553862Y241333D01*
X553096Y239484D01*
X552835Y237500D01*
Y232500D01*
X553096Y230516D01*
X553862Y228667D01*
X555080Y227080D01*
X556667Y225861D01*
X558516Y225096D01*
X560500Y224834D01*
X562484Y225096D01*
X564333Y225861D01*
X565920Y227080D01*
X567139Y228667D01*
X567905Y230516D01*
X568166Y232500D01*
Y237500D01*
X567905Y239484D01*
X567139Y241333D01*
X565920Y242920D01*
X564333Y244139D01*
X562484Y244904D01*
X560500Y245166D01*
D02*
G37*
G36*
X540500D02*
X538516Y244904D01*
X536667Y244139D01*
X535080Y242920D01*
X533862Y241333D01*
X533096Y239484D01*
X532835Y237500D01*
Y232500D01*
X533096Y230516D01*
X533862Y228667D01*
X535080Y227080D01*
X536667Y225861D01*
X538516Y225096D01*
X540500Y224834D01*
X542484Y225096D01*
X544333Y225861D01*
X545920Y227080D01*
X547139Y228667D01*
X547905Y230516D01*
X548166Y232500D01*
Y237500D01*
X547905Y239484D01*
X547139Y241333D01*
X545920Y242920D01*
X544333Y244139D01*
X542484Y244904D01*
X540500Y245166D01*
D02*
G37*
G36*
X124267Y210350D02*
X123233D01*
X122277Y209954D01*
X121546Y209223D01*
X121150Y208267D01*
Y207233D01*
X121546Y206277D01*
X122277Y205546D01*
X123233Y205150D01*
X124267D01*
X125223Y205546D01*
X125954Y206277D01*
X126350Y207233D01*
Y208267D01*
X125954Y209223D01*
X125223Y209954D01*
X124267Y210350D01*
D02*
G37*
G36*
Y202100D02*
X123233D01*
X122277Y201704D01*
X121546Y200973D01*
X121150Y200017D01*
Y198983D01*
X121546Y198027D01*
X122277Y197296D01*
X123233Y196900D01*
X124267D01*
X125223Y197296D01*
X125954Y198027D01*
X126350Y198983D01*
Y200017D01*
X125954Y200973D01*
X125223Y201704D01*
X124267Y202100D01*
D02*
G37*
G36*
X128517Y192100D02*
X127483D01*
X126527Y191704D01*
X125796Y190973D01*
X125400Y190017D01*
Y188983D01*
X125796Y188027D01*
X126527Y187296D01*
X127483Y186900D01*
X128517D01*
X129473Y187296D01*
X130204Y188027D01*
X130600Y188983D01*
Y190017D01*
X130204Y190973D01*
X129473Y191704D01*
X128517Y192100D01*
D02*
G37*
G36*
X180517Y186850D02*
X179483D01*
X178527Y186454D01*
X177796Y185723D01*
X177400Y184767D01*
Y183733D01*
X177796Y182777D01*
X178527Y182046D01*
X179483Y181650D01*
X180517D01*
X181473Y182046D01*
X182204Y182777D01*
X182600Y183733D01*
Y184767D01*
X182204Y185723D01*
X181473Y186454D01*
X180517Y186850D01*
D02*
G37*
G36*
X128267Y184350D02*
X127233D01*
X126277Y183954D01*
X125546Y183223D01*
X125150Y182267D01*
Y181233D01*
X125546Y180277D01*
X126277Y179546D01*
X127233Y179150D01*
X128267D01*
X129223Y179546D01*
X129954Y180277D01*
X130350Y181233D01*
Y182267D01*
X129954Y183223D01*
X129223Y183954D01*
X128267Y184350D01*
D02*
G37*
G36*
X130033Y148450D02*
X127467D01*
X125096Y147468D01*
X123282Y145654D01*
X122300Y143283D01*
Y140717D01*
X123282Y138346D01*
X125096Y136532D01*
X127467Y135550D01*
X130033D01*
X132404Y136532D01*
X134218Y138346D01*
X135200Y140717D01*
Y143283D01*
X134218Y145654D01*
X132404Y147468D01*
X130033Y148450D01*
D02*
G37*
G36*
X150267Y130100D02*
X149233D01*
X148277Y129704D01*
X147546Y128973D01*
X147150Y128017D01*
Y126983D01*
X147546Y126027D01*
X148277Y125296D01*
X149233Y124900D01*
X150267D01*
X151223Y125296D01*
X151954Y126027D01*
X152350Y126983D01*
Y128017D01*
X151954Y128973D01*
X151223Y129704D01*
X150267Y130100D01*
D02*
G37*
G36*
X203267Y125100D02*
X202233D01*
X201277Y124704D01*
X200546Y123973D01*
X200150Y123017D01*
Y121983D01*
X200546Y121027D01*
X201277Y120296D01*
X202233Y119900D01*
X203267D01*
X204223Y120296D01*
X204954Y121027D01*
X205350Y121983D01*
Y123017D01*
X204954Y123973D01*
X204223Y124704D01*
X203267Y125100D01*
D02*
G37*
G36*
X234267Y116600D02*
X233233D01*
X232277Y116204D01*
X231546Y115473D01*
X231150Y114517D01*
Y113483D01*
X231546Y112527D01*
X232277Y111796D01*
X233233Y111400D01*
X234267D01*
X235223Y111796D01*
X235954Y112527D01*
X236350Y113483D01*
Y114517D01*
X235954Y115473D01*
X235223Y116204D01*
X234267Y116600D01*
D02*
G37*
G36*
X184517Y115850D02*
X183483D01*
X182527Y115454D01*
X181796Y114723D01*
X181400Y113767D01*
Y112733D01*
X181796Y111777D01*
X182527Y111046D01*
X183483Y110650D01*
X184517D01*
X185473Y111046D01*
X186204Y111777D01*
X186600Y112733D01*
Y113767D01*
X186204Y114723D01*
X185473Y115454D01*
X184517Y115850D01*
D02*
G37*
G36*
X256517Y102600D02*
X255483D01*
X254527Y102204D01*
X253796Y101473D01*
X253400Y100517D01*
Y99483D01*
X253796Y98527D01*
X254527Y97796D01*
X255483Y97400D01*
X256517D01*
X257473Y97796D01*
X258204Y98527D01*
X258600Y99483D01*
Y100517D01*
X258204Y101473D01*
X257473Y102204D01*
X256517Y102600D01*
D02*
G37*
G36*
X220267Y86600D02*
X219233D01*
X218277Y86204D01*
X217546Y85473D01*
X217150Y84517D01*
Y83483D01*
X217546Y82527D01*
X218277Y81796D01*
X219233Y81400D01*
X220267D01*
X221223Y81796D01*
X221954Y82527D01*
X222350Y83483D01*
Y84517D01*
X221954Y85473D01*
X221223Y86204D01*
X220267Y86600D01*
D02*
G37*
G36*
X206017Y78600D02*
X204983D01*
X204027Y78204D01*
X203296Y77473D01*
X202900Y76517D01*
Y75483D01*
X203296Y74527D01*
X204027Y73796D01*
X204983Y73400D01*
X206017D01*
X206973Y73796D01*
X207704Y74527D01*
X208100Y75483D01*
Y76517D01*
X207704Y77473D01*
X206973Y78204D01*
X206017Y78600D01*
D02*
G37*
G36*
X155367Y76450D02*
X154333D01*
X153377Y76054D01*
X152646Y75323D01*
X152250Y74367D01*
Y73333D01*
X152646Y72377D01*
X153377Y71646D01*
X154333Y71250D01*
X155367D01*
X156323Y71646D01*
X157054Y72377D01*
X157450Y73333D01*
Y74367D01*
X157054Y75323D01*
X156323Y76054D01*
X155367Y76450D01*
D02*
G37*
G36*
X221517Y55350D02*
X220483D01*
X219527Y54954D01*
X218796Y54223D01*
X218400Y53267D01*
Y52233D01*
X218796Y51277D01*
X219527Y50546D01*
X220483Y50150D01*
X221517D01*
X222473Y50546D01*
X223204Y51277D01*
X223600Y52233D01*
Y53267D01*
X223204Y54223D01*
X222473Y54954D01*
X221517Y55350D01*
D02*
G37*
G36*
X50770Y43429D02*
Y39770D01*
X54429D01*
X53773Y41355D01*
X52355Y42773D01*
X50770Y43429D01*
D02*
G37*
G36*
X48230D02*
X46645Y42773D01*
X45227Y41355D01*
X44571Y39770D01*
X48230D01*
Y43429D01*
D02*
G37*
G36*
X54429Y37230D02*
X50770D01*
Y33571D01*
X52355Y34227D01*
X53773Y35645D01*
X54429Y37230D01*
D02*
G37*
G36*
X48230D02*
X44571D01*
X45227Y35645D01*
X46645Y34227D01*
X48230Y33571D01*
Y37230D01*
D02*
G37*
G36*
X16770Y32929D02*
Y29270D01*
X20429D01*
X19773Y30855D01*
X18355Y32273D01*
X16770Y32929D01*
D02*
G37*
G36*
X14230D02*
X12645Y32273D01*
X11227Y30855D01*
X10571Y29270D01*
X14230D01*
Y32929D01*
D02*
G37*
G36*
X20429Y26730D02*
X16770D01*
Y23071D01*
X18355Y23727D01*
X19773Y25145D01*
X20429Y26730D01*
D02*
G37*
G36*
X14230D02*
X10571D01*
X11227Y25145D01*
X12645Y23727D01*
X14230Y23071D01*
Y26730D01*
D02*
G37*
G36*
X734270Y33960D02*
Y22770D01*
X743127D01*
Y24000D01*
X742782Y26621D01*
X741770Y29063D01*
X740161Y31161D01*
X738063Y32770D01*
X735621Y33782D01*
X734270Y33960D01*
D02*
G37*
G36*
X731730Y33959D02*
X730379Y33782D01*
X727937Y32770D01*
X725839Y31161D01*
X724230Y29063D01*
X723218Y26621D01*
X722873Y24000D01*
Y22770D01*
X731730D01*
Y33959D01*
D02*
G37*
G36*
X122017Y21350D02*
X120983D01*
X120027Y20954D01*
X119296Y20223D01*
X118900Y19267D01*
Y18233D01*
X119296Y17277D01*
X120027Y16546D01*
X120983Y16150D01*
X122017D01*
X122973Y16546D01*
X123704Y17277D01*
X124100Y18233D01*
Y19267D01*
X123704Y20223D01*
X122973Y20954D01*
X122017Y21350D01*
D02*
G37*
G36*
X713000Y31666D02*
X711016Y31404D01*
X709167Y30639D01*
X707580Y29420D01*
X706361Y27833D01*
X705596Y25984D01*
X705334Y24000D01*
Y19000D01*
X705596Y17016D01*
X706361Y15167D01*
X707580Y13580D01*
X709167Y12361D01*
X711016Y11596D01*
X713000Y11334D01*
X714984Y11596D01*
X716833Y12361D01*
X718420Y13580D01*
X719639Y15167D01*
X720404Y17016D01*
X720666Y19000D01*
Y24000D01*
X720404Y25984D01*
X719639Y27833D01*
X718420Y29420D01*
X716833Y30639D01*
X714984Y31404D01*
X713000Y31666D01*
D02*
G37*
G36*
X693000D02*
X691016Y31404D01*
X689167Y30639D01*
X687580Y29420D01*
X686361Y27833D01*
X685596Y25984D01*
X685334Y24000D01*
Y19000D01*
X685596Y17016D01*
X686361Y15167D01*
X687580Y13580D01*
X689167Y12361D01*
X691016Y11596D01*
X693000Y11334D01*
X694984Y11596D01*
X696833Y12361D01*
X698420Y13580D01*
X699639Y15167D01*
X700404Y17016D01*
X700666Y19000D01*
Y24000D01*
X700404Y25984D01*
X699639Y27833D01*
X698420Y29420D01*
X696833Y30639D01*
X694984Y31404D01*
X693000Y31666D01*
D02*
G37*
G36*
X673000D02*
X671016Y31404D01*
X669167Y30639D01*
X667580Y29420D01*
X666361Y27833D01*
X665596Y25984D01*
X665334Y24000D01*
Y19000D01*
X665596Y17016D01*
X666361Y15167D01*
X667580Y13580D01*
X669167Y12361D01*
X671016Y11596D01*
X673000Y11334D01*
X674984Y11596D01*
X676833Y12361D01*
X678420Y13580D01*
X679639Y15167D01*
X680404Y17016D01*
X680666Y19000D01*
Y24000D01*
X680404Y25984D01*
X679639Y27833D01*
X678420Y29420D01*
X676833Y30639D01*
X674984Y31404D01*
X673000Y31666D01*
D02*
G37*
G36*
X653000D02*
X651016Y31404D01*
X649167Y30639D01*
X647580Y29420D01*
X646361Y27833D01*
X645596Y25984D01*
X645334Y24000D01*
Y19000D01*
X645596Y17016D01*
X646361Y15167D01*
X647580Y13580D01*
X649167Y12361D01*
X651016Y11596D01*
X653000Y11334D01*
X654984Y11596D01*
X656833Y12361D01*
X658420Y13580D01*
X659639Y15167D01*
X660404Y17016D01*
X660666Y19000D01*
Y24000D01*
X660404Y25984D01*
X659639Y27833D01*
X658420Y29420D01*
X656833Y30639D01*
X654984Y31404D01*
X653000Y31666D01*
D02*
G37*
G36*
X633000D02*
X631016Y31404D01*
X629167Y30639D01*
X627580Y29420D01*
X626361Y27833D01*
X625596Y25984D01*
X625334Y24000D01*
Y19000D01*
X625596Y17016D01*
X626361Y15167D01*
X627580Y13580D01*
X629167Y12361D01*
X631016Y11596D01*
X633000Y11334D01*
X634984Y11596D01*
X636833Y12361D01*
X638420Y13580D01*
X639639Y15167D01*
X640404Y17016D01*
X640666Y19000D01*
Y24000D01*
X640404Y25984D01*
X639639Y27833D01*
X638420Y29420D01*
X636833Y30639D01*
X634984Y31404D01*
X633000Y31666D01*
D02*
G37*
G36*
X613000D02*
X611016Y31404D01*
X609167Y30639D01*
X607580Y29420D01*
X606361Y27833D01*
X605596Y25984D01*
X605335Y24000D01*
Y19000D01*
X605596Y17016D01*
X606361Y15167D01*
X607580Y13580D01*
X609167Y12361D01*
X611016Y11596D01*
X613000Y11334D01*
X614984Y11596D01*
X616833Y12361D01*
X618420Y13580D01*
X619639Y15167D01*
X620404Y17016D01*
X620666Y19000D01*
Y24000D01*
X620404Y25984D01*
X619639Y27833D01*
X618420Y29420D01*
X616833Y30639D01*
X614984Y31404D01*
X613000Y31666D01*
D02*
G37*
G36*
X593000D02*
X591016Y31404D01*
X589167Y30639D01*
X587580Y29420D01*
X586362Y27833D01*
X585596Y25984D01*
X585335Y24000D01*
Y19000D01*
X585596Y17016D01*
X586362Y15167D01*
X587580Y13580D01*
X589167Y12361D01*
X591016Y11596D01*
X593000Y11334D01*
X594984Y11596D01*
X596833Y12361D01*
X598420Y13580D01*
X599639Y15167D01*
X600404Y17016D01*
X600666Y19000D01*
Y24000D01*
X600404Y25984D01*
X599639Y27833D01*
X598420Y29420D01*
X596833Y30639D01*
X594984Y31404D01*
X593000Y31666D01*
D02*
G37*
G36*
X573000D02*
X571016Y31404D01*
X569167Y30639D01*
X567580Y29420D01*
X566362Y27833D01*
X565596Y25984D01*
X565335Y24000D01*
Y19000D01*
X565596Y17016D01*
X566362Y15167D01*
X567580Y13580D01*
X569167Y12361D01*
X571016Y11596D01*
X573000Y11334D01*
X574984Y11596D01*
X576833Y12361D01*
X578420Y13580D01*
X579639Y15167D01*
X580404Y17016D01*
X580666Y19000D01*
Y24000D01*
X580404Y25984D01*
X579639Y27833D01*
X578420Y29420D01*
X576833Y30639D01*
X574984Y31404D01*
X573000Y31666D01*
D02*
G37*
G36*
X553000D02*
X551016Y31404D01*
X549167Y30639D01*
X547580Y29420D01*
X546362Y27833D01*
X545596Y25984D01*
X545335Y24000D01*
Y19000D01*
X545596Y17016D01*
X546362Y15167D01*
X547580Y13580D01*
X549167Y12361D01*
X551016Y11596D01*
X553000Y11334D01*
X554984Y11596D01*
X556833Y12361D01*
X558420Y13580D01*
X559639Y15167D01*
X560404Y17016D01*
X560666Y19000D01*
Y24000D01*
X560404Y25984D01*
X559639Y27833D01*
X558420Y29420D01*
X556833Y30639D01*
X554984Y31404D01*
X553000Y31666D01*
D02*
G37*
G36*
X731730Y20230D02*
X722873D01*
Y19000D01*
X723218Y16379D01*
X724230Y13937D01*
X725839Y11839D01*
X727937Y10230D01*
X730379Y9218D01*
X731730Y9041D01*
Y20230D01*
D02*
G37*
G36*
X743127D02*
X734270D01*
Y9040D01*
X735621Y9218D01*
X738063Y10230D01*
X740161Y11839D01*
X741770Y13937D01*
X742782Y16379D01*
X743127Y19000D01*
Y20230D01*
D02*
G37*
G36*
X156267Y117350D02*
X155233D01*
X154277Y116954D01*
X153546Y116223D01*
X153150Y115267D01*
Y114233D01*
X153327Y113807D01*
X152660Y112596D01*
X152583Y112537D01*
X137303D01*
X136312Y112339D01*
X135472Y111778D01*
X134910Y110938D01*
X134713Y109947D01*
Y86053D01*
X134910Y85062D01*
X135472Y84222D01*
X136312Y83660D01*
X137303Y83463D01*
X141018D01*
X141650Y82517D01*
Y81483D01*
X142046Y80527D01*
X142767Y79806D01*
Y18250D01*
X142767Y18250D01*
X143201Y17201D01*
X151150Y9253D01*
Y8233D01*
X151546Y7277D01*
X152277Y6546D01*
X153233Y6150D01*
X154267D01*
X155223Y6546D01*
X155954Y7277D01*
X156350Y8233D01*
Y9267D01*
X155954Y10223D01*
X155223Y10954D01*
X154267Y11350D01*
X153247D01*
X145733Y18864D01*
Y79806D01*
X146454Y80527D01*
X146850Y81483D01*
Y82517D01*
X147482Y83463D01*
X161197D01*
X162188Y83660D01*
X163028Y84222D01*
X163589Y85062D01*
X163787Y86053D01*
Y97668D01*
X164733Y98300D01*
X165767D01*
X166723Y98696D01*
X167454Y99427D01*
X167850Y100383D01*
Y101417D01*
X167454Y102373D01*
X166723Y103104D01*
X165767Y103500D01*
X164733D01*
X163787Y104132D01*
Y109947D01*
X163589Y110938D01*
X163028Y111778D01*
X162188Y112339D01*
X161197Y112537D01*
X158917D01*
X158840Y112596D01*
X158174Y113807D01*
X158350Y114233D01*
Y115267D01*
X157954Y116223D01*
X157223Y116954D01*
X156267Y117350D01*
D02*
G37*
%LPD*%
D17*
X144250Y18250D02*
X153750Y8750D01*
X144250Y18250D02*
Y82000D01*
X494000Y373500D02*
X547723D01*
X637388Y463166D01*
Y478362D01*
X495000Y427000D02*
X530000D01*
X577000Y474000D02*
X631500D01*
X530000Y427000D02*
X577000Y474000D01*
X630221Y378529D02*
X633481Y375269D01*
X630221Y378529D02*
Y382279D01*
X629750Y382750D02*
X630221Y382279D01*
X633481Y375269D02*
X717000D01*
X800000Y0D02*
Y800000D01*
X0Y0D02*
X800000D01*
X0Y800000D02*
X800000D01*
X0Y0D02*
Y800000D01*
D81*
X720500Y235000D02*
D03*
X680500D02*
D03*
X660500D02*
D03*
X640500D02*
D03*
X580500D02*
D03*
X560500D02*
D03*
X540500D02*
D03*
X600500D02*
D03*
X620500D02*
D03*
X700500D02*
D03*
X733000Y21500D02*
D03*
X693000D02*
D03*
X673000D02*
D03*
X653000D02*
D03*
X593000D02*
D03*
X573000D02*
D03*
X553000D02*
D03*
X613000D02*
D03*
X633000D02*
D03*
X713000D02*
D03*
D83*
X165250Y100900D02*
D03*
X155750Y114750D02*
D03*
X153750Y8750D02*
D03*
X256000Y100000D02*
D03*
X144250Y82000D02*
D03*
X154850Y73850D02*
D03*
X15500Y28000D02*
D03*
X49500Y38500D02*
D03*
X640000Y412000D02*
D03*
X605500Y414500D02*
D03*
X638750Y447000D02*
D03*
X604250Y445750D02*
D03*
X621500Y430250D02*
D03*
X638500Y365000D02*
D03*
X586250Y396500D02*
D03*
X619250Y525500D02*
D03*
X614500Y518250D02*
D03*
X602000Y496250D02*
D03*
X581250Y536500D02*
D03*
X564750Y503250D02*
D03*
X564500Y514000D02*
D03*
X553750Y390250D02*
D03*
X545750Y390500D02*
D03*
X518250Y346750D02*
D03*
X519000Y437250D02*
D03*
X494000Y373500D02*
D03*
Y362500D02*
D03*
X494250Y338250D02*
D03*
X637388Y478362D02*
D03*
X587000Y464500D02*
D03*
X599000Y479000D02*
D03*
X631250Y498250D02*
D03*
X557750Y462750D02*
D03*
X537000Y447750D02*
D03*
X495000Y427000D02*
D03*
X578000Y482000D02*
D03*
X573000Y404250D02*
D03*
X650500Y475500D02*
D03*
X644750Y480250D02*
D03*
X631500Y474000D02*
D03*
X667000Y329750D02*
D03*
X560750Y328500D02*
D03*
X619000Y385750D02*
D03*
X623500Y378750D02*
D03*
X507500Y457750D02*
D03*
X629750Y382750D02*
D03*
X368000Y352000D02*
D03*
X322250Y361000D02*
D03*
X334000Y360750D02*
D03*
X100000Y747500D02*
D03*
X99500Y728500D02*
D03*
X99750Y768000D02*
D03*
X505500Y730250D02*
D03*
Y748750D02*
D03*
Y770750D02*
D03*
X296750Y748250D02*
D03*
X297000Y730500D02*
D03*
X296750Y767250D02*
D03*
X557000Y520500D02*
D03*
X709500Y404000D02*
D03*
X732000Y410250D02*
D03*
X685000Y403750D02*
D03*
X684500Y418000D02*
D03*
X666750Y261750D02*
D03*
X674500Y391500D02*
D03*
X540250Y261750D02*
D03*
X694000Y411000D02*
D03*
X698750Y261250D02*
D03*
X688250Y461000D02*
D03*
X754500Y614250D02*
D03*
X754000Y636500D02*
D03*
X769750Y625500D02*
D03*
X677750Y470250D02*
D03*
X753500Y658750D02*
D03*
X575750Y452500D02*
D03*
X506750Y494500D02*
D03*
X493250Y470250D02*
D03*
X346750Y417250D02*
D03*
X754370Y669250D02*
D03*
X717000Y375269D02*
D03*
X202750Y122500D02*
D03*
X328000Y398250D02*
D03*
X327500Y466000D02*
D03*
X316750Y464000D02*
D03*
X233750Y114000D02*
D03*
X121500Y18750D02*
D03*
X557000Y551750D02*
D03*
X180000Y184250D02*
D03*
X127750Y181750D02*
D03*
X128000Y189500D02*
D03*
X123750Y199500D02*
D03*
Y207750D02*
D03*
X221000Y52750D02*
D03*
X219750Y84000D02*
D03*
X184000Y113250D02*
D03*
X205500Y76000D02*
D03*
X149750Y127500D02*
D03*
X316750Y398250D02*
D03*
X769000Y647150D02*
D03*
X397250Y286000D02*
D03*
X397500Y250500D02*
D03*
X667750Y470250D02*
D03*
X558500Y415500D02*
D03*
X346750Y690250D02*
D03*
X535250Y707500D02*
D03*
X129500Y708250D02*
D03*
X327498Y708082D02*
D03*
D84*
X128750Y142000D02*
D03*
D85*
X150650Y295900D02*
D03*
Y308600D02*
D03*
Y321300D02*
D03*
Y334000D02*
D03*
Y346700D02*
D03*
X125250Y302250D02*
D03*
Y314950D02*
D03*
Y327650D02*
D03*
Y340350D02*
D03*
X112550Y249550D02*
D03*
Y393050D02*
D03*
M02*
