G04*
G04 #@! TF.GenerationSoftware,Altium Limited,Altium Designer,24.4.1 (13)*
G04*
G04 Layer_Physical_Order=2*
G04 Layer_Color=36540*
%FSLAX44Y44*%
%MOMM*%
G71*
G04*
G04 #@! TF.SameCoordinates,85F95AA7-1CD2-4A53-B858-D1680FFA15A6*
G04*
G04*
G04 #@! TF.FilePolarity,Positive*
G04*
G01*
G75*
%ADD17C,0.2540*%
%ADD81O,1.5000X2.0000*%
%ADD83C,0.5000*%
%ADD84C,1.2700*%
%ADD85C,1.5240*%
G36*
X798517Y1483D02*
X1483D01*
Y798517D01*
X798517D01*
Y1483D01*
D02*
G37*
%LPC*%
G36*
X506770Y775679D02*
Y772020D01*
X510429D01*
X509773Y773605D01*
X508355Y775023D01*
X506770Y775679D01*
D02*
G37*
G36*
X504230D02*
X502645Y775023D01*
X501227Y773605D01*
X500571Y772020D01*
X504230D01*
Y775679D01*
D02*
G37*
G36*
X101020Y772929D02*
Y769270D01*
X104679D01*
X104023Y770855D01*
X102605Y772273D01*
X101020Y772929D01*
D02*
G37*
G36*
X98480D02*
X96895Y772273D01*
X95477Y770855D01*
X94821Y769270D01*
X98480D01*
Y772929D01*
D02*
G37*
G36*
X298020Y772179D02*
Y768520D01*
X301679D01*
X301023Y770105D01*
X299605Y771523D01*
X298020Y772179D01*
D02*
G37*
G36*
X295480D02*
X293895Y771523D01*
X292477Y770105D01*
X291821Y768520D01*
X295480D01*
Y772179D01*
D02*
G37*
G36*
X510429Y769480D02*
X506770D01*
Y765821D01*
X508355Y766477D01*
X509773Y767895D01*
X510429Y769480D01*
D02*
G37*
G36*
X504230D02*
X500571D01*
X501227Y767895D01*
X502645Y766477D01*
X504230Y765821D01*
Y769480D01*
D02*
G37*
G36*
X104679Y766730D02*
X101020D01*
Y763071D01*
X102605Y763727D01*
X104023Y765145D01*
X104679Y766730D01*
D02*
G37*
G36*
X98480D02*
X94821D01*
X95477Y765145D01*
X96895Y763727D01*
X98480Y763071D01*
Y766730D01*
D02*
G37*
G36*
X301679Y765980D02*
X298020D01*
Y762321D01*
X299605Y762977D01*
X301023Y764395D01*
X301679Y765980D01*
D02*
G37*
G36*
X295480D02*
X291821D01*
X292477Y764395D01*
X293895Y762977D01*
X295480Y762321D01*
Y765980D01*
D02*
G37*
G36*
X506770Y753679D02*
Y750020D01*
X510429D01*
X509773Y751605D01*
X508355Y753023D01*
X506770Y753679D01*
D02*
G37*
G36*
X504230D02*
X502645Y753023D01*
X501227Y751605D01*
X500571Y750020D01*
X504230D01*
Y753679D01*
D02*
G37*
G36*
X298020Y753179D02*
Y749520D01*
X301679D01*
X301023Y751105D01*
X299605Y752523D01*
X298020Y753179D01*
D02*
G37*
G36*
X295480D02*
X293895Y752523D01*
X292477Y751105D01*
X291821Y749520D01*
X295480D01*
Y753179D01*
D02*
G37*
G36*
X101270Y752429D02*
Y748770D01*
X104929D01*
X104273Y750355D01*
X102855Y751773D01*
X101270Y752429D01*
D02*
G37*
G36*
X98730D02*
X97145Y751773D01*
X95727Y750355D01*
X95071Y748770D01*
X98730D01*
Y752429D01*
D02*
G37*
G36*
X510429Y747480D02*
X506770D01*
Y743821D01*
X508355Y744477D01*
X509773Y745895D01*
X510429Y747480D01*
D02*
G37*
G36*
X504230D02*
X500571D01*
X501227Y745895D01*
X502645Y744477D01*
X504230Y743821D01*
Y747480D01*
D02*
G37*
G36*
X301679Y746980D02*
X298020D01*
Y743321D01*
X299605Y743977D01*
X301023Y745395D01*
X301679Y746980D01*
D02*
G37*
G36*
X295480D02*
X291821D01*
X292477Y745395D01*
X293895Y743977D01*
X295480Y743321D01*
Y746980D01*
D02*
G37*
G36*
X104929Y746230D02*
X101270D01*
Y742571D01*
X102855Y743227D01*
X104273Y744645D01*
X104929Y746230D01*
D02*
G37*
G36*
X98730D02*
X95071D01*
X95727Y744645D01*
X97145Y743227D01*
X98730Y742571D01*
Y746230D01*
D02*
G37*
G36*
X298270Y735429D02*
Y731770D01*
X301929D01*
X301273Y733355D01*
X299855Y734773D01*
X298270Y735429D01*
D02*
G37*
G36*
X295730D02*
X294145Y734773D01*
X292727Y733355D01*
X292071Y731770D01*
X295730D01*
Y735429D01*
D02*
G37*
G36*
X506770Y735179D02*
Y731520D01*
X510429D01*
X509773Y733105D01*
X508355Y734523D01*
X506770Y735179D01*
D02*
G37*
G36*
X504230D02*
X502645Y734523D01*
X501227Y733105D01*
X500571Y731520D01*
X504230D01*
Y735179D01*
D02*
G37*
G36*
X100770Y733429D02*
Y729770D01*
X104429D01*
X103773Y731355D01*
X102355Y732773D01*
X100770Y733429D01*
D02*
G37*
G36*
X98230D02*
X96645Y732773D01*
X95227Y731355D01*
X94571Y729770D01*
X98230D01*
Y733429D01*
D02*
G37*
G36*
X301929Y729230D02*
X298270D01*
Y725571D01*
X299855Y726227D01*
X301273Y727645D01*
X301929Y729230D01*
D02*
G37*
G36*
X295730D02*
X292071D01*
X292727Y727645D01*
X294145Y726227D01*
X295730Y725571D01*
Y729230D01*
D02*
G37*
G36*
X510429Y728980D02*
X506770D01*
Y725321D01*
X508355Y725977D01*
X509773Y727395D01*
X510429Y728980D01*
D02*
G37*
G36*
X504230D02*
X500571D01*
X501227Y727395D01*
X502645Y725977D01*
X504230Y725321D01*
Y728980D01*
D02*
G37*
G36*
X104429Y727230D02*
X100770D01*
Y723571D01*
X102355Y724227D01*
X103773Y725645D01*
X104429Y727230D01*
D02*
G37*
G36*
X98230D02*
X94571D01*
X95227Y725645D01*
X96645Y724227D01*
X98230Y723571D01*
Y727230D01*
D02*
G37*
G36*
X347267Y692850D02*
X346233D01*
X345277Y692454D01*
X344546Y691723D01*
X344150Y690767D01*
Y690247D01*
X336761Y682858D01*
X336326Y681809D01*
X336326Y681809D01*
Y607684D01*
X308451Y579809D01*
X308017Y578760D01*
X308017Y578760D01*
Y490750D01*
X308017Y490750D01*
X308451Y489701D01*
X326017Y472136D01*
Y468194D01*
X325296Y467473D01*
X324900Y466517D01*
Y465483D01*
X325296Y464527D01*
X326027Y463796D01*
X326983Y463400D01*
X328017D01*
X329117Y462951D01*
X330166Y462517D01*
X555150D01*
Y462233D01*
X555546Y461277D01*
X556277Y460546D01*
X556642Y460395D01*
Y417319D01*
X556296Y416973D01*
X555900Y416017D01*
Y414983D01*
X556296Y414027D01*
X557027Y413296D01*
X557983Y412900D01*
X559017D01*
X559973Y413296D01*
X560704Y414027D01*
X561100Y414983D01*
Y416017D01*
X560704Y416973D01*
X559973Y417704D01*
X559608Y417855D01*
Y460931D01*
X559954Y461277D01*
X560350Y462233D01*
Y463267D01*
X559954Y464223D01*
X559223Y464954D01*
X558267Y465350D01*
X557233D01*
X556694Y465127D01*
X555834Y465483D01*
X555834Y465483D01*
X330780D01*
X330100Y466163D01*
Y466517D01*
X329704Y467473D01*
X328983Y468194D01*
Y472750D01*
X328549Y473798D01*
X328549Y473799D01*
X310983Y491364D01*
Y578146D01*
X338858Y606021D01*
X338858Y606021D01*
X339292Y607070D01*
X339292Y607070D01*
Y681195D01*
X345889Y687792D01*
X346233Y687650D01*
X347267D01*
X348223Y688046D01*
X348954Y688777D01*
X349350Y689733D01*
Y690767D01*
X348954Y691723D01*
X348223Y692454D01*
X347267Y692850D01*
D02*
G37*
G36*
X770270Y652079D02*
Y648420D01*
X773929D01*
X773273Y650005D01*
X771855Y651423D01*
X770270Y652079D01*
D02*
G37*
G36*
X767730D02*
X766145Y651423D01*
X764727Y650005D01*
X764071Y648420D01*
X767730D01*
Y652079D01*
D02*
G37*
G36*
X773929Y645880D02*
X770270D01*
Y642221D01*
X771855Y642877D01*
X773273Y644295D01*
X773929Y645880D01*
D02*
G37*
G36*
X767730D02*
X764071D01*
X764727Y644295D01*
X766145Y642877D01*
X767730Y642221D01*
Y645880D01*
D02*
G37*
G36*
X770267Y628100D02*
X769233D01*
X768277Y627704D01*
X767546Y626973D01*
X767150Y626017D01*
Y624983D01*
X767546Y624027D01*
X768277Y623296D01*
X769233Y622900D01*
X770267D01*
X771223Y623296D01*
X771954Y624027D01*
X772350Y624983D01*
Y626017D01*
X771954Y626973D01*
X771223Y627704D01*
X770267Y628100D01*
D02*
G37*
G36*
X130017Y710850D02*
X128983D01*
X128027Y710454D01*
X127296Y709723D01*
X126900Y708767D01*
Y707733D01*
X127296Y706777D01*
X128027Y706046D01*
X128983Y705650D01*
X130017D01*
X130973Y706046D01*
X131610Y706683D01*
X325263D01*
X325294Y706610D01*
X326015Y705888D01*
Y623783D01*
X297701Y595469D01*
X297267Y594421D01*
X297267Y594421D01*
Y482000D01*
X297267Y482000D01*
X297701Y480951D01*
X314150Y464503D01*
Y463483D01*
X314546Y462527D01*
X315277Y461796D01*
X316233Y461400D01*
X317267D01*
X318223Y461796D01*
X318954Y462527D01*
X319350Y463483D01*
Y464517D01*
X318954Y465473D01*
X318223Y466204D01*
X317267Y466600D01*
X316247D01*
X300233Y482614D01*
Y593806D01*
X328547Y622120D01*
X328547Y622120D01*
X328981Y623169D01*
X328981Y623169D01*
Y705888D01*
X329401Y706308D01*
X532929D01*
X533046Y706027D01*
X533767Y705306D01*
Y573500D01*
X533767Y573500D01*
X534201Y572451D01*
X554400Y552253D01*
Y551233D01*
X554796Y550277D01*
X555527Y549546D01*
X556483Y549150D01*
X557517D01*
X558473Y549546D01*
X559204Y550277D01*
X559600Y551233D01*
Y552267D01*
X559204Y553223D01*
X558473Y553954D01*
X557517Y554350D01*
X556497D01*
X536733Y574114D01*
Y705306D01*
X537454Y706027D01*
X537850Y706983D01*
Y708017D01*
X537454Y708973D01*
X536723Y709704D01*
X535767Y710100D01*
X534733D01*
X533777Y709704D01*
X533347Y709274D01*
X329819D01*
X329702Y709555D01*
X328971Y710287D01*
X328015Y710682D01*
X326981D01*
X326025Y710287D01*
X325388Y709649D01*
X131735D01*
X131704Y709723D01*
X130973Y710454D01*
X130017Y710850D01*
D02*
G37*
G36*
X582520Y541429D02*
Y537770D01*
X586179D01*
X585523Y539355D01*
X584105Y540773D01*
X582520Y541429D01*
D02*
G37*
G36*
X579980D02*
X578395Y540773D01*
X576977Y539355D01*
X576321Y537770D01*
X579980D01*
Y541429D01*
D02*
G37*
G36*
X586179Y535230D02*
X582520D01*
Y531571D01*
X584105Y532227D01*
X585523Y533645D01*
X586179Y535230D01*
D02*
G37*
G36*
X579980D02*
X576321D01*
X576977Y533645D01*
X578395Y532227D01*
X579980Y531571D01*
Y535230D01*
D02*
G37*
G36*
X620520Y530429D02*
Y526770D01*
X624179D01*
X623523Y528355D01*
X622105Y529773D01*
X620520Y530429D01*
D02*
G37*
G36*
X617980D02*
X616395Y529773D01*
X614977Y528355D01*
X614321Y526770D01*
X617980D01*
Y530429D01*
D02*
G37*
G36*
X624179Y524230D02*
X620520D01*
Y520571D01*
X622105Y521227D01*
X623523Y522645D01*
X624179Y524230D01*
D02*
G37*
G36*
X617980D02*
X614321D01*
X614977Y522645D01*
X615667Y521955D01*
X615086Y520967D01*
X614976Y520850D01*
X613983D01*
X613027Y520454D01*
X612296Y519723D01*
X611900Y518767D01*
Y517872D01*
X578596Y484568D01*
X578517Y484600D01*
X577483D01*
X576527Y484204D01*
X575796Y483473D01*
X575400Y482517D01*
Y481483D01*
X575796Y480527D01*
X576527Y479796D01*
X577483Y479400D01*
X578517D01*
X579473Y479796D01*
X580204Y480527D01*
X580600Y481483D01*
Y482378D01*
X595787Y497565D01*
X595954Y497520D01*
X600730D01*
Y502296D01*
X600686Y502463D01*
X613905Y515682D01*
X613983Y515650D01*
X615017D01*
X615973Y516046D01*
X616704Y516777D01*
X617100Y517733D01*
Y518767D01*
X616704Y519723D01*
X616701Y519726D01*
X617420Y520803D01*
X617980Y520571D01*
Y524230D01*
D02*
G37*
G36*
X565770Y518929D02*
Y515270D01*
X569429D01*
X568773Y516855D01*
X567355Y518273D01*
X565770Y518929D01*
D02*
G37*
G36*
X557517Y523100D02*
X556483D01*
X555527Y522704D01*
X554796Y521973D01*
X554400Y521017D01*
Y519983D01*
X554796Y519027D01*
X555267Y518556D01*
Y483000D01*
X555267Y483000D01*
X555701Y481951D01*
X567267Y470386D01*
Y410818D01*
X567267Y410818D01*
X567701Y409769D01*
X571272Y406199D01*
X570796Y405723D01*
X570400Y404767D01*
Y403733D01*
X570796Y402777D01*
X571527Y402046D01*
X572483Y401650D01*
X573517D01*
X574473Y402046D01*
X575204Y402777D01*
X575600Y403733D01*
Y404767D01*
X575204Y405723D01*
X574483Y406444D01*
Y406568D01*
X574049Y407617D01*
X574049Y407617D01*
X570233Y411432D01*
Y471000D01*
X569799Y472049D01*
X569799Y472049D01*
X558233Y483614D01*
Y512894D01*
X559460Y512997D01*
X560227Y511145D01*
X561645Y509727D01*
X562772Y509261D01*
Y507886D01*
X561895Y507523D01*
X560477Y506105D01*
X559821Y504520D01*
X569679D01*
X569023Y506105D01*
X567605Y507523D01*
X566478Y507989D01*
Y509364D01*
X567355Y509727D01*
X568773Y511145D01*
X569429Y512730D01*
X564500D01*
Y514000D01*
X563230D01*
Y518929D01*
X561645Y518273D01*
X560227Y516855D01*
X559460Y515003D01*
X558233Y515106D01*
Y518196D01*
X558473Y518296D01*
X559204Y519027D01*
X559600Y519983D01*
Y521017D01*
X559204Y521973D01*
X558473Y522704D01*
X557517Y523100D01*
D02*
G37*
G36*
X754887Y671850D02*
X753853D01*
X752897Y671454D01*
X752166Y670723D01*
X751770Y669767D01*
Y668747D01*
X659451Y576429D01*
X659017Y575380D01*
X659017Y575380D01*
Y507864D01*
X656636Y505483D01*
X617250D01*
X616201Y505049D01*
X608213Y497060D01*
X606914Y497557D01*
X606273Y499105D01*
X604855Y500523D01*
X603270Y501179D01*
Y496250D01*
X602000D01*
Y494980D01*
X597071D01*
X597727Y493395D01*
X599145Y491977D01*
X600693Y491336D01*
X601190Y490037D01*
X574701Y463549D01*
X574267Y462500D01*
X574267Y462500D01*
Y454694D01*
X573546Y453973D01*
X573150Y453017D01*
Y451983D01*
X573546Y451027D01*
X574277Y450296D01*
X575233Y449900D01*
X576267D01*
X577223Y450296D01*
X577954Y451027D01*
X578350Y451983D01*
Y453017D01*
X577954Y453973D01*
X577233Y454694D01*
Y461886D01*
X580690Y465343D01*
X581960Y464817D01*
Y463498D01*
X582727Y461645D01*
X584145Y460227D01*
X585730Y459571D01*
Y464500D01*
X587000D01*
Y465770D01*
X591929D01*
X591273Y467355D01*
X589855Y468773D01*
X588003Y469540D01*
X586683D01*
X586157Y470810D01*
X592808Y477461D01*
X594306Y477163D01*
X594727Y476145D01*
X596145Y474727D01*
X597730Y474071D01*
Y479000D01*
X599000D01*
Y480270D01*
X603929D01*
X603273Y481855D01*
X601855Y483273D01*
X600837Y483694D01*
X600539Y485192D01*
X617864Y502517D01*
X626730D01*
X627216Y501344D01*
X626977Y501105D01*
X626321Y499520D01*
X636179D01*
X635523Y501105D01*
X635284Y501344D01*
X635770Y502517D01*
X657250D01*
X657250Y502517D01*
X658299Y502951D01*
X661548Y506201D01*
X661549Y506201D01*
X661983Y507250D01*
Y574766D01*
X753867Y666650D01*
X754887D01*
X755843Y667046D01*
X756574Y667777D01*
X756970Y668733D01*
Y669767D01*
X756574Y670723D01*
X755843Y671454D01*
X754887Y671850D01*
D02*
G37*
G36*
X569679Y501980D02*
X566020D01*
Y498321D01*
X567605Y498977D01*
X569023Y500395D01*
X569679Y501980D01*
D02*
G37*
G36*
X563480D02*
X559821D01*
X560477Y500395D01*
X561895Y498977D01*
X563480Y498321D01*
Y501980D01*
D02*
G37*
G36*
X636179Y496980D02*
X632520D01*
Y493321D01*
X634105Y493977D01*
X635523Y495395D01*
X636179Y496980D01*
D02*
G37*
G36*
X629980D02*
X626321D01*
X626977Y495395D01*
X628395Y493977D01*
X629980Y493321D01*
Y496980D01*
D02*
G37*
G36*
X637906Y480961D02*
X636871D01*
X635916Y480566D01*
X635184Y479834D01*
X634789Y478879D01*
Y477844D01*
X635184Y476889D01*
X635916Y476157D01*
X636871Y475761D01*
X637906D01*
X638861Y476157D01*
X639593Y476889D01*
X639989Y477844D01*
Y478879D01*
X639593Y479834D01*
X638861Y480566D01*
X637906Y480961D01*
D02*
G37*
G36*
X603929Y477730D02*
X600270D01*
Y474071D01*
X601855Y474727D01*
X603273Y476145D01*
X603929Y477730D01*
D02*
G37*
G36*
X676480Y475179D02*
X674895Y474523D01*
X673477Y473105D01*
X673385Y472882D01*
X672115D01*
X672023Y473105D01*
X670605Y474523D01*
X669020Y475179D01*
Y470250D01*
Y465321D01*
X670605Y465977D01*
X672023Y467395D01*
X672115Y467618D01*
X673385D01*
X673477Y467395D01*
X674895Y465977D01*
X676480Y465321D01*
Y470250D01*
Y475179D01*
D02*
G37*
G36*
X679020D02*
Y471520D01*
X682679D01*
X682023Y473105D01*
X680605Y474523D01*
X679020Y475179D01*
D02*
G37*
G36*
X666480D02*
X664895Y474523D01*
X663477Y473105D01*
X662821Y471520D01*
X666480D01*
Y475179D01*
D02*
G37*
G36*
X632017Y476600D02*
X630983D01*
X630027Y476204D01*
X629296Y475473D01*
X628900Y474517D01*
Y473483D01*
X629296Y472527D01*
X630027Y471796D01*
X630983Y471400D01*
X632017D01*
X632973Y471796D01*
X633704Y472527D01*
X634100Y473483D01*
Y474517D01*
X633704Y475473D01*
X632973Y476204D01*
X632017Y476600D01*
D02*
G37*
G36*
X507267Y497100D02*
X506233D01*
X505277Y496704D01*
X504546Y495973D01*
X504150Y495017D01*
Y493983D01*
X504546Y493027D01*
X505267Y492306D01*
Y484364D01*
X493753Y472850D01*
X492733D01*
X491777Y472454D01*
X491046Y471723D01*
X490650Y470767D01*
Y469733D01*
X491046Y468777D01*
X491777Y468046D01*
X492733Y467650D01*
X493767D01*
X494723Y468046D01*
X495454Y468777D01*
X495850Y469733D01*
Y470753D01*
X507799Y482701D01*
X507799Y482701D01*
X508233Y483750D01*
X508233Y483750D01*
Y492306D01*
X508954Y493027D01*
X509350Y493983D01*
Y495017D01*
X508954Y495973D01*
X508223Y496704D01*
X507267Y497100D01*
D02*
G37*
G36*
X682679Y468980D02*
X679020D01*
Y465321D01*
X680605Y465977D01*
X682023Y467395D01*
X682679Y468980D01*
D02*
G37*
G36*
X666480D02*
X662821D01*
X663477Y467395D01*
X664895Y465977D01*
X666480Y465321D01*
Y468980D01*
D02*
G37*
G36*
X689520Y465929D02*
Y462270D01*
X693179D01*
X692523Y463855D01*
X691105Y465273D01*
X689520Y465929D01*
D02*
G37*
G36*
X686980D02*
X685395Y465273D01*
X683977Y463855D01*
X683321Y462270D01*
X686980D01*
Y465929D01*
D02*
G37*
G36*
X591929Y463230D02*
X588270D01*
Y459571D01*
X589855Y460227D01*
X591273Y461645D01*
X591929Y463230D01*
D02*
G37*
G36*
X693179Y459730D02*
X689520D01*
Y456071D01*
X691105Y456727D01*
X692523Y458145D01*
X693179Y459730D01*
D02*
G37*
G36*
X686980D02*
X683321D01*
X683977Y458145D01*
X685395Y456727D01*
X686980Y456071D01*
Y459730D01*
D02*
G37*
G36*
X508017Y460350D02*
X506983D01*
X506027Y459954D01*
X505296Y459223D01*
X504900Y458267D01*
Y457983D01*
X331500D01*
X330451Y457549D01*
X330451Y457548D01*
X195686Y322783D01*
X158245D01*
X157844Y324280D01*
X156827Y326040D01*
X156077Y326791D01*
X155505Y327650D01*
X156077Y328509D01*
X156827Y329260D01*
X157844Y331020D01*
X158370Y332984D01*
Y335016D01*
X157844Y336980D01*
X156827Y338740D01*
X156077Y339491D01*
X155505Y340350D01*
X156077Y341209D01*
X156827Y341960D01*
X157844Y343720D01*
X158370Y345684D01*
Y347716D01*
X157844Y349680D01*
X156827Y351440D01*
X155390Y352878D01*
X153630Y353894D01*
X151666Y354420D01*
X149634D01*
X147670Y353894D01*
X145910Y352878D01*
X144473Y351440D01*
X143456Y349680D01*
X142930Y347716D01*
Y345684D01*
X143456Y343720D01*
X144473Y341960D01*
X145223Y341209D01*
X145795Y340350D01*
X145223Y339491D01*
X144473Y338740D01*
X143456Y336980D01*
X142930Y335016D01*
Y332984D01*
X143456Y331020D01*
X144473Y329260D01*
X145223Y328509D01*
X145795Y327650D01*
X145223Y326791D01*
X144473Y326040D01*
X143456Y324280D01*
X142930Y322316D01*
Y320284D01*
X143456Y318320D01*
X144473Y316560D01*
X145223Y315809D01*
X145795Y314950D01*
X145223Y314090D01*
X144473Y313340D01*
X143456Y311580D01*
X142930Y309616D01*
Y307584D01*
X143456Y305620D01*
X144473Y303860D01*
X145223Y303109D01*
X145795Y302250D01*
X145223Y301390D01*
X144473Y300640D01*
X143456Y298880D01*
X142930Y296916D01*
Y294884D01*
X143456Y292920D01*
X144473Y291160D01*
X145910Y289722D01*
X147670Y288706D01*
X149634Y288180D01*
X151666D01*
X153630Y288706D01*
X155390Y289722D01*
X156827Y291160D01*
X157844Y292920D01*
X158370Y294884D01*
Y296916D01*
X157844Y298880D01*
X156827Y300640D01*
X156077Y301390D01*
X155505Y302250D01*
X156077Y303109D01*
X156827Y303860D01*
X157844Y305620D01*
X158245Y307117D01*
X209350D01*
X209350Y307117D01*
X210399Y307551D01*
X349114Y446267D01*
X534806D01*
X535527Y445546D01*
X536483Y445150D01*
X537517D01*
X538473Y445546D01*
X539204Y446277D01*
X539600Y447233D01*
Y448267D01*
X539204Y449223D01*
X538473Y449954D01*
X537517Y450350D01*
X536483D01*
X535527Y449954D01*
X534806Y449233D01*
X348500D01*
X348500Y449233D01*
X347451Y448799D01*
X347451Y448798D01*
X208736Y310083D01*
X158245D01*
X157844Y311580D01*
X156827Y313340D01*
X156077Y314090D01*
X155505Y314950D01*
X156077Y315809D01*
X156827Y316560D01*
X157844Y318320D01*
X158245Y319817D01*
X196300D01*
X196300Y319817D01*
X197349Y320251D01*
X332114Y455017D01*
X505584D01*
X505584Y455017D01*
X506444Y455373D01*
X506983Y455150D01*
X508017D01*
X508973Y455546D01*
X509704Y456277D01*
X510100Y457233D01*
Y458267D01*
X509704Y459223D01*
X508973Y459954D01*
X508017Y460350D01*
D02*
G37*
G36*
X604767Y448350D02*
X603733D01*
X602777Y447954D01*
X602046Y447223D01*
X601650Y446267D01*
Y445233D01*
X602046Y444277D01*
X602777Y443546D01*
X603733Y443150D01*
X604767D01*
X605723Y443546D01*
X606454Y444277D01*
X606850Y445233D01*
Y446267D01*
X606454Y447223D01*
X605723Y447954D01*
X604767Y448350D01*
D02*
G37*
G36*
X520270Y442179D02*
Y438520D01*
X523929D01*
X523273Y440105D01*
X521855Y441523D01*
X520270Y442179D01*
D02*
G37*
G36*
X517730D02*
X516145Y441523D01*
X514727Y440105D01*
X514071Y438520D01*
X517730D01*
Y442179D01*
D02*
G37*
G36*
X523929Y435980D02*
X520270D01*
Y432321D01*
X521855Y432977D01*
X523273Y434395D01*
X523929Y435980D01*
D02*
G37*
G36*
X517730D02*
X514071D01*
X514727Y434395D01*
X516145Y432977D01*
X517730Y432321D01*
Y435980D01*
D02*
G37*
G36*
X495517Y429600D02*
X494483D01*
X493527Y429204D01*
X492796Y428473D01*
X492400Y427517D01*
Y426483D01*
X492796Y425527D01*
X493527Y424796D01*
X494483Y424400D01*
X495517D01*
X496473Y424796D01*
X497204Y425527D01*
X497600Y426483D01*
Y427517D01*
X497204Y428473D01*
X496473Y429204D01*
X495517Y429600D01*
D02*
G37*
G36*
X347267Y419850D02*
X346233D01*
X345277Y419454D01*
X344556Y418733D01*
X335750D01*
X335750Y418733D01*
X334701Y418299D01*
X334701Y418298D01*
X317253Y400850D01*
X316233D01*
X315277Y400454D01*
X314546Y399723D01*
X314150Y398767D01*
Y397747D01*
X304201Y387799D01*
X303767Y386750D01*
X303767Y386750D01*
Y174684D01*
X251816Y122733D01*
X205350D01*
Y123017D01*
X204954Y123973D01*
X204223Y124704D01*
X203267Y125100D01*
X202233D01*
X201277Y124704D01*
X200546Y123973D01*
X200150Y123017D01*
Y121983D01*
X200546Y121027D01*
X201277Y120296D01*
X202233Y119900D01*
X203267D01*
X203473Y119985D01*
X204000Y119767D01*
X204000Y119767D01*
X252430D01*
X252430Y119767D01*
X253479Y120201D01*
X306299Y173021D01*
X306299Y173021D01*
X306733Y174069D01*
X306733Y174070D01*
Y386136D01*
X316247Y395650D01*
X317267D01*
X318223Y396046D01*
X318954Y396777D01*
X319350Y397733D01*
Y398753D01*
X336364Y415767D01*
X344556D01*
X345277Y415046D01*
X346233Y414650D01*
X347267D01*
X348223Y415046D01*
X348954Y415777D01*
X349350Y416733D01*
Y417767D01*
X348954Y418723D01*
X348223Y419454D01*
X347267Y419850D01*
D02*
G37*
G36*
X640517Y414600D02*
X639483D01*
X638527Y414204D01*
X637796Y413473D01*
X637400Y412517D01*
Y411483D01*
X637796Y410527D01*
X638527Y409796D01*
X639483Y409400D01*
X640517D01*
X641473Y409796D01*
X642204Y410527D01*
X642600Y411483D01*
Y412517D01*
X642204Y413473D01*
X641473Y414204D01*
X640517Y414600D01*
D02*
G37*
G36*
X755017Y616850D02*
X753983D01*
X753027Y616454D01*
X752296Y615723D01*
X751900Y614767D01*
Y613733D01*
X752296Y612777D01*
X753017Y612056D01*
Y433364D01*
X732503Y412850D01*
X731483D01*
X730527Y412454D01*
X729796Y411723D01*
X729400Y410767D01*
Y409733D01*
X729796Y408777D01*
X730527Y408046D01*
X731483Y407650D01*
X732517D01*
X733473Y408046D01*
X734204Y408777D01*
X734600Y409733D01*
Y410753D01*
X755548Y431701D01*
X755549Y431701D01*
X755983Y432750D01*
Y612056D01*
X756704Y612777D01*
X757100Y613733D01*
Y614767D01*
X756704Y615723D01*
X755973Y616454D01*
X755017Y616850D01*
D02*
G37*
G36*
X754517Y639100D02*
X753483D01*
X752527Y638704D01*
X751796Y637973D01*
X751400Y637017D01*
Y635997D01*
X724201Y608799D01*
X723767Y607750D01*
X723767Y607750D01*
Y406102D01*
X723148Y405483D01*
X711694D01*
X710973Y406204D01*
X710017Y406600D01*
X708983D01*
X708027Y406204D01*
X707296Y405473D01*
X706900Y404517D01*
Y403483D01*
X707296Y402527D01*
X708027Y401796D01*
X708983Y401400D01*
X710017D01*
X710973Y401796D01*
X711694Y402517D01*
X723762D01*
X723762Y402517D01*
X724811Y402951D01*
X726299Y404439D01*
X726299Y404439D01*
X726733Y405488D01*
Y607136D01*
X753497Y633900D01*
X754517D01*
X755473Y634296D01*
X756204Y635027D01*
X756600Y635983D01*
Y637017D01*
X756204Y637973D01*
X755473Y638704D01*
X754517Y639100D01*
D02*
G37*
G36*
X544480Y395429D02*
X542895Y394773D01*
X541477Y393355D01*
X540821Y391770D01*
X544480D01*
Y395429D01*
D02*
G37*
G36*
X555020Y395179D02*
Y391520D01*
X558679D01*
X558023Y393105D01*
X556605Y394523D01*
X555020Y395179D01*
D02*
G37*
G36*
X544480Y389230D02*
X540821D01*
X541477Y387645D01*
X542895Y386227D01*
X544480Y385571D01*
Y389230D01*
D02*
G37*
G36*
X558679Y388980D02*
X555020D01*
Y385321D01*
X556605Y385977D01*
X558023Y387395D01*
X558679Y388980D01*
D02*
G37*
G36*
X547020Y395429D02*
Y390500D01*
Y385571D01*
X548605Y386227D01*
X549625Y387247D01*
X550895Y385977D01*
X552480Y385321D01*
Y390250D01*
Y395179D01*
X550895Y394523D01*
X549875Y393503D01*
X548605Y394773D01*
X547020Y395429D01*
D02*
G37*
G36*
X630267Y385350D02*
X629233D01*
X628277Y384954D01*
X627546Y384223D01*
X627150Y383267D01*
Y382233D01*
X627546Y381277D01*
X628277Y380546D01*
X629233Y380150D01*
X630267D01*
X631223Y380546D01*
X631954Y381277D01*
X632350Y382233D01*
Y383267D01*
X631954Y384223D01*
X631223Y384954D01*
X630267Y385350D01*
D02*
G37*
G36*
X114402Y407120D02*
X110698D01*
X107119Y406161D01*
X103911Y404309D01*
X101291Y401689D01*
X99439Y398481D01*
X98480Y394902D01*
Y391198D01*
X99439Y387619D01*
X101291Y384411D01*
X103911Y381791D01*
X107119Y379939D01*
X110698Y378980D01*
X114402D01*
X117981Y379939D01*
X121189Y381791D01*
X123809Y384411D01*
X125661Y387619D01*
X126620Y391198D01*
Y394902D01*
X125661Y398481D01*
X123809Y401689D01*
X121189Y404309D01*
X117981Y406161D01*
X114402Y407120D01*
D02*
G37*
G36*
X717517Y377869D02*
X716483D01*
X715527Y377473D01*
X714796Y376742D01*
X714400Y375786D01*
Y374752D01*
X714796Y373796D01*
X715527Y373065D01*
X716483Y372669D01*
X717517D01*
X718473Y373065D01*
X719204Y373796D01*
X719600Y374752D01*
Y375786D01*
X719204Y376742D01*
X718473Y377473D01*
X717517Y377869D01*
D02*
G37*
G36*
X494517Y376100D02*
X493483D01*
X492527Y375704D01*
X491796Y374973D01*
X491400Y374017D01*
Y372983D01*
X491796Y372027D01*
X492527Y371296D01*
X493483Y370900D01*
X494517D01*
X495473Y371296D01*
X496204Y372027D01*
X496600Y372983D01*
Y374017D01*
X496204Y374973D01*
X495473Y375704D01*
X494517Y376100D01*
D02*
G37*
G36*
X639770Y369929D02*
Y366270D01*
X643429D01*
X642773Y367855D01*
X641355Y369273D01*
X639770Y369929D01*
D02*
G37*
G36*
X637230D02*
X635645Y369273D01*
X634227Y367855D01*
X633571Y366270D01*
X637230D01*
Y369929D01*
D02*
G37*
G36*
X328517Y400850D02*
X327483D01*
X326527Y400454D01*
X325796Y399723D01*
X325400Y398767D01*
Y397733D01*
X325796Y396777D01*
X326517Y396056D01*
Y365520D01*
X325344Y365034D01*
X325105Y365273D01*
X323520Y365929D01*
Y361000D01*
Y356071D01*
X325105Y356727D01*
X325344Y356966D01*
X326517Y356480D01*
Y175131D01*
X266869Y115483D01*
X235944D01*
X235223Y116204D01*
X234267Y116600D01*
X233233D01*
X232277Y116204D01*
X231546Y115473D01*
X231150Y114517D01*
Y113483D01*
X231546Y112527D01*
X232277Y111796D01*
X233233Y111400D01*
X234267D01*
X235223Y111796D01*
X235944Y112517D01*
X267484D01*
X267484Y112517D01*
X268532Y112951D01*
X329049Y173468D01*
X329483Y174517D01*
X329483Y174517D01*
Y356343D01*
X330753Y356870D01*
X331145Y356477D01*
X332730Y355821D01*
Y360750D01*
Y365679D01*
X331145Y365023D01*
X330753Y364631D01*
X329483Y365157D01*
Y396056D01*
X330204Y396777D01*
X330600Y397733D01*
Y398767D01*
X330204Y399723D01*
X329473Y400454D01*
X328517Y400850D01*
D02*
G37*
G36*
X320980Y365929D02*
X319395Y365273D01*
X317977Y363855D01*
X317321Y362270D01*
X320980D01*
Y365929D01*
D02*
G37*
G36*
X335270Y365679D02*
Y362020D01*
X338929D01*
X338273Y363605D01*
X336855Y365023D01*
X335270Y365679D01*
D02*
G37*
G36*
X643429Y363730D02*
X639770D01*
Y360071D01*
X641355Y360727D01*
X642773Y362145D01*
X643429Y363730D01*
D02*
G37*
G36*
X637230D02*
X633571D01*
X634227Y362145D01*
X635645Y360727D01*
X637230Y360071D01*
Y363730D01*
D02*
G37*
G36*
X320980Y359730D02*
X317321D01*
X317977Y358145D01*
X319395Y356727D01*
X320980Y356071D01*
Y359730D01*
D02*
G37*
G36*
X338929Y359480D02*
X335270D01*
Y355821D01*
X336855Y356477D01*
X338273Y357895D01*
X338929Y359480D01*
D02*
G37*
G36*
X369270Y356929D02*
Y353270D01*
X372929D01*
X372273Y354855D01*
X370855Y356273D01*
X369270Y356929D01*
D02*
G37*
G36*
X366730D02*
X365145Y356273D01*
X363727Y354855D01*
X363071Y353270D01*
X366730D01*
Y356929D01*
D02*
G37*
G36*
X519520Y351679D02*
Y348020D01*
X523179D01*
X522523Y349605D01*
X521105Y351023D01*
X519520Y351679D01*
D02*
G37*
G36*
X516980D02*
X515395Y351023D01*
X513977Y349605D01*
X513321Y348020D01*
X516980D01*
Y351679D01*
D02*
G37*
G36*
X372929Y350730D02*
X369270D01*
Y347071D01*
X370855Y347727D01*
X372273Y349145D01*
X372929Y350730D01*
D02*
G37*
G36*
X366730D02*
X363071D01*
X363727Y349145D01*
X365145Y347727D01*
X366730Y347071D01*
Y350730D01*
D02*
G37*
G36*
X523179Y345480D02*
X519520D01*
Y341821D01*
X521105Y342477D01*
X522523Y343895D01*
X523179Y345480D01*
D02*
G37*
G36*
X516980D02*
X513321D01*
X513977Y343895D01*
X515395Y342477D01*
X516980Y341821D01*
Y345480D01*
D02*
G37*
G36*
X645267Y482850D02*
X644233D01*
X643277Y482454D01*
X642546Y481723D01*
X642150Y480767D01*
Y479733D01*
X642546Y478777D01*
X643267Y478056D01*
Y463614D01*
X543636Y363983D01*
X496194D01*
X495473Y364704D01*
X494517Y365100D01*
X493483D01*
X492527Y364704D01*
X491796Y363973D01*
X491400Y363017D01*
Y361983D01*
X491796Y361027D01*
X492527Y360296D01*
X493483Y359900D01*
X494517D01*
X495473Y360296D01*
X496194Y361017D01*
X544250D01*
X544250Y361017D01*
X545299Y361451D01*
X580037Y396190D01*
X581210Y395704D01*
Y395498D01*
X581977Y393645D01*
X583395Y392227D01*
X585247Y391460D01*
X585817D01*
X586343Y390190D01*
X536136Y339983D01*
X496194D01*
X495723Y340454D01*
X494767Y340850D01*
X493733D01*
X492777Y340454D01*
X492046Y339723D01*
X491650Y338767D01*
Y337733D01*
X492046Y336777D01*
X492777Y336046D01*
X493733Y335650D01*
X494767D01*
X495723Y336046D01*
X496454Y336777D01*
X496553Y337017D01*
X536750D01*
X536750Y337017D01*
X537799Y337451D01*
X651548Y451201D01*
X651549Y451201D01*
X651983Y452250D01*
X651983Y452250D01*
Y473306D01*
X652704Y474027D01*
X653100Y474983D01*
Y476017D01*
X652704Y476973D01*
X651973Y477704D01*
X651017Y478100D01*
X649983D01*
X649027Y477704D01*
X648296Y476973D01*
X647900Y476017D01*
Y474983D01*
X648296Y474027D01*
X649017Y473306D01*
Y452864D01*
X642609Y446456D01*
X641350Y446993D01*
Y447517D01*
X640954Y448473D01*
X640223Y449204D01*
X639267Y449600D01*
X638233D01*
X637277Y449204D01*
X636546Y448473D01*
X636150Y447517D01*
Y446483D01*
X636546Y445527D01*
X637277Y444796D01*
X638233Y444400D01*
X638757D01*
X639294Y443141D01*
X625184Y429031D01*
X624131Y429713D01*
X624100Y429743D01*
Y430767D01*
X623704Y431723D01*
X622973Y432454D01*
X622017Y432850D01*
X620983D01*
X620027Y432454D01*
X619296Y431723D01*
X618900Y430767D01*
Y429733D01*
X619296Y428777D01*
X620027Y428046D01*
X620983Y427650D01*
X622007D01*
X622037Y427620D01*
X622719Y426566D01*
X609007Y412854D01*
X607930Y413574D01*
X608100Y413983D01*
Y415017D01*
X607704Y415973D01*
X606973Y416704D01*
X606017Y417100D01*
X604983D01*
X604027Y416704D01*
X603296Y415973D01*
X602900Y415017D01*
Y413983D01*
X603296Y413027D01*
X604027Y412296D01*
X604983Y411900D01*
X606017D01*
X606426Y412070D01*
X607146Y410993D01*
X592560Y396407D01*
X591290Y396933D01*
Y397503D01*
X590523Y399355D01*
X589105Y400773D01*
X587253Y401540D01*
X587047D01*
X586560Y402713D01*
X645798Y461951D01*
X645799Y461951D01*
X646233Y463000D01*
Y478056D01*
X646954Y478777D01*
X647350Y479733D01*
Y480767D01*
X646954Y481723D01*
X646223Y482454D01*
X645267Y482850D01*
D02*
G37*
G36*
X619517Y388350D02*
X618483D01*
X617527Y387954D01*
X616796Y387223D01*
X616400Y386267D01*
Y385247D01*
X561964Y330811D01*
X561267Y331100D01*
X560233D01*
X559277Y330704D01*
X558546Y329973D01*
X558150Y329017D01*
Y327983D01*
X558546Y327027D01*
X559277Y326296D01*
X560233Y325900D01*
X561267D01*
X562223Y326296D01*
X562954Y327027D01*
X563350Y327983D01*
Y328003D01*
X618497Y383150D01*
X619517D01*
X620473Y383546D01*
X621204Y384277D01*
X621600Y385233D01*
Y386267D01*
X621204Y387223D01*
X620473Y387954D01*
X619517Y388350D01*
D02*
G37*
G36*
X624017Y381350D02*
X622983D01*
X622027Y380954D01*
X621296Y380223D01*
X620900Y379267D01*
Y378233D01*
X621296Y377277D01*
X622017Y376556D01*
Y353250D01*
X622017Y353250D01*
X622451Y352201D01*
X645951Y328702D01*
X645951Y328701D01*
X647000Y328267D01*
X647000Y328267D01*
X664806D01*
X665527Y327546D01*
X666483Y327150D01*
X667517D01*
X668473Y327546D01*
X669204Y328277D01*
X669600Y329233D01*
Y330267D01*
X669204Y331223D01*
X668473Y331954D01*
X667517Y332350D01*
X666483D01*
X665527Y331954D01*
X664806Y331233D01*
X647614D01*
X624983Y353864D01*
Y376556D01*
X625704Y377277D01*
X626100Y378233D01*
Y379267D01*
X625704Y380223D01*
X624973Y380954D01*
X624017Y381350D01*
D02*
G37*
G36*
X126266Y348070D02*
X124234D01*
X122270Y347544D01*
X120510Y346527D01*
X119073Y345090D01*
X118056Y343330D01*
X117530Y341366D01*
Y339334D01*
X118056Y337370D01*
X119073Y335610D01*
X119823Y334860D01*
X120395Y334000D01*
X119823Y333140D01*
X119073Y332390D01*
X118056Y330630D01*
X117530Y328666D01*
Y326634D01*
X118056Y324670D01*
X119073Y322910D01*
X119823Y322160D01*
X120395Y321300D01*
X119823Y320440D01*
X119073Y319690D01*
X118056Y317930D01*
X117530Y315966D01*
Y313934D01*
X118056Y311970D01*
X119073Y310210D01*
X119823Y309459D01*
X120395Y308600D01*
X119823Y307740D01*
X119073Y306990D01*
X118056Y305230D01*
X117530Y303266D01*
Y301234D01*
X118056Y299270D01*
X119073Y297510D01*
X120510Y296073D01*
X122270Y295056D01*
X124234Y294530D01*
X126266D01*
X128230Y295056D01*
X129990Y296073D01*
X131427Y297510D01*
X132444Y299270D01*
X132970Y301234D01*
Y303266D01*
X132444Y305230D01*
X131427Y306990D01*
X130677Y307740D01*
X130105Y308600D01*
X130677Y309459D01*
X131427Y310210D01*
X132444Y311970D01*
X132970Y313934D01*
Y315966D01*
X132444Y317930D01*
X131427Y319690D01*
X130677Y320440D01*
X130105Y321300D01*
X130677Y322160D01*
X131427Y322910D01*
X132444Y324670D01*
X132970Y326634D01*
Y328666D01*
X132444Y330630D01*
X131427Y332390D01*
X130677Y333140D01*
X130105Y334000D01*
X130677Y334860D01*
X131427Y335610D01*
X132444Y337370D01*
X132970Y339334D01*
Y341366D01*
X132444Y343330D01*
X131427Y345090D01*
X129990Y346527D01*
X128230Y347544D01*
X126266Y348070D01*
D02*
G37*
G36*
X398520Y290929D02*
Y287270D01*
X402179D01*
X401523Y288855D01*
X400105Y290273D01*
X398520Y290929D01*
D02*
G37*
G36*
X395980D02*
X394395Y290273D01*
X392977Y288855D01*
X392321Y287270D01*
X395980D01*
Y290929D01*
D02*
G37*
G36*
X402179Y284730D02*
X398520D01*
Y281071D01*
X400105Y281727D01*
X401523Y283145D01*
X402179Y284730D01*
D02*
G37*
G36*
X395980D02*
X392321D01*
X392977Y283145D01*
X394395Y281727D01*
X395980Y281071D01*
Y284730D01*
D02*
G37*
G36*
X667267Y264350D02*
X666233D01*
X665277Y263954D01*
X664556Y263233D01*
X542444D01*
X541723Y263954D01*
X540767Y264350D01*
X539733D01*
X538777Y263954D01*
X538046Y263223D01*
X537650Y262267D01*
Y261233D01*
X538046Y260277D01*
X538777Y259546D01*
X539733Y259150D01*
X540767D01*
X541723Y259546D01*
X542444Y260267D01*
X664556D01*
X665277Y259546D01*
X666233Y259150D01*
X667267D01*
X668223Y259546D01*
X668954Y260277D01*
X669350Y261233D01*
Y262267D01*
X668954Y263223D01*
X668223Y263954D01*
X667267Y264350D01*
D02*
G37*
G36*
X754017Y661350D02*
X752983D01*
X752027Y660954D01*
X751296Y660223D01*
X750900Y659267D01*
Y658247D01*
X695451Y602799D01*
X695017Y601750D01*
X695017Y601750D01*
Y430614D01*
X685003Y420600D01*
X683983D01*
X683027Y420204D01*
X682296Y419473D01*
X681900Y418517D01*
Y417483D01*
X682296Y416527D01*
X683027Y415796D01*
X683983Y415400D01*
X685017D01*
X685973Y415796D01*
X686694Y416517D01*
X699136D01*
X701767Y413886D01*
Y266832D01*
X698785Y263850D01*
X698233D01*
X697277Y263454D01*
X696546Y262723D01*
X696150Y261767D01*
Y260733D01*
X696546Y259777D01*
X697277Y259046D01*
X698233Y258650D01*
X699267D01*
X700223Y259046D01*
X700954Y259777D01*
X701350Y260733D01*
Y261767D01*
X701217Y262088D01*
X704298Y265169D01*
X704299Y265169D01*
X704733Y266218D01*
Y414500D01*
X704733Y414500D01*
X704299Y415549D01*
X704298Y415549D01*
X700799Y419049D01*
X699750Y419483D01*
X699750Y419483D01*
X689739D01*
X689253Y420656D01*
X697549Y428951D01*
X697549Y428951D01*
X697983Y430000D01*
Y601136D01*
X752997Y656150D01*
X754017D01*
X754973Y656546D01*
X755704Y657277D01*
X756100Y658233D01*
Y659267D01*
X755704Y660223D01*
X754973Y660954D01*
X754017Y661350D01*
D02*
G37*
G36*
X398770Y255429D02*
Y251770D01*
X402429D01*
X401773Y253355D01*
X400355Y254773D01*
X398770Y255429D01*
D02*
G37*
G36*
X396230D02*
X394645Y254773D01*
X393227Y253355D01*
X392571Y251770D01*
X396230D01*
Y255429D01*
D02*
G37*
G36*
X402429Y249230D02*
X398770D01*
Y245571D01*
X400355Y246227D01*
X401773Y247645D01*
X402429Y249230D01*
D02*
G37*
G36*
X396230D02*
X392571D01*
X393227Y247645D01*
X394645Y246227D01*
X396230Y245571D01*
Y249230D01*
D02*
G37*
G36*
X675017Y394100D02*
X673983D01*
X673027Y393704D01*
X672296Y392973D01*
X671900Y392017D01*
Y390983D01*
X672296Y390027D01*
X673017Y389306D01*
Y252114D01*
X664734Y243831D01*
X664333Y244139D01*
X662484Y244904D01*
X660500Y245166D01*
X658516Y244904D01*
X656667Y244139D01*
X655080Y242920D01*
X653861Y241333D01*
X653096Y239484D01*
X652834Y237500D01*
Y232500D01*
X653096Y230516D01*
X653861Y228667D01*
X655080Y227080D01*
X656667Y225861D01*
X658516Y225096D01*
X660500Y224834D01*
X662484Y225096D01*
X664333Y225861D01*
X665920Y227080D01*
X667139Y228667D01*
X667904Y230516D01*
X668166Y232500D01*
Y237500D01*
X667904Y239484D01*
X667139Y241333D01*
X666831Y241734D01*
X675548Y250451D01*
X675549Y250451D01*
X675983Y251500D01*
Y389306D01*
X676704Y390027D01*
X677100Y390983D01*
Y392017D01*
X676704Y392973D01*
X675973Y393704D01*
X675017Y394100D01*
D02*
G37*
G36*
X694517Y413600D02*
X693483D01*
X692527Y413204D01*
X691796Y412473D01*
X691400Y411517D01*
Y410483D01*
X691460Y410339D01*
X689451Y408331D01*
X689017Y407282D01*
X689017Y407282D01*
Y240116D01*
X687747Y239864D01*
X687139Y241333D01*
X685920Y242920D01*
X684333Y244139D01*
X683603Y244441D01*
Y400256D01*
X684497Y401150D01*
X685517D01*
X686473Y401546D01*
X687204Y402277D01*
X687600Y403233D01*
Y404267D01*
X687204Y405223D01*
X686473Y405954D01*
X685517Y406350D01*
X684483D01*
X683527Y405954D01*
X682796Y405223D01*
X682400Y404267D01*
Y403247D01*
X681071Y401919D01*
X680637Y400870D01*
X680637Y400870D01*
Y245286D01*
X680500Y245166D01*
X678516Y244904D01*
X676667Y244139D01*
X675080Y242920D01*
X673861Y241333D01*
X673096Y239484D01*
X672834Y237500D01*
Y232500D01*
X673096Y230516D01*
X673861Y228667D01*
X675080Y227080D01*
X676667Y225861D01*
X678516Y225096D01*
X680500Y224834D01*
X682484Y225096D01*
X684333Y225861D01*
X685920Y227080D01*
X687139Y228667D01*
X687747Y230136D01*
X689017Y229884D01*
Y102114D01*
X617234Y30331D01*
X616833Y30639D01*
X614984Y31404D01*
X613000Y31666D01*
X611016Y31404D01*
X609167Y30639D01*
X607580Y29420D01*
X606361Y27833D01*
X605596Y25984D01*
X605335Y24000D01*
Y19000D01*
X605596Y17016D01*
X606361Y15167D01*
X607580Y13580D01*
X609167Y12361D01*
X611016Y11596D01*
X613000Y11334D01*
X614984Y11596D01*
X616833Y12361D01*
X618420Y13580D01*
X619639Y15167D01*
X620404Y17016D01*
X620666Y19000D01*
Y24000D01*
X620404Y25984D01*
X619639Y27833D01*
X619331Y28234D01*
X691549Y100451D01*
X691983Y101500D01*
Y229884D01*
X693253Y230136D01*
X693861Y228667D01*
X695080Y227080D01*
X696667Y225861D01*
X698516Y225096D01*
X700500Y224834D01*
X702484Y225096D01*
X704333Y225861D01*
X705920Y227080D01*
X707139Y228667D01*
X707904Y230516D01*
X708166Y232500D01*
Y237500D01*
X707904Y239484D01*
X707139Y241333D01*
X705920Y242920D01*
X704333Y244139D01*
X702484Y244904D01*
X700500Y245166D01*
X698516Y244904D01*
X696667Y244139D01*
X695080Y242920D01*
X693861Y241333D01*
X693253Y239864D01*
X691983Y240116D01*
Y406668D01*
X693715Y408400D01*
X694517D01*
X695473Y408796D01*
X696204Y409527D01*
X696600Y410483D01*
Y411517D01*
X696204Y412473D01*
X695473Y413204D01*
X694517Y413600D01*
D02*
G37*
G36*
X601770Y247459D02*
Y236270D01*
X610627D01*
Y237500D01*
X610282Y240121D01*
X609270Y242563D01*
X607661Y244661D01*
X605563Y246270D01*
X603121Y247282D01*
X601770Y247459D01*
D02*
G37*
G36*
X599230Y247460D02*
X597879Y247282D01*
X595437Y246270D01*
X593340Y244661D01*
X591730Y242563D01*
X590718Y240121D01*
X590373Y237500D01*
Y236270D01*
X599230D01*
Y247460D01*
D02*
G37*
G36*
X114402Y263620D02*
X110698D01*
X107119Y262661D01*
X103911Y260809D01*
X101291Y258189D01*
X99439Y254981D01*
X98480Y251402D01*
Y247698D01*
X99439Y244119D01*
X101291Y240911D01*
X103911Y238291D01*
X107119Y236439D01*
X110698Y235480D01*
X114402D01*
X117981Y236439D01*
X121189Y238291D01*
X123809Y240911D01*
X125661Y244119D01*
X126620Y247698D01*
Y251402D01*
X125661Y254981D01*
X123809Y258189D01*
X121189Y260809D01*
X117981Y262661D01*
X114402Y263620D01*
D02*
G37*
G36*
X720500Y245166D02*
X718516Y244904D01*
X716667Y244139D01*
X715080Y242920D01*
X713861Y241333D01*
X713096Y239484D01*
X712834Y237500D01*
Y232500D01*
X713096Y230516D01*
X713861Y228667D01*
X715080Y227080D01*
X716667Y225861D01*
X718516Y225096D01*
X720500Y224834D01*
X722484Y225096D01*
X724333Y225861D01*
X725920Y227080D01*
X727139Y228667D01*
X727904Y230516D01*
X728166Y232500D01*
Y237500D01*
X727904Y239484D01*
X727139Y241333D01*
X725920Y242920D01*
X724333Y244139D01*
X722484Y244904D01*
X720500Y245166D01*
D02*
G37*
G36*
X640500D02*
X638516Y244904D01*
X636667Y244139D01*
X635080Y242920D01*
X633862Y241333D01*
X633096Y239484D01*
X632835Y237500D01*
Y232500D01*
X633096Y230516D01*
X633862Y228667D01*
X635080Y227080D01*
X636667Y225861D01*
X638516Y225096D01*
X640500Y224834D01*
X642484Y225096D01*
X644333Y225861D01*
X645920Y227080D01*
X647139Y228667D01*
X647904Y230516D01*
X648166Y232500D01*
Y237500D01*
X647904Y239484D01*
X647139Y241333D01*
X645920Y242920D01*
X644333Y244139D01*
X642484Y244904D01*
X640500Y245166D01*
D02*
G37*
G36*
X620500D02*
X618516Y244904D01*
X616667Y244139D01*
X615080Y242920D01*
X613862Y241333D01*
X613096Y239484D01*
X612835Y237500D01*
Y232500D01*
X613096Y230516D01*
X613862Y228667D01*
X615080Y227080D01*
X616667Y225861D01*
X618516Y225096D01*
X620500Y224834D01*
X622484Y225096D01*
X624333Y225861D01*
X625920Y227080D01*
X627139Y228667D01*
X627904Y230516D01*
X628166Y232500D01*
Y237500D01*
X627904Y239484D01*
X627139Y241333D01*
X625920Y242920D01*
X624333Y244139D01*
X622484Y244904D01*
X620500Y245166D01*
D02*
G37*
G36*
X580500D02*
X578516Y244904D01*
X576667Y244139D01*
X575080Y242920D01*
X573862Y241333D01*
X573096Y239484D01*
X572835Y237500D01*
Y232500D01*
X573096Y230516D01*
X573862Y228667D01*
X575080Y227080D01*
X576667Y225861D01*
X578516Y225096D01*
X580500Y224834D01*
X582484Y225096D01*
X584333Y225861D01*
X585920Y227080D01*
X587139Y228667D01*
X587905Y230516D01*
X588166Y232500D01*
Y237500D01*
X587905Y239484D01*
X587139Y241333D01*
X585920Y242920D01*
X584333Y244139D01*
X582484Y244904D01*
X580500Y245166D01*
D02*
G37*
G36*
X560500D02*
X558516Y244904D01*
X556667Y244139D01*
X555080Y242920D01*
X553862Y241333D01*
X553096Y239484D01*
X552835Y237500D01*
Y232500D01*
X553096Y230516D01*
X553862Y228667D01*
X555080Y227080D01*
X556667Y225861D01*
X558516Y225096D01*
X560500Y224834D01*
X562484Y225096D01*
X564333Y225861D01*
X565920Y227080D01*
X567139Y228667D01*
X567905Y230516D01*
X568166Y232500D01*
Y237500D01*
X567905Y239484D01*
X567139Y241333D01*
X565920Y242920D01*
X564333Y244139D01*
X562484Y244904D01*
X560500Y245166D01*
D02*
G37*
G36*
X540500D02*
X538516Y244904D01*
X536667Y244139D01*
X535080Y242920D01*
X533862Y241333D01*
X533096Y239484D01*
X532835Y237500D01*
Y232500D01*
X533096Y230516D01*
X533862Y228667D01*
X535080Y227080D01*
X536667Y225861D01*
X538516Y225096D01*
X540500Y224834D01*
X542484Y225096D01*
X544333Y225861D01*
X545920Y227080D01*
X547139Y228667D01*
X547905Y230516D01*
X548166Y232500D01*
Y237500D01*
X547905Y239484D01*
X547139Y241333D01*
X545920Y242920D01*
X544333Y244139D01*
X542484Y244904D01*
X540500Y245166D01*
D02*
G37*
G36*
X610627Y233730D02*
X601770D01*
Y222541D01*
X603121Y222718D01*
X605563Y223730D01*
X607661Y225339D01*
X609270Y227437D01*
X610282Y229879D01*
X610627Y232500D01*
Y233730D01*
D02*
G37*
G36*
X599230D02*
X590373D01*
Y232500D01*
X590718Y229879D01*
X591730Y227437D01*
X593340Y225339D01*
X595437Y223730D01*
X597879Y222718D01*
X599230Y222541D01*
Y233730D01*
D02*
G37*
G36*
X125020Y212679D02*
Y209020D01*
X128679D01*
X128023Y210605D01*
X126605Y212023D01*
X125020Y212679D01*
D02*
G37*
G36*
X122480D02*
X120895Y212023D01*
X119477Y210605D01*
X118821Y209020D01*
X122480D01*
Y212679D01*
D02*
G37*
G36*
X128679Y206480D02*
X118821D01*
X119477Y204895D01*
X120747Y203625D01*
X119477Y202355D01*
X118821Y200770D01*
X128679D01*
X128023Y202355D01*
X126753Y203625D01*
X128023Y204895D01*
X128679Y206480D01*
D02*
G37*
G36*
Y198230D02*
X118821D01*
X119477Y196645D01*
X120895Y195227D01*
X122747Y194460D01*
X124036D01*
X124562Y193190D01*
X123727Y192355D01*
X123071Y190770D01*
X132929D01*
X132273Y192355D01*
X130855Y193773D01*
X129003Y194540D01*
X127714D01*
X127188Y195810D01*
X128023Y196645D01*
X128679Y198230D01*
D02*
G37*
G36*
X181270Y189179D02*
Y185520D01*
X184929D01*
X184273Y187105D01*
X182855Y188523D01*
X181270Y189179D01*
D02*
G37*
G36*
X178730D02*
X177145Y188523D01*
X175727Y187105D01*
X175071Y185520D01*
X178730D01*
Y189179D01*
D02*
G37*
G36*
X132929Y188230D02*
X123071D01*
X123727Y186645D01*
X124622Y185750D01*
X123477Y184605D01*
X122821Y183020D01*
X132679D01*
X132023Y184605D01*
X131128Y185500D01*
X132273Y186645D01*
X132929Y188230D01*
D02*
G37*
G36*
X184929Y182980D02*
X181270D01*
Y179321D01*
X182855Y179977D01*
X184273Y181395D01*
X184929Y182980D01*
D02*
G37*
G36*
X178730D02*
X175071D01*
X175727Y181395D01*
X177145Y179977D01*
X178730Y179321D01*
Y182980D01*
D02*
G37*
G36*
X132679Y180480D02*
X129020D01*
Y176821D01*
X130605Y177477D01*
X132023Y178895D01*
X132679Y180480D01*
D02*
G37*
G36*
X126480D02*
X122821D01*
X123477Y178895D01*
X124895Y177477D01*
X126480Y176821D01*
Y180480D01*
D02*
G37*
G36*
X130033Y148450D02*
X127467D01*
X125096Y147468D01*
X123282Y145654D01*
X122300Y143283D01*
Y140717D01*
X123282Y138346D01*
X125096Y136532D01*
X127467Y135550D01*
X130033D01*
X132404Y136532D01*
X134218Y138346D01*
X135200Y140717D01*
Y143283D01*
X134218Y145654D01*
X132404Y147468D01*
X130033Y148450D01*
D02*
G37*
G36*
X150267Y130100D02*
X149233D01*
X148277Y129704D01*
X147546Y128973D01*
X147150Y128017D01*
Y126983D01*
X147546Y126027D01*
X148277Y125296D01*
X149233Y124900D01*
X150267D01*
X151223Y125296D01*
X151944Y126017D01*
X153386D01*
X162262Y117141D01*
X161652Y115955D01*
X158065D01*
X157954Y116223D01*
X157223Y116954D01*
X156267Y117350D01*
X155233D01*
X154277Y116954D01*
X153546Y116223D01*
X153150Y115267D01*
Y114233D01*
X153327Y113807D01*
X152660Y112596D01*
X152583Y112537D01*
X137303D01*
X136312Y112339D01*
X135472Y111778D01*
X134910Y110938D01*
X134713Y109947D01*
Y86053D01*
X134910Y85062D01*
X135472Y84222D01*
X136312Y83660D01*
X137303Y83463D01*
X141018D01*
X141650Y82517D01*
Y81483D01*
X142046Y80527D01*
X142777Y79796D01*
X143733Y79400D01*
X144767D01*
X145723Y79796D01*
X146454Y80527D01*
X146850Y81483D01*
Y82517D01*
X147482Y83463D01*
X161197D01*
X162188Y83660D01*
X163028Y84222D01*
X163589Y85062D01*
X163787Y86053D01*
Y97668D01*
X164733Y98300D01*
X165767D01*
X166723Y98696D01*
X167454Y99427D01*
X167850Y100383D01*
Y101417D01*
X167454Y102373D01*
X166733Y103094D01*
Y110874D01*
X167919Y111483D01*
X202900Y76503D01*
Y75483D01*
X203296Y74527D01*
X204027Y73796D01*
X204983Y73400D01*
X206003D01*
X218748Y60655D01*
Y54107D01*
X218400Y53267D01*
Y52233D01*
X218796Y51277D01*
X219527Y50546D01*
X220483Y50150D01*
X221517D01*
X222473Y50546D01*
X223204Y51277D01*
X223600Y52233D01*
Y53267D01*
X223204Y54223D01*
X222473Y54954D01*
X221714Y55269D01*
Y61269D01*
X221714Y61269D01*
X221279Y62318D01*
X221279Y62318D01*
X208100Y75497D01*
Y76517D01*
X207704Y77473D01*
X206973Y78204D01*
X206017Y78600D01*
X204997D01*
X155049Y128549D01*
X154000Y128983D01*
X154000Y128983D01*
X151944D01*
X151223Y129704D01*
X150267Y130100D01*
D02*
G37*
G36*
X257270Y104929D02*
Y101270D01*
X260929D01*
X260273Y102855D01*
X258855Y104273D01*
X257270Y104929D01*
D02*
G37*
G36*
X254730D02*
X253145Y104273D01*
X251727Y102855D01*
X251071Y101270D01*
X254730D01*
Y104929D01*
D02*
G37*
G36*
X260929Y98730D02*
X257270D01*
Y95071D01*
X258855Y95727D01*
X260273Y97145D01*
X260929Y98730D01*
D02*
G37*
G36*
X254730D02*
X251071D01*
X251727Y97145D01*
X253145Y95727D01*
X254730Y95071D01*
Y98730D01*
D02*
G37*
G36*
X184517Y115850D02*
X183483D01*
X182527Y115454D01*
X181796Y114723D01*
X181400Y113767D01*
Y112733D01*
X181796Y111777D01*
X182527Y111046D01*
X183483Y110650D01*
X184517D01*
X185473Y111046D01*
X186194Y111767D01*
X211136D01*
X218267Y104636D01*
Y86194D01*
X217546Y85473D01*
X217150Y84517D01*
Y83483D01*
X217546Y82527D01*
X218277Y81796D01*
X219233Y81400D01*
X220267D01*
X221223Y81796D01*
X221954Y82527D01*
X222350Y83483D01*
Y84517D01*
X221954Y85473D01*
X221233Y86194D01*
Y105250D01*
X221233Y105250D01*
X220799Y106299D01*
X220798Y106299D01*
X212799Y114299D01*
X211750Y114733D01*
X211750Y114733D01*
X186194D01*
X185473Y115454D01*
X184517Y115850D01*
D02*
G37*
G36*
X155367Y76450D02*
X154333D01*
X153377Y76054D01*
X152646Y75323D01*
X152250Y74367D01*
Y73333D01*
X152646Y72377D01*
X153377Y71646D01*
X154333Y71250D01*
X155367D01*
X156323Y71646D01*
X157054Y72377D01*
X157450Y73333D01*
Y74367D01*
X157054Y75323D01*
X156323Y76054D01*
X155367Y76450D01*
D02*
G37*
G36*
X50017Y41100D02*
X48983D01*
X48027Y40704D01*
X47296Y39973D01*
X46900Y39017D01*
Y37983D01*
X47296Y37027D01*
X48027Y36296D01*
X48983Y35900D01*
X50017D01*
X50973Y36296D01*
X51704Y37027D01*
X52100Y37983D01*
Y39017D01*
X51704Y39973D01*
X50973Y40704D01*
X50017Y41100D01*
D02*
G37*
G36*
X16017Y30600D02*
X14983D01*
X14027Y30204D01*
X13296Y29473D01*
X12900Y28517D01*
Y27483D01*
X13296Y26527D01*
X14027Y25796D01*
X14983Y25400D01*
X16017D01*
X16973Y25796D01*
X17704Y26527D01*
X18100Y27483D01*
Y28517D01*
X17704Y29473D01*
X16973Y30204D01*
X16017Y30600D01*
D02*
G37*
G36*
X554270Y33959D02*
Y22770D01*
X563127D01*
Y24000D01*
X562782Y26621D01*
X561770Y29063D01*
X560161Y31161D01*
X558063Y32770D01*
X555621Y33782D01*
X554270Y33959D01*
D02*
G37*
G36*
X551730Y33960D02*
X550379Y33782D01*
X547937Y32770D01*
X545839Y31161D01*
X544230Y29063D01*
X543218Y26621D01*
X542873Y24000D01*
Y22770D01*
X551730D01*
Y33960D01*
D02*
G37*
G36*
X122770Y23679D02*
Y20020D01*
X126429D01*
X125773Y21605D01*
X124355Y23023D01*
X122770Y23679D01*
D02*
G37*
G36*
X120230D02*
X118645Y23023D01*
X117227Y21605D01*
X116571Y20020D01*
X120230D01*
Y23679D01*
D02*
G37*
G36*
X126429Y17480D02*
X122770D01*
Y13821D01*
X124355Y14477D01*
X125773Y15895D01*
X126429Y17480D01*
D02*
G37*
G36*
X120230D02*
X116571D01*
X117227Y15895D01*
X118645Y14477D01*
X120230Y13821D01*
Y17480D01*
D02*
G37*
G36*
X733000Y31666D02*
X731016Y31404D01*
X729167Y30639D01*
X727579Y29420D01*
X726361Y27833D01*
X725596Y25984D01*
X725334Y24000D01*
Y19000D01*
X725596Y17016D01*
X726361Y15167D01*
X727579Y13580D01*
X729167Y12361D01*
X731016Y11596D01*
X733000Y11334D01*
X734984Y11596D01*
X736833Y12361D01*
X738420Y13580D01*
X739639Y15167D01*
X740404Y17016D01*
X740666Y19000D01*
Y24000D01*
X740404Y25984D01*
X739639Y27833D01*
X738420Y29420D01*
X736833Y30639D01*
X734984Y31404D01*
X733000Y31666D01*
D02*
G37*
G36*
X713000D02*
X711016Y31404D01*
X709167Y30639D01*
X707580Y29420D01*
X706361Y27833D01*
X705596Y25984D01*
X705334Y24000D01*
Y19000D01*
X705596Y17016D01*
X706361Y15167D01*
X707580Y13580D01*
X709167Y12361D01*
X711016Y11596D01*
X713000Y11334D01*
X714984Y11596D01*
X716833Y12361D01*
X718420Y13580D01*
X719639Y15167D01*
X720404Y17016D01*
X720666Y19000D01*
Y24000D01*
X720404Y25984D01*
X719639Y27833D01*
X718420Y29420D01*
X716833Y30639D01*
X714984Y31404D01*
X713000Y31666D01*
D02*
G37*
G36*
X693000D02*
X691016Y31404D01*
X689167Y30639D01*
X687580Y29420D01*
X686361Y27833D01*
X685596Y25984D01*
X685334Y24000D01*
Y19000D01*
X685596Y17016D01*
X686361Y15167D01*
X687580Y13580D01*
X689167Y12361D01*
X691016Y11596D01*
X693000Y11334D01*
X694984Y11596D01*
X696833Y12361D01*
X698420Y13580D01*
X699639Y15167D01*
X700404Y17016D01*
X700666Y19000D01*
Y24000D01*
X700404Y25984D01*
X699639Y27833D01*
X698420Y29420D01*
X696833Y30639D01*
X694984Y31404D01*
X693000Y31666D01*
D02*
G37*
G36*
X673000D02*
X671016Y31404D01*
X669167Y30639D01*
X667580Y29420D01*
X666361Y27833D01*
X665596Y25984D01*
X665334Y24000D01*
Y19000D01*
X665596Y17016D01*
X666361Y15167D01*
X667580Y13580D01*
X669167Y12361D01*
X671016Y11596D01*
X673000Y11334D01*
X674984Y11596D01*
X676833Y12361D01*
X678420Y13580D01*
X679639Y15167D01*
X680404Y17016D01*
X680666Y19000D01*
Y24000D01*
X680404Y25984D01*
X679639Y27833D01*
X678420Y29420D01*
X676833Y30639D01*
X674984Y31404D01*
X673000Y31666D01*
D02*
G37*
G36*
X653000D02*
X651016Y31404D01*
X649167Y30639D01*
X647580Y29420D01*
X646361Y27833D01*
X645596Y25984D01*
X645334Y24000D01*
Y19000D01*
X645596Y17016D01*
X646361Y15167D01*
X647580Y13580D01*
X649167Y12361D01*
X651016Y11596D01*
X653000Y11334D01*
X654984Y11596D01*
X656833Y12361D01*
X658420Y13580D01*
X659639Y15167D01*
X660404Y17016D01*
X660666Y19000D01*
Y24000D01*
X660404Y25984D01*
X659639Y27833D01*
X658420Y29420D01*
X656833Y30639D01*
X654984Y31404D01*
X653000Y31666D01*
D02*
G37*
G36*
X633000D02*
X631016Y31404D01*
X629167Y30639D01*
X627580Y29420D01*
X626361Y27833D01*
X625596Y25984D01*
X625334Y24000D01*
Y19000D01*
X625596Y17016D01*
X626361Y15167D01*
X627580Y13580D01*
X629167Y12361D01*
X631016Y11596D01*
X633000Y11334D01*
X634984Y11596D01*
X636833Y12361D01*
X638420Y13580D01*
X639639Y15167D01*
X640404Y17016D01*
X640666Y19000D01*
Y24000D01*
X640404Y25984D01*
X639639Y27833D01*
X638420Y29420D01*
X636833Y30639D01*
X634984Y31404D01*
X633000Y31666D01*
D02*
G37*
G36*
X593000D02*
X591016Y31404D01*
X589167Y30639D01*
X587580Y29420D01*
X586362Y27833D01*
X585596Y25984D01*
X585335Y24000D01*
Y19000D01*
X585596Y17016D01*
X586362Y15167D01*
X587580Y13580D01*
X589167Y12361D01*
X591016Y11596D01*
X593000Y11334D01*
X594984Y11596D01*
X596833Y12361D01*
X598420Y13580D01*
X599639Y15167D01*
X600404Y17016D01*
X600666Y19000D01*
Y24000D01*
X600404Y25984D01*
X599639Y27833D01*
X598420Y29420D01*
X596833Y30639D01*
X594984Y31404D01*
X593000Y31666D01*
D02*
G37*
G36*
X573000D02*
X571016Y31404D01*
X569167Y30639D01*
X567580Y29420D01*
X566362Y27833D01*
X565596Y25984D01*
X565335Y24000D01*
Y19000D01*
X565596Y17016D01*
X566362Y15167D01*
X567580Y13580D01*
X569167Y12361D01*
X571016Y11596D01*
X573000Y11334D01*
X574984Y11596D01*
X576833Y12361D01*
X578420Y13580D01*
X579639Y15167D01*
X580404Y17016D01*
X580666Y19000D01*
Y24000D01*
X580404Y25984D01*
X579639Y27833D01*
X578420Y29420D01*
X576833Y30639D01*
X574984Y31404D01*
X573000Y31666D01*
D02*
G37*
G36*
X563127Y20230D02*
X554270D01*
Y9041D01*
X555621Y9218D01*
X558063Y10230D01*
X560161Y11839D01*
X561770Y13937D01*
X562782Y16379D01*
X563127Y19000D01*
Y20230D01*
D02*
G37*
G36*
X551730D02*
X542873D01*
Y19000D01*
X543218Y16379D01*
X544230Y13937D01*
X545839Y11839D01*
X547937Y10230D01*
X550379Y9218D01*
X551730Y9040D01*
Y20230D01*
D02*
G37*
G36*
X154267Y11350D02*
X153233D01*
X152277Y10954D01*
X151546Y10223D01*
X151150Y9267D01*
Y8233D01*
X151546Y7277D01*
X152277Y6546D01*
X153233Y6150D01*
X154267D01*
X155223Y6546D01*
X155954Y7277D01*
X156350Y8233D01*
Y9267D01*
X155954Y10223D01*
X155223Y10954D01*
X154267Y11350D01*
D02*
G37*
%LPD*%
D17*
X328166Y466000D02*
X330166Y464000D01*
X555834D02*
X557084Y462750D01*
X327500Y466000D02*
X328166D01*
X330166Y464000D02*
X555834D01*
X557084Y462750D02*
X557750D01*
X505584Y456500D02*
X506834Y457750D01*
X196300Y321300D02*
X331500Y456500D01*
X506834Y457750D02*
X507500D01*
X331500Y456500D02*
X505584D01*
X150650Y321300D02*
X196300D01*
X209350Y308600D02*
X348500Y447750D01*
X150650Y308600D02*
X209350D01*
X348500Y447750D02*
X537000D01*
X154000Y127500D02*
X220231Y61269D01*
X149750Y127500D02*
X154000D01*
X162060Y114472D02*
X165250Y111282D01*
X155750Y114750D02*
X156028Y114472D01*
X165250Y100900D02*
Y111282D01*
X156028Y114472D02*
X162060D01*
X647000Y329750D02*
X667000D01*
X623500Y353250D02*
X647000Y329750D01*
X623500Y353250D02*
Y378750D01*
X578125Y482000D02*
X614375Y518250D01*
X614500D01*
X578000Y482000D02*
X578125D01*
X494000Y362500D02*
X544250D01*
X644750Y463000D01*
X494250Y338500D02*
X536750D01*
X650500Y452250D01*
Y475500D01*
X644750Y463000D02*
Y480250D01*
X568750Y410818D02*
X573000Y406568D01*
Y404250D02*
Y406568D01*
X568750Y410818D02*
Y471000D01*
X575750Y462500D02*
X617250Y504000D01*
X575750Y452500D02*
Y462500D01*
X617250Y504000D02*
X657250D01*
X660500Y507250D01*
Y575380D02*
X754370Y669250D01*
X660500Y507250D02*
Y575380D01*
X558125Y415875D02*
Y462375D01*
X557750Y462750D02*
X558125Y462375D01*
Y415875D02*
X558500Y415500D01*
X682120Y236620D02*
Y400870D01*
X685000Y403750D01*
X690500Y407282D02*
X694000Y410782D01*
X690500Y101500D02*
Y407282D01*
X613000Y24000D02*
X690500Y101500D01*
X694000Y410782D02*
Y411000D01*
X561750Y328500D02*
X619000Y385750D01*
X560750Y328500D02*
X561750D01*
X556750Y483000D02*
Y520250D01*
X557000Y520500D01*
X535250Y573500D02*
X557000Y551750D01*
X535250Y573500D02*
Y707500D01*
X556750Y483000D02*
X568750Y471000D01*
X709500Y404000D02*
X723762D01*
X725250Y405488D01*
Y607750D01*
X754000Y636500D01*
X698750Y261718D02*
X703250Y266218D01*
X699750Y418000D02*
X703250Y414500D01*
X684500Y418000D02*
X699750D01*
X703250Y266218D02*
Y414500D01*
X698750Y261250D02*
Y261718D01*
X732000Y410250D02*
X754500Y432750D01*
Y614250D01*
X680500Y235000D02*
X682120Y236620D01*
X660500Y237500D02*
X674500Y251500D01*
Y391500D01*
X540250Y261750D02*
X666750D01*
X660500Y235000D02*
Y237500D01*
X684500Y418000D02*
X696500Y430000D01*
Y601750D02*
X753500Y658750D01*
X696500Y430000D02*
Y601750D01*
X613000Y21500D02*
Y24000D01*
X493250Y470250D02*
X506750Y483750D01*
Y494500D01*
X335750Y417250D02*
X346750D01*
X316750Y398250D02*
X335750Y417250D01*
X202750Y122500D02*
X204000Y121250D01*
X252430D01*
X305250Y174069D01*
Y386750D02*
X316750Y398250D01*
X305250Y174069D02*
Y386750D01*
X328000Y174517D02*
Y398250D01*
X267484Y114000D02*
X328000Y174517D01*
X233750Y114000D02*
X267484D01*
X327500Y466000D02*
Y472750D01*
X309500Y490750D02*
X327500Y472750D01*
X309500Y490750D02*
Y578760D01*
X298750Y482000D02*
Y594421D01*
Y482000D02*
X316750Y464000D01*
X298750Y594421D02*
X327498Y623169D01*
X184000Y113250D02*
X211750D01*
X219750Y84000D02*
Y105250D01*
X211750Y113250D02*
X219750Y105250D01*
X309500Y578760D02*
X337809Y607070D01*
Y681809D01*
X346250Y690250D01*
X220231Y53519D02*
X221000Y52750D01*
X220231Y53519D02*
Y61269D01*
X327498Y623169D02*
Y708082D01*
X346250Y690250D02*
X346750D01*
X327789Y707791D02*
X534959D01*
X535250Y707500D01*
X327498Y708082D02*
X327789Y707791D01*
X129584Y708166D02*
X327414D01*
X129500Y708250D02*
X129584Y708166D01*
X327414D02*
X327498Y708082D01*
X800000Y0D02*
Y800000D01*
X0Y0D02*
X800000D01*
X0Y800000D02*
X800000D01*
X0Y0D02*
Y800000D01*
D81*
X720500Y235000D02*
D03*
X680500D02*
D03*
X660500D02*
D03*
X640500D02*
D03*
X580500D02*
D03*
X560500D02*
D03*
X540500D02*
D03*
X600500D02*
D03*
X620500D02*
D03*
X700500D02*
D03*
X733000Y21500D02*
D03*
X693000D02*
D03*
X673000D02*
D03*
X653000D02*
D03*
X593000D02*
D03*
X573000D02*
D03*
X553000D02*
D03*
X613000D02*
D03*
X633000D02*
D03*
X713000D02*
D03*
D83*
X165250Y100900D02*
D03*
X155750Y114750D02*
D03*
X153750Y8750D02*
D03*
X256000Y100000D02*
D03*
X144250Y82000D02*
D03*
X154850Y73850D02*
D03*
X15500Y28000D02*
D03*
X49500Y38500D02*
D03*
X640000Y412000D02*
D03*
X605500Y414500D02*
D03*
X638750Y447000D02*
D03*
X604250Y445750D02*
D03*
X621500Y430250D02*
D03*
X638500Y365000D02*
D03*
X586250Y396500D02*
D03*
X619250Y525500D02*
D03*
X614500Y518250D02*
D03*
X602000Y496250D02*
D03*
X581250Y536500D02*
D03*
X564750Y503250D02*
D03*
X564500Y514000D02*
D03*
X553750Y390250D02*
D03*
X545750Y390500D02*
D03*
X518250Y346750D02*
D03*
X519000Y437250D02*
D03*
X494000Y373500D02*
D03*
Y362500D02*
D03*
X494250Y338250D02*
D03*
X637388Y478362D02*
D03*
X587000Y464500D02*
D03*
X599000Y479000D02*
D03*
X631250Y498250D02*
D03*
X557750Y462750D02*
D03*
X537000Y447750D02*
D03*
X495000Y427000D02*
D03*
X578000Y482000D02*
D03*
X573000Y404250D02*
D03*
X650500Y475500D02*
D03*
X644750Y480250D02*
D03*
X631500Y474000D02*
D03*
X667000Y329750D02*
D03*
X560750Y328500D02*
D03*
X619000Y385750D02*
D03*
X623500Y378750D02*
D03*
X507500Y457750D02*
D03*
X629750Y382750D02*
D03*
X368000Y352000D02*
D03*
X322250Y361000D02*
D03*
X334000Y360750D02*
D03*
X100000Y747500D02*
D03*
X99500Y728500D02*
D03*
X99750Y768000D02*
D03*
X505500Y730250D02*
D03*
Y748750D02*
D03*
Y770750D02*
D03*
X296750Y748250D02*
D03*
X297000Y730500D02*
D03*
X296750Y767250D02*
D03*
X557000Y520500D02*
D03*
X709500Y404000D02*
D03*
X732000Y410250D02*
D03*
X685000Y403750D02*
D03*
X684500Y418000D02*
D03*
X666750Y261750D02*
D03*
X674500Y391500D02*
D03*
X540250Y261750D02*
D03*
X694000Y411000D02*
D03*
X698750Y261250D02*
D03*
X688250Y461000D02*
D03*
X754500Y614250D02*
D03*
X754000Y636500D02*
D03*
X769750Y625500D02*
D03*
X677750Y470250D02*
D03*
X753500Y658750D02*
D03*
X575750Y452500D02*
D03*
X506750Y494500D02*
D03*
X493250Y470250D02*
D03*
X346750Y417250D02*
D03*
X754370Y669250D02*
D03*
X717000Y375269D02*
D03*
X202750Y122500D02*
D03*
X328000Y398250D02*
D03*
X327500Y466000D02*
D03*
X316750Y464000D02*
D03*
X233750Y114000D02*
D03*
X121500Y18750D02*
D03*
X557000Y551750D02*
D03*
X180000Y184250D02*
D03*
X127750Y181750D02*
D03*
X128000Y189500D02*
D03*
X123750Y199500D02*
D03*
Y207750D02*
D03*
X221000Y52750D02*
D03*
X219750Y84000D02*
D03*
X184000Y113250D02*
D03*
X205500Y76000D02*
D03*
X149750Y127500D02*
D03*
X316750Y398250D02*
D03*
X769000Y647150D02*
D03*
X397250Y286000D02*
D03*
X397500Y250500D02*
D03*
X667750Y470250D02*
D03*
X558500Y415500D02*
D03*
X346750Y690250D02*
D03*
X535250Y707500D02*
D03*
X129500Y708250D02*
D03*
X327498Y708082D02*
D03*
D84*
X128750Y142000D02*
D03*
D85*
X150650Y295900D02*
D03*
Y308600D02*
D03*
Y321300D02*
D03*
Y334000D02*
D03*
Y346700D02*
D03*
X125250Y302250D02*
D03*
Y314950D02*
D03*
Y327650D02*
D03*
Y340350D02*
D03*
X112550Y249550D02*
D03*
Y393050D02*
D03*
M02*
