G04*
G04 #@! TF.GenerationSoftware,Altium Limited,Altium Designer,24.4.1 (13)*
G04*
G04 Layer_Physical_Order=4*
G04 Layer_Color=16711680*
%FSLAX44Y44*%
%MOMM*%
G71*
G04*
G04 #@! TF.SameCoordinates,85F95AA7-1CD2-4A53-B858-D1680FFA15A6*
G04*
G04*
G04 #@! TF.FilePolarity,Positive*
G04*
G01*
G75*
%ADD17C,0.2540*%
%ADD27R,0.6400X0.6000*%
%ADD72O,1.3208X1.1684*%
%ADD81O,1.5000X2.0000*%
%ADD82C,2.7940*%
%ADD83C,0.5000*%
%ADD84C,1.2700*%
%ADD86R,2.4500X3.1500*%
%ADD87R,3.4000X1.5000*%
%ADD88R,3.5000X1.0000*%
G36*
X798517Y1483D02*
X1483D01*
Y798517D01*
X798517D01*
Y1483D01*
D02*
G37*
%LPC*%
G36*
X506770Y775679D02*
Y772020D01*
X510429D01*
X509773Y773605D01*
X508355Y775023D01*
X506770Y775679D01*
D02*
G37*
G36*
X504230D02*
X502645Y775023D01*
X501227Y773605D01*
X500571Y772020D01*
X504230D01*
Y775679D01*
D02*
G37*
G36*
X101020Y772929D02*
Y769270D01*
X104679D01*
X104023Y770855D01*
X102605Y772273D01*
X101020Y772929D01*
D02*
G37*
G36*
X98480D02*
X96895Y772273D01*
X95477Y770855D01*
X94821Y769270D01*
X98480D01*
Y772929D01*
D02*
G37*
G36*
X298020Y772179D02*
Y768520D01*
X301679D01*
X301023Y770105D01*
X299605Y771523D01*
X298020Y772179D01*
D02*
G37*
G36*
X295480D02*
X293895Y771523D01*
X292477Y770105D01*
X291821Y768520D01*
X295480D01*
Y772179D01*
D02*
G37*
G36*
X510429Y769480D02*
X506770D01*
Y765821D01*
X508355Y766477D01*
X509773Y767895D01*
X510429Y769480D01*
D02*
G37*
G36*
X504230D02*
X500571D01*
X501227Y767895D01*
X502645Y766477D01*
X504230Y765821D01*
Y769480D01*
D02*
G37*
G36*
X104679Y766730D02*
X101020D01*
Y763071D01*
X102605Y763727D01*
X104023Y765145D01*
X104679Y766730D01*
D02*
G37*
G36*
X98480D02*
X94821D01*
X95477Y765145D01*
X96895Y763727D01*
X98480Y763071D01*
Y766730D01*
D02*
G37*
G36*
X301679Y765980D02*
X298020D01*
Y762321D01*
X299605Y762977D01*
X301023Y764395D01*
X301679Y765980D01*
D02*
G37*
G36*
X295480D02*
X291821D01*
X292477Y764395D01*
X293895Y762977D01*
X295480Y762321D01*
Y765980D01*
D02*
G37*
G36*
X506770Y753679D02*
Y750020D01*
X510429D01*
X509773Y751605D01*
X508355Y753023D01*
X506770Y753679D01*
D02*
G37*
G36*
X504230D02*
X502645Y753023D01*
X501227Y751605D01*
X500571Y750020D01*
X504230D01*
Y753679D01*
D02*
G37*
G36*
X298020Y753179D02*
Y749520D01*
X301679D01*
X301023Y751105D01*
X299605Y752523D01*
X298020Y753179D01*
D02*
G37*
G36*
X295480D02*
X293895Y752523D01*
X292477Y751105D01*
X291821Y749520D01*
X295480D01*
Y753179D01*
D02*
G37*
G36*
X101270Y752429D02*
Y748770D01*
X104929D01*
X104273Y750355D01*
X102855Y751773D01*
X101270Y752429D01*
D02*
G37*
G36*
X98730D02*
X97145Y751773D01*
X95727Y750355D01*
X95071Y748770D01*
X98730D01*
Y752429D01*
D02*
G37*
G36*
X510429Y747480D02*
X506770D01*
Y743821D01*
X508355Y744477D01*
X509773Y745895D01*
X510429Y747480D01*
D02*
G37*
G36*
X504230D02*
X500571D01*
X501227Y745895D01*
X502645Y744477D01*
X504230Y743821D01*
Y747480D01*
D02*
G37*
G36*
X301679Y746980D02*
X298020D01*
Y743321D01*
X299605Y743977D01*
X301023Y745395D01*
X301679Y746980D01*
D02*
G37*
G36*
X295480D02*
X291821D01*
X292477Y745395D01*
X293895Y743977D01*
X295480Y743321D01*
Y746980D01*
D02*
G37*
G36*
X104929Y746230D02*
X101270D01*
Y742571D01*
X102855Y743227D01*
X104273Y744645D01*
X104929Y746230D01*
D02*
G37*
G36*
X98730D02*
X95071D01*
X95727Y744645D01*
X97145Y743227D01*
X98730Y742571D01*
Y746230D01*
D02*
G37*
G36*
X298270Y735429D02*
Y731770D01*
X301929D01*
X301273Y733355D01*
X299855Y734773D01*
X298270Y735429D01*
D02*
G37*
G36*
X295730D02*
X294145Y734773D01*
X292727Y733355D01*
X292071Y731770D01*
X295730D01*
Y735429D01*
D02*
G37*
G36*
X506770Y735179D02*
Y731520D01*
X510429D01*
X509773Y733105D01*
X508355Y734523D01*
X506770Y735179D01*
D02*
G37*
G36*
X504230D02*
X502645Y734523D01*
X501227Y733105D01*
X500571Y731520D01*
X504230D01*
Y735179D01*
D02*
G37*
G36*
X100770Y733429D02*
Y729770D01*
X104429D01*
X103773Y731355D01*
X102355Y732773D01*
X100770Y733429D01*
D02*
G37*
G36*
X98230D02*
X96645Y732773D01*
X95227Y731355D01*
X94571Y729770D01*
X98230D01*
Y733429D01*
D02*
G37*
G36*
X301929Y729230D02*
X298270D01*
Y725571D01*
X299855Y726227D01*
X301273Y727645D01*
X301929Y729230D01*
D02*
G37*
G36*
X295730D02*
X292071D01*
X292727Y727645D01*
X294145Y726227D01*
X295730Y725571D01*
Y729230D01*
D02*
G37*
G36*
X510429Y728980D02*
X506770D01*
Y725321D01*
X508355Y725977D01*
X509773Y727395D01*
X510429Y728980D01*
D02*
G37*
G36*
X504230D02*
X500571D01*
X501227Y727395D01*
X502645Y725977D01*
X504230Y725321D01*
Y728980D01*
D02*
G37*
G36*
X104429Y727230D02*
X100770D01*
Y723571D01*
X102355Y724227D01*
X103773Y725645D01*
X104429Y727230D01*
D02*
G37*
G36*
X98230D02*
X94571D01*
X95227Y725645D01*
X96645Y724227D01*
X98230Y723571D01*
Y727230D01*
D02*
G37*
G36*
X130017Y710850D02*
X128983D01*
X128027Y710454D01*
X127296Y709723D01*
X126900Y708767D01*
Y707733D01*
X127296Y706777D01*
X128027Y706046D01*
X128983Y705650D01*
X130017D01*
X130973Y706046D01*
X131704Y706777D01*
X132100Y707733D01*
Y708767D01*
X131704Y709723D01*
X130973Y710454D01*
X130017Y710850D01*
D02*
G37*
G36*
X328015Y710682D02*
X326981D01*
X326025Y710287D01*
X325294Y709555D01*
X324898Y708600D01*
Y707565D01*
X325294Y706610D01*
X326025Y705878D01*
X326981Y705482D01*
X328015D01*
X328971Y705878D01*
X329702Y706610D01*
X330098Y707565D01*
Y708600D01*
X329702Y709555D01*
X328971Y710287D01*
X328015Y710682D01*
D02*
G37*
G36*
X535767Y710100D02*
X534733D01*
X533777Y709704D01*
X533046Y708973D01*
X532650Y708017D01*
Y706983D01*
X533046Y706027D01*
X533777Y705296D01*
X534733Y704900D01*
X535767D01*
X536723Y705296D01*
X537454Y706027D01*
X537850Y706983D01*
Y708017D01*
X537454Y708973D01*
X536723Y709704D01*
X535767Y710100D01*
D02*
G37*
G36*
X347267Y692850D02*
X346233D01*
X345277Y692454D01*
X344546Y691723D01*
X344150Y690767D01*
Y689733D01*
X344546Y688777D01*
X345277Y688046D01*
X346233Y687650D01*
X347267D01*
X348223Y688046D01*
X348954Y688777D01*
X349350Y689733D01*
Y690767D01*
X348954Y691723D01*
X348223Y692454D01*
X347267Y692850D01*
D02*
G37*
G36*
X754887Y671850D02*
X753853D01*
X752897Y671454D01*
X752166Y670723D01*
X751770Y669767D01*
Y668733D01*
X752166Y667777D01*
X752897Y667046D01*
X753853Y666650D01*
X754887D01*
X755843Y667046D01*
X756574Y667777D01*
X756970Y668733D01*
Y669767D01*
X756574Y670723D01*
X755843Y671454D01*
X754887Y671850D01*
D02*
G37*
G36*
X754017Y661350D02*
X752983D01*
X752027Y660954D01*
X751296Y660223D01*
X750900Y659267D01*
Y658233D01*
X751296Y657277D01*
X752027Y656546D01*
X752983Y656150D01*
X754017D01*
X754973Y656546D01*
X755704Y657277D01*
X756100Y658233D01*
Y659267D01*
X755704Y660223D01*
X754973Y660954D01*
X754017Y661350D01*
D02*
G37*
G36*
X774740Y652690D02*
X770270D01*
Y648420D01*
X774740D01*
Y652690D01*
D02*
G37*
G36*
X767730D02*
X763260D01*
Y648420D01*
X767730D01*
Y652690D01*
D02*
G37*
G36*
X754517Y639100D02*
X753483D01*
X752527Y638704D01*
X751796Y637973D01*
X751400Y637017D01*
Y635983D01*
X751796Y635027D01*
X752527Y634296D01*
X753483Y633900D01*
X754517D01*
X755473Y634296D01*
X756204Y635027D01*
X756600Y635983D01*
Y637017D01*
X756204Y637973D01*
X755473Y638704D01*
X754517Y639100D01*
D02*
G37*
G36*
X774740Y645880D02*
X763260D01*
Y641610D01*
X764496D01*
X765700Y641450D01*
X765700Y640340D01*
Y635250D01*
X767892D01*
Y627319D01*
X767546Y626973D01*
X767150Y626017D01*
Y624983D01*
X767546Y624027D01*
X768277Y623296D01*
X769233Y622900D01*
X770267D01*
X771223Y623296D01*
X771954Y624027D01*
X772350Y624983D01*
Y626017D01*
X771954Y626973D01*
X771223Y627704D01*
X770858Y627855D01*
Y635250D01*
X772300D01*
X772300Y641450D01*
X773504Y641610D01*
X774740D01*
Y645880D01*
D02*
G37*
G36*
X755017Y616850D02*
X753983D01*
X753027Y616454D01*
X752296Y615723D01*
X751900Y614767D01*
Y613733D01*
X752296Y612777D01*
X753027Y612046D01*
X753983Y611650D01*
X755017D01*
X755973Y612046D01*
X756704Y612777D01*
X757100Y613733D01*
Y614767D01*
X756704Y615723D01*
X755973Y616454D01*
X755017Y616850D01*
D02*
G37*
G36*
X557517Y554350D02*
X556483D01*
X555527Y553954D01*
X554796Y553223D01*
X554400Y552267D01*
Y551233D01*
X554796Y550277D01*
X555527Y549546D01*
X556483Y549150D01*
X557517D01*
X558473Y549546D01*
X559204Y550277D01*
X559600Y551233D01*
Y552267D01*
X559204Y553223D01*
X558473Y553954D01*
X557517Y554350D01*
D02*
G37*
G36*
X582520Y541429D02*
Y537770D01*
X586179D01*
X585523Y539355D01*
X584105Y540773D01*
X582520Y541429D01*
D02*
G37*
G36*
X579980D02*
X578395Y540773D01*
X576977Y539355D01*
X576321Y537770D01*
X579980D01*
Y541429D01*
D02*
G37*
G36*
X586179Y535230D02*
X582520D01*
Y531571D01*
X584105Y532227D01*
X585523Y533645D01*
X586179Y535230D01*
D02*
G37*
G36*
X579980D02*
X576321D01*
X576977Y533645D01*
X578395Y532227D01*
X579980Y531571D01*
Y535230D01*
D02*
G37*
G36*
X620520Y530429D02*
Y526770D01*
X624179D01*
X623523Y528355D01*
X622105Y529773D01*
X620520Y530429D01*
D02*
G37*
G36*
X617980D02*
X616395Y529773D01*
X614977Y528355D01*
X614321Y526770D01*
X617980D01*
Y530429D01*
D02*
G37*
G36*
X624179Y524230D02*
X620520D01*
Y520571D01*
X622105Y521227D01*
X623523Y522645D01*
X624179Y524230D01*
D02*
G37*
G36*
X617980D02*
X614321D01*
X614977Y522645D01*
X615667Y521955D01*
X615086Y520967D01*
X614976Y520850D01*
X613983D01*
X613027Y520454D01*
X612296Y519723D01*
X611900Y518767D01*
Y517733D01*
X612296Y516777D01*
X613027Y516046D01*
X613983Y515650D01*
X615017D01*
X615973Y516046D01*
X616704Y516777D01*
X617100Y517733D01*
Y518767D01*
X616704Y519723D01*
X616701Y519726D01*
X617420Y520803D01*
X617980Y520571D01*
Y524230D01*
D02*
G37*
G36*
X557517Y523100D02*
X556483D01*
X555527Y522704D01*
X554796Y521973D01*
X554400Y521017D01*
Y519983D01*
X554796Y519027D01*
X555527Y518296D01*
X556483Y517900D01*
X557517D01*
X558473Y518296D01*
X559204Y519027D01*
X559600Y519983D01*
Y521017D01*
X559204Y521973D01*
X558473Y522704D01*
X557517Y523100D01*
D02*
G37*
G36*
X565770Y518929D02*
Y515270D01*
X569429D01*
X568773Y516855D01*
X567355Y518273D01*
X565770Y518929D01*
D02*
G37*
G36*
X563230D02*
X561645Y518273D01*
X560227Y516855D01*
X559571Y515270D01*
X563230D01*
Y518929D01*
D02*
G37*
G36*
X569429Y512730D02*
X559571D01*
X560227Y511145D01*
X561645Y509727D01*
X562772Y509261D01*
Y507886D01*
X561895Y507523D01*
X560477Y506105D01*
X559821Y504520D01*
X569679D01*
X569023Y506105D01*
X567605Y507523D01*
X566478Y507989D01*
Y509364D01*
X567355Y509727D01*
X568773Y511145D01*
X569429Y512730D01*
D02*
G37*
G36*
X632520Y503179D02*
Y499520D01*
X636179D01*
X635523Y501105D01*
X634105Y502523D01*
X632520Y503179D01*
D02*
G37*
G36*
X629980D02*
X628395Y502523D01*
X626977Y501105D01*
X626321Y499520D01*
X629980D01*
Y503179D01*
D02*
G37*
G36*
X569679Y501980D02*
X566020D01*
Y498321D01*
X567605Y498977D01*
X569023Y500395D01*
X569679Y501980D01*
D02*
G37*
G36*
X563480D02*
X559821D01*
X560477Y500395D01*
X561895Y498977D01*
X563480Y498321D01*
Y501980D01*
D02*
G37*
G36*
X603270Y501179D02*
Y497520D01*
X606929D01*
X606273Y499105D01*
X604855Y500523D01*
X603270Y501179D01*
D02*
G37*
G36*
X600730D02*
X599145Y500523D01*
X597727Y499105D01*
X597071Y497520D01*
X600730D01*
Y501179D01*
D02*
G37*
G36*
X636179Y496980D02*
X632520D01*
Y493321D01*
X634105Y493977D01*
X635523Y495395D01*
X636179Y496980D01*
D02*
G37*
G36*
X629980D02*
X626321D01*
X626977Y495395D01*
X628395Y493977D01*
X629980Y493321D01*
Y496980D01*
D02*
G37*
G36*
X507267Y497100D02*
X506233D01*
X505277Y496704D01*
X504546Y495973D01*
X504150Y495017D01*
Y493983D01*
X504546Y493027D01*
X505277Y492296D01*
X506233Y491900D01*
X507267D01*
X508223Y492296D01*
X508954Y493027D01*
X509350Y493983D01*
Y495017D01*
X508954Y495973D01*
X508223Y496704D01*
X507267Y497100D01*
D02*
G37*
G36*
X606929Y494980D02*
X603270D01*
Y491321D01*
X604855Y491977D01*
X606273Y493395D01*
X606929Y494980D01*
D02*
G37*
G36*
X600730D02*
X597071D01*
X597727Y493395D01*
X599145Y491977D01*
X600730Y491321D01*
Y494980D01*
D02*
G37*
G36*
X600270Y483929D02*
Y480270D01*
X603929D01*
X603273Y481855D01*
X601855Y483273D01*
X600270Y483929D01*
D02*
G37*
G36*
X597730D02*
X596145Y483273D01*
X594727Y481855D01*
X594071Y480270D01*
X597730D01*
Y483929D01*
D02*
G37*
G36*
X578517Y484600D02*
X577483D01*
X576527Y484204D01*
X575796Y483473D01*
X575400Y482517D01*
Y481483D01*
X575796Y480527D01*
X576527Y479796D01*
X577483Y479400D01*
X578517D01*
X579473Y479796D01*
X580204Y480527D01*
X580600Y481483D01*
Y482517D01*
X580204Y483473D01*
X579473Y484204D01*
X578517Y484600D01*
D02*
G37*
G36*
X645267Y482850D02*
X644233D01*
X643277Y482454D01*
X642546Y481723D01*
X642150Y480767D01*
Y479733D01*
X642546Y478777D01*
X643277Y478046D01*
X644233Y477650D01*
X645267D01*
X646223Y478046D01*
X646954Y478777D01*
X647350Y479733D01*
Y480767D01*
X646954Y481723D01*
X646223Y482454D01*
X645267Y482850D01*
D02*
G37*
G36*
X637906Y480961D02*
X636871D01*
X635916Y480566D01*
X635184Y479834D01*
X634789Y478879D01*
Y477844D01*
X635184Y476889D01*
X635916Y476157D01*
X636871Y475761D01*
X637906D01*
X638861Y476157D01*
X639593Y476889D01*
X639989Y477844D01*
Y478879D01*
X639593Y479834D01*
X638861Y480566D01*
X637906Y480961D01*
D02*
G37*
G36*
X597730Y477730D02*
X594071D01*
X594727Y476145D01*
X596145Y474727D01*
X597730Y474071D01*
Y477730D01*
D02*
G37*
G36*
X603929D02*
X600270D01*
Y474071D01*
X601855Y474727D01*
X603273Y476145D01*
X603929Y477730D01*
D02*
G37*
G36*
X651017Y478100D02*
X649983D01*
X649027Y477704D01*
X648296Y476973D01*
X647900Y476017D01*
Y474983D01*
X648296Y474027D01*
X649027Y473296D01*
X649983Y472900D01*
X651017D01*
X651973Y473296D01*
X652704Y474027D01*
X653100Y474983D01*
Y476017D01*
X652704Y476973D01*
X651973Y477704D01*
X651017Y478100D01*
D02*
G37*
G36*
X676480Y475179D02*
X674895Y474523D01*
X673477Y473105D01*
X673385Y472882D01*
X672115D01*
X672023Y473105D01*
X670605Y474523D01*
X669020Y475179D01*
Y470250D01*
Y465321D01*
X670605Y465977D01*
X672023Y467395D01*
X672115Y467618D01*
X673385D01*
X673477Y467395D01*
X674895Y465977D01*
X676480Y465321D01*
Y470250D01*
Y475179D01*
D02*
G37*
G36*
X679020D02*
Y471520D01*
X682679D01*
X682023Y473105D01*
X680605Y474523D01*
X679020Y475179D01*
D02*
G37*
G36*
X666480D02*
X664895Y474523D01*
X663477Y473105D01*
X662821Y471520D01*
X666480D01*
Y475179D01*
D02*
G37*
G36*
X632017Y476600D02*
X630983D01*
X630027Y476204D01*
X629296Y475473D01*
X628900Y474517D01*
Y473483D01*
X629296Y472527D01*
X630027Y471796D01*
X630983Y471400D01*
X632017D01*
X632973Y471796D01*
X633704Y472527D01*
X634100Y473483D01*
Y474517D01*
X633704Y475473D01*
X632973Y476204D01*
X632017Y476600D01*
D02*
G37*
G36*
X493767Y472850D02*
X492733D01*
X491777Y472454D01*
X491046Y471723D01*
X490650Y470767D01*
Y469733D01*
X491046Y468777D01*
X491777Y468046D01*
X492733Y467650D01*
X493767D01*
X494723Y468046D01*
X495454Y468777D01*
X495850Y469733D01*
Y470767D01*
X495454Y471723D01*
X494723Y472454D01*
X493767Y472850D01*
D02*
G37*
G36*
X588270Y469429D02*
Y465770D01*
X591929D01*
X591273Y467355D01*
X589855Y468773D01*
X588270Y469429D01*
D02*
G37*
G36*
X585730D02*
X584145Y468773D01*
X582727Y467355D01*
X582071Y465770D01*
X585730D01*
Y469429D01*
D02*
G37*
G36*
X682679Y468980D02*
X679020D01*
Y465321D01*
X680605Y465977D01*
X682023Y467395D01*
X682679Y468980D01*
D02*
G37*
G36*
X666480D02*
X662821D01*
X663477Y467395D01*
X664895Y465977D01*
X666480Y465321D01*
Y468980D01*
D02*
G37*
G36*
X328017Y468600D02*
X326983D01*
X326027Y468204D01*
X325296Y467473D01*
X324900Y466517D01*
Y465483D01*
X325296Y464527D01*
X326027Y463796D01*
X326983Y463400D01*
X328017D01*
X328973Y463796D01*
X329704Y464527D01*
X330100Y465483D01*
Y466517D01*
X329704Y467473D01*
X328973Y468204D01*
X328017Y468600D01*
D02*
G37*
G36*
X689520Y465929D02*
Y462270D01*
X693179D01*
X692523Y463855D01*
X691105Y465273D01*
X689520Y465929D01*
D02*
G37*
G36*
X686980D02*
X685395Y465273D01*
X683977Y463855D01*
X683321Y462270D01*
X686980D01*
Y465929D01*
D02*
G37*
G36*
X317267Y466600D02*
X316233D01*
X315277Y466204D01*
X314546Y465473D01*
X314150Y464517D01*
Y463483D01*
X314546Y462527D01*
X315277Y461796D01*
X316233Y461400D01*
X317267D01*
X318223Y461796D01*
X318954Y462527D01*
X319350Y463483D01*
Y464517D01*
X318954Y465473D01*
X318223Y466204D01*
X317267Y466600D01*
D02*
G37*
G36*
X558267Y465350D02*
X557233D01*
X556277Y464954D01*
X555546Y464223D01*
X555150Y463267D01*
Y462233D01*
X555546Y461277D01*
X556277Y460546D01*
X557233Y460150D01*
X558267D01*
X559223Y460546D01*
X559954Y461277D01*
X560350Y462233D01*
Y463267D01*
X559954Y464223D01*
X559223Y464954D01*
X558267Y465350D01*
D02*
G37*
G36*
X591929Y463230D02*
X588270D01*
Y459571D01*
X589855Y460227D01*
X591273Y461645D01*
X591929Y463230D01*
D02*
G37*
G36*
X585730D02*
X582071D01*
X582727Y461645D01*
X584145Y460227D01*
X585730Y459571D01*
Y463230D01*
D02*
G37*
G36*
X693179Y459730D02*
X689520D01*
Y456071D01*
X691105Y456727D01*
X692523Y458145D01*
X693179Y459730D01*
D02*
G37*
G36*
X686980D02*
X683321D01*
X683977Y458145D01*
X685395Y456727D01*
X686980Y456071D01*
Y459730D01*
D02*
G37*
G36*
X508017Y460350D02*
X506983D01*
X506027Y459954D01*
X505296Y459223D01*
X504900Y458267D01*
Y457233D01*
X505296Y456277D01*
X506027Y455546D01*
X506983Y455150D01*
X508017D01*
X508973Y455546D01*
X509704Y456277D01*
X510100Y457233D01*
Y458267D01*
X509704Y459223D01*
X508973Y459954D01*
X508017Y460350D01*
D02*
G37*
G36*
X576267Y455100D02*
X575233D01*
X574277Y454704D01*
X573546Y453973D01*
X573150Y453017D01*
Y451983D01*
X573546Y451027D01*
X574277Y450296D01*
X575233Y449900D01*
X576267D01*
X577223Y450296D01*
X577954Y451027D01*
X578350Y451983D01*
Y453017D01*
X577954Y453973D01*
X577223Y454704D01*
X576267Y455100D01*
D02*
G37*
G36*
X537517Y450350D02*
X536483D01*
X535527Y449954D01*
X534796Y449223D01*
X534400Y448267D01*
Y447233D01*
X534796Y446277D01*
X535527Y445546D01*
X536483Y445150D01*
X537517D01*
X538473Y445546D01*
X539204Y446277D01*
X539600Y447233D01*
Y448267D01*
X539204Y449223D01*
X538473Y449954D01*
X537517Y450350D01*
D02*
G37*
G36*
X639267Y449600D02*
X638233D01*
X637277Y449204D01*
X636546Y448473D01*
X636150Y447517D01*
Y446483D01*
X636546Y445527D01*
X637277Y444796D01*
X638233Y444400D01*
X639267D01*
X640223Y444796D01*
X640954Y445527D01*
X641350Y446483D01*
Y447517D01*
X640954Y448473D01*
X640223Y449204D01*
X639267Y449600D01*
D02*
G37*
G36*
X604767Y448350D02*
X603733D01*
X602777Y447954D01*
X602046Y447223D01*
X601650Y446267D01*
Y445233D01*
X602046Y444277D01*
X602777Y443546D01*
X603733Y443150D01*
X604767D01*
X605723Y443546D01*
X606454Y444277D01*
X606850Y445233D01*
Y446267D01*
X606454Y447223D01*
X605723Y447954D01*
X604767Y448350D01*
D02*
G37*
G36*
X520270Y442179D02*
Y438520D01*
X523929D01*
X523273Y440105D01*
X521855Y441523D01*
X520270Y442179D01*
D02*
G37*
G36*
X517730D02*
X516145Y441523D01*
X514727Y440105D01*
X514071Y438520D01*
X517730D01*
Y442179D01*
D02*
G37*
G36*
X523929Y435980D02*
X520270D01*
Y432321D01*
X521855Y432977D01*
X523273Y434395D01*
X523929Y435980D01*
D02*
G37*
G36*
X517730D02*
X514071D01*
X514727Y434395D01*
X516145Y432977D01*
X517730Y432321D01*
Y435980D01*
D02*
G37*
G36*
X622017Y432850D02*
X620983D01*
X620027Y432454D01*
X619296Y431723D01*
X618900Y430767D01*
Y429733D01*
X619296Y428777D01*
X620027Y428046D01*
X620983Y427650D01*
X622017D01*
X622973Y428046D01*
X623704Y428777D01*
X624100Y429733D01*
Y430767D01*
X623704Y431723D01*
X622973Y432454D01*
X622017Y432850D01*
D02*
G37*
G36*
X495517Y429600D02*
X494483D01*
X493527Y429204D01*
X492796Y428473D01*
X492400Y427517D01*
Y426483D01*
X492796Y425527D01*
X493527Y424796D01*
X494483Y424400D01*
X495517D01*
X496473Y424796D01*
X497204Y425527D01*
X497600Y426483D01*
Y427517D01*
X497204Y428473D01*
X496473Y429204D01*
X495517Y429600D01*
D02*
G37*
G36*
X685017Y420600D02*
X683983D01*
X683027Y420204D01*
X682296Y419473D01*
X681900Y418517D01*
Y417483D01*
X682296Y416527D01*
X683027Y415796D01*
X683983Y415400D01*
X685017D01*
X685973Y415796D01*
X686704Y416527D01*
X687100Y417483D01*
Y418517D01*
X686704Y419473D01*
X685973Y420204D01*
X685017Y420600D01*
D02*
G37*
G36*
X347267Y419850D02*
X346233D01*
X345277Y419454D01*
X344546Y418723D01*
X344150Y417767D01*
Y416733D01*
X344546Y415777D01*
X345277Y415046D01*
X346233Y414650D01*
X347267D01*
X348223Y415046D01*
X348954Y415777D01*
X349350Y416733D01*
Y417767D01*
X348954Y418723D01*
X348223Y419454D01*
X347267Y419850D01*
D02*
G37*
G36*
X559017Y418100D02*
X557983D01*
X557027Y417704D01*
X556296Y416973D01*
X555900Y416017D01*
Y414983D01*
X556296Y414027D01*
X557027Y413296D01*
X557983Y412900D01*
X559017D01*
X559973Y413296D01*
X560704Y414027D01*
X561100Y414983D01*
Y416017D01*
X560704Y416973D01*
X559973Y417704D01*
X559017Y418100D01*
D02*
G37*
G36*
X606017Y417100D02*
X604983D01*
X604027Y416704D01*
X603296Y415973D01*
X602900Y415017D01*
Y413983D01*
X603296Y413027D01*
X604027Y412296D01*
X604983Y411900D01*
X606017D01*
X606973Y412296D01*
X607704Y413027D01*
X608100Y413983D01*
Y415017D01*
X607704Y415973D01*
X606973Y416704D01*
X606017Y417100D01*
D02*
G37*
G36*
X640517Y414600D02*
X639483D01*
X638527Y414204D01*
X637796Y413473D01*
X637400Y412517D01*
Y411483D01*
X637796Y410527D01*
X638527Y409796D01*
X639483Y409400D01*
X640517D01*
X641473Y409796D01*
X642204Y410527D01*
X642600Y411483D01*
Y412517D01*
X642204Y413473D01*
X641473Y414204D01*
X640517Y414600D01*
D02*
G37*
G36*
X694517Y413600D02*
X693483D01*
X692527Y413204D01*
X691796Y412473D01*
X691400Y411517D01*
Y410483D01*
X691796Y409527D01*
X692527Y408796D01*
X693483Y408400D01*
X694517D01*
X695473Y408796D01*
X696204Y409527D01*
X696600Y410483D01*
Y411517D01*
X696204Y412473D01*
X695473Y413204D01*
X694517Y413600D01*
D02*
G37*
G36*
X732517Y412850D02*
X731483D01*
X730527Y412454D01*
X729796Y411723D01*
X729400Y410767D01*
Y409733D01*
X729796Y408777D01*
X730527Y408046D01*
X731483Y407650D01*
X732517D01*
X733473Y408046D01*
X734204Y408777D01*
X734600Y409733D01*
Y410767D01*
X734204Y411723D01*
X733473Y412454D01*
X732517Y412850D01*
D02*
G37*
G36*
X573517Y406850D02*
X572483D01*
X571527Y406454D01*
X570796Y405723D01*
X570400Y404767D01*
Y403733D01*
X570796Y402777D01*
X571527Y402046D01*
X572483Y401650D01*
X573517D01*
X574473Y402046D01*
X575204Y402777D01*
X575600Y403733D01*
Y404767D01*
X575204Y405723D01*
X574473Y406454D01*
X573517Y406850D01*
D02*
G37*
G36*
X710017Y406600D02*
X708983D01*
X708027Y406204D01*
X707296Y405473D01*
X706900Y404517D01*
Y403483D01*
X707296Y402527D01*
X708027Y401796D01*
X708983Y401400D01*
X710017D01*
X710973Y401796D01*
X711704Y402527D01*
X712100Y403483D01*
Y404517D01*
X711704Y405473D01*
X710973Y406204D01*
X710017Y406600D01*
D02*
G37*
G36*
X685517Y406350D02*
X684483D01*
X683527Y405954D01*
X682796Y405223D01*
X682400Y404267D01*
Y403233D01*
X682796Y402277D01*
X683527Y401546D01*
X684483Y401150D01*
X685517D01*
X686473Y401546D01*
X687204Y402277D01*
X687600Y403233D01*
Y404267D01*
X687204Y405223D01*
X686473Y405954D01*
X685517Y406350D01*
D02*
G37*
G36*
X587520Y401429D02*
Y397770D01*
X591179D01*
X590523Y399355D01*
X589105Y400773D01*
X587520Y401429D01*
D02*
G37*
G36*
X584980D02*
X583395Y400773D01*
X581977Y399355D01*
X581321Y397770D01*
X584980D01*
Y401429D01*
D02*
G37*
G36*
X328517Y400850D02*
X327483D01*
X326527Y400454D01*
X325796Y399723D01*
X325400Y398767D01*
Y397733D01*
X325796Y396777D01*
X326527Y396046D01*
X327483Y395650D01*
X328517D01*
X329473Y396046D01*
X330204Y396777D01*
X330600Y397733D01*
Y398767D01*
X330204Y399723D01*
X329473Y400454D01*
X328517Y400850D01*
D02*
G37*
G36*
X317267D02*
X316233D01*
X315277Y400454D01*
X314546Y399723D01*
X314150Y398767D01*
Y397733D01*
X314546Y396777D01*
X315277Y396046D01*
X316233Y395650D01*
X317267D01*
X318223Y396046D01*
X318954Y396777D01*
X319350Y397733D01*
Y398767D01*
X318954Y399723D01*
X318223Y400454D01*
X317267Y400850D01*
D02*
G37*
G36*
X544480Y395429D02*
X542895Y394773D01*
X541477Y393355D01*
X540821Y391770D01*
X544480D01*
Y395429D01*
D02*
G37*
G36*
X591179Y395230D02*
X587520D01*
Y391571D01*
X589105Y392227D01*
X590523Y393645D01*
X591179Y395230D01*
D02*
G37*
G36*
X584980D02*
X581321D01*
X581977Y393645D01*
X583395Y392227D01*
X584980Y391571D01*
Y395230D01*
D02*
G37*
G36*
X555020Y395179D02*
Y391520D01*
X558679D01*
X558023Y393105D01*
X556605Y394523D01*
X555020Y395179D01*
D02*
G37*
G36*
X675017Y394100D02*
X673983D01*
X673027Y393704D01*
X672296Y392973D01*
X671900Y392017D01*
Y390983D01*
X672296Y390027D01*
X673027Y389296D01*
X673983Y388900D01*
X675017D01*
X675973Y389296D01*
X676704Y390027D01*
X677100Y390983D01*
Y392017D01*
X676704Y392973D01*
X675973Y393704D01*
X675017Y394100D01*
D02*
G37*
G36*
X544480Y389230D02*
X540821D01*
X541477Y387645D01*
X542895Y386227D01*
X544480Y385571D01*
Y389230D01*
D02*
G37*
G36*
X558679Y388980D02*
X555020D01*
Y385321D01*
X556605Y385977D01*
X558023Y387395D01*
X558679Y388980D01*
D02*
G37*
G36*
X547020Y395429D02*
Y390500D01*
Y385571D01*
X548605Y386227D01*
X549625Y387247D01*
X550895Y385977D01*
X552480Y385321D01*
Y390250D01*
Y395179D01*
X550895Y394523D01*
X549875Y393503D01*
X548605Y394773D01*
X547020Y395429D01*
D02*
G37*
G36*
X619517Y388350D02*
X618483D01*
X617527Y387954D01*
X616796Y387223D01*
X616400Y386267D01*
Y385233D01*
X616796Y384277D01*
X617527Y383546D01*
X618483Y383150D01*
X619517D01*
X620473Y383546D01*
X621204Y384277D01*
X621600Y385233D01*
Y386267D01*
X621204Y387223D01*
X620473Y387954D01*
X619517Y388350D01*
D02*
G37*
G36*
X630267Y385350D02*
X629233D01*
X628277Y384954D01*
X627546Y384223D01*
X627150Y383267D01*
Y382233D01*
X627546Y381277D01*
X628277Y380546D01*
X629233Y380150D01*
X630267D01*
X631223Y380546D01*
X631954Y381277D01*
X632350Y382233D01*
Y383267D01*
X631954Y384223D01*
X631223Y384954D01*
X630267Y385350D01*
D02*
G37*
G36*
X114402Y407120D02*
X110698D01*
X107119Y406161D01*
X103911Y404309D01*
X101291Y401689D01*
X99439Y398481D01*
X98480Y394902D01*
Y391198D01*
X99439Y387619D01*
X101291Y384411D01*
X103911Y381791D01*
X107119Y379939D01*
X110698Y378980D01*
X114402D01*
X117981Y379939D01*
X121189Y381791D01*
X123809Y384411D01*
X125661Y387619D01*
X126620Y391198D01*
Y394902D01*
X125661Y398481D01*
X123809Y401689D01*
X121189Y404309D01*
X117981Y406161D01*
X114402Y407120D01*
D02*
G37*
G36*
X624017Y381350D02*
X622983D01*
X622027Y380954D01*
X621296Y380223D01*
X620900Y379267D01*
Y378233D01*
X621296Y377277D01*
X622027Y376546D01*
X622983Y376150D01*
X624017D01*
X624973Y376546D01*
X625704Y377277D01*
X626100Y378233D01*
Y379267D01*
X625704Y380223D01*
X624973Y380954D01*
X624017Y381350D01*
D02*
G37*
G36*
X717517Y377869D02*
X716483D01*
X715527Y377473D01*
X714796Y376742D01*
X714400Y375786D01*
Y374752D01*
X714796Y373796D01*
X715527Y373065D01*
X716483Y372669D01*
X717517D01*
X718473Y373065D01*
X719204Y373796D01*
X719600Y374752D01*
Y375786D01*
X719204Y376742D01*
X718473Y377473D01*
X717517Y377869D01*
D02*
G37*
G36*
X494517Y376100D02*
X493483D01*
X492527Y375704D01*
X491796Y374973D01*
X491400Y374017D01*
Y372983D01*
X491796Y372027D01*
X492527Y371296D01*
X493483Y370900D01*
X494517D01*
X495473Y371296D01*
X496204Y372027D01*
X496600Y372983D01*
Y374017D01*
X496204Y374973D01*
X495473Y375704D01*
X494517Y376100D01*
D02*
G37*
G36*
X639770Y369929D02*
Y366270D01*
X643429D01*
X642773Y367855D01*
X641355Y369273D01*
X639770Y369929D01*
D02*
G37*
G36*
X637230D02*
X635645Y369273D01*
X634227Y367855D01*
X633571Y366270D01*
X637230D01*
Y369929D01*
D02*
G37*
G36*
X323520Y365929D02*
Y362270D01*
X327179D01*
X326523Y363855D01*
X325105Y365273D01*
X323520Y365929D01*
D02*
G37*
G36*
X320980D02*
X319395Y365273D01*
X317977Y363855D01*
X317321Y362270D01*
X320980D01*
Y365929D01*
D02*
G37*
G36*
X335270Y365679D02*
Y362020D01*
X338929D01*
X338273Y363605D01*
X336855Y365023D01*
X335270Y365679D01*
D02*
G37*
G36*
X332730D02*
X331145Y365023D01*
X329727Y363605D01*
X329071Y362020D01*
X332730D01*
Y365679D01*
D02*
G37*
G36*
X643429Y363730D02*
X639770D01*
Y360071D01*
X641355Y360727D01*
X642773Y362145D01*
X643429Y363730D01*
D02*
G37*
G36*
X637230D02*
X633571D01*
X634227Y362145D01*
X635645Y360727D01*
X637230Y360071D01*
Y363730D01*
D02*
G37*
G36*
X494517Y365100D02*
X493483D01*
X492527Y364704D01*
X491796Y363973D01*
X491400Y363017D01*
Y361983D01*
X491796Y361027D01*
X492527Y360296D01*
X493483Y359900D01*
X494517D01*
X495473Y360296D01*
X496204Y361027D01*
X496600Y361983D01*
Y363017D01*
X496204Y363973D01*
X495473Y364704D01*
X494517Y365100D01*
D02*
G37*
G36*
X327179Y359730D02*
X323520D01*
Y356071D01*
X325105Y356727D01*
X326523Y358145D01*
X327179Y359730D01*
D02*
G37*
G36*
X320980D02*
X317321D01*
X317977Y358145D01*
X319395Y356727D01*
X320980Y356071D01*
Y359730D01*
D02*
G37*
G36*
X338929Y359480D02*
X335270D01*
Y355821D01*
X336855Y356477D01*
X338273Y357895D01*
X338929Y359480D01*
D02*
G37*
G36*
X332730D02*
X329071D01*
X329727Y357895D01*
X331145Y356477D01*
X332730Y355821D01*
Y359480D01*
D02*
G37*
G36*
X369270Y356929D02*
Y353270D01*
X372929D01*
X372273Y354855D01*
X370855Y356273D01*
X369270Y356929D01*
D02*
G37*
G36*
X366730D02*
X365145Y356273D01*
X363727Y354855D01*
X363071Y353270D01*
X366730D01*
Y356929D01*
D02*
G37*
G36*
X519520Y351679D02*
Y348020D01*
X523179D01*
X522523Y349605D01*
X521105Y351023D01*
X519520Y351679D01*
D02*
G37*
G36*
X516980D02*
X515395Y351023D01*
X513977Y349605D01*
X513321Y348020D01*
X516980D01*
Y351679D01*
D02*
G37*
G36*
X372929Y350730D02*
X369270D01*
Y347071D01*
X370855Y347727D01*
X372273Y349145D01*
X372929Y350730D01*
D02*
G37*
G36*
X366730D02*
X363071D01*
X363727Y349145D01*
X365145Y347727D01*
X366730Y347071D01*
Y350730D01*
D02*
G37*
G36*
X523179Y345480D02*
X519520D01*
Y341821D01*
X521105Y342477D01*
X522523Y343895D01*
X523179Y345480D01*
D02*
G37*
G36*
X516980D02*
X513321D01*
X513977Y343895D01*
X515395Y342477D01*
X516980Y341821D01*
Y345480D01*
D02*
G37*
G36*
X494767Y340850D02*
X493733D01*
X492777Y340454D01*
X492046Y339723D01*
X491650Y338767D01*
Y337733D01*
X492046Y336777D01*
X492777Y336046D01*
X493733Y335650D01*
X494767D01*
X495723Y336046D01*
X496454Y336777D01*
X496850Y337733D01*
Y338767D01*
X496454Y339723D01*
X495723Y340454D01*
X494767Y340850D01*
D02*
G37*
G36*
X667517Y332350D02*
X666483D01*
X665527Y331954D01*
X664796Y331223D01*
X664400Y330267D01*
Y329233D01*
X664796Y328277D01*
X665527Y327546D01*
X666483Y327150D01*
X667517D01*
X668473Y327546D01*
X669204Y328277D01*
X669600Y329233D01*
Y330267D01*
X669204Y331223D01*
X668473Y331954D01*
X667517Y332350D01*
D02*
G37*
G36*
X561267Y331100D02*
X560233D01*
X559277Y330704D01*
X558546Y329973D01*
X558150Y329017D01*
Y327983D01*
X558546Y327027D01*
X559277Y326296D01*
X560233Y325900D01*
X561267D01*
X562223Y326296D01*
X562954Y327027D01*
X563350Y327983D01*
Y329017D01*
X562954Y329973D01*
X562223Y330704D01*
X561267Y331100D01*
D02*
G37*
G36*
X126012Y346408D02*
X124488D01*
X122170Y345947D01*
X120204Y344634D01*
X118891Y342668D01*
X118430Y340350D01*
X118891Y338032D01*
X120204Y336066D01*
X122170Y334753D01*
X122699Y334647D01*
Y333353D01*
X122170Y333247D01*
X120204Y331934D01*
X118891Y329968D01*
X118430Y327650D01*
X118891Y325331D01*
X120204Y323366D01*
X122170Y322053D01*
X122699Y321947D01*
Y320653D01*
X122170Y320547D01*
X120204Y319234D01*
X118891Y317269D01*
X118430Y314950D01*
X118891Y312631D01*
X120204Y310666D01*
X122170Y309353D01*
X122699Y309247D01*
Y307952D01*
X122170Y307847D01*
X120204Y306534D01*
X118891Y304569D01*
X118430Y302250D01*
X118891Y299932D01*
X120204Y297966D01*
X122170Y296653D01*
X124488Y296192D01*
X126012D01*
X128330Y296653D01*
X130296Y297966D01*
X131609Y299932D01*
X132070Y302250D01*
X131609Y304569D01*
X130296Y306534D01*
X128330Y307847D01*
X127801Y307952D01*
Y309247D01*
X128330Y309353D01*
X130296Y310666D01*
X131609Y312631D01*
X132070Y314950D01*
X131609Y317269D01*
X130296Y319234D01*
X128330Y320547D01*
X127801Y320653D01*
Y321947D01*
X128330Y322053D01*
X130296Y323366D01*
X131609Y325331D01*
X132070Y327650D01*
X131609Y329968D01*
X130296Y331934D01*
X128330Y333247D01*
X127801Y333353D01*
Y334647D01*
X128330Y334753D01*
X130296Y336066D01*
X131609Y338032D01*
X132070Y340350D01*
X131609Y342668D01*
X130296Y344634D01*
X128330Y345947D01*
X126012Y346408D01*
D02*
G37*
G36*
X151412Y352758D02*
X149888D01*
X147570Y352297D01*
X145604Y350984D01*
X144291Y349019D01*
X143830Y346700D01*
X144291Y344381D01*
X145604Y342416D01*
X147570Y341103D01*
X148099Y340997D01*
Y339702D01*
X147570Y339597D01*
X145604Y338284D01*
X144291Y336319D01*
X143830Y334000D01*
X144291Y331682D01*
X145604Y329716D01*
X147570Y328403D01*
X148099Y328297D01*
Y327002D01*
X147570Y326897D01*
X145604Y325584D01*
X144291Y323619D01*
X143830Y321300D01*
X144291Y318981D01*
X145604Y317016D01*
X147570Y315703D01*
X148099Y315597D01*
Y314303D01*
X147570Y314197D01*
X145604Y312884D01*
X144291Y310919D01*
X143830Y308600D01*
X144291Y306282D01*
X145604Y304316D01*
X147570Y303003D01*
X148099Y302897D01*
Y301602D01*
X147570Y301497D01*
X145604Y300184D01*
X144291Y298218D01*
X143830Y295900D01*
X144291Y293582D01*
X145604Y291616D01*
X147570Y290303D01*
X149888Y289842D01*
X151412D01*
X153730Y290303D01*
X155696Y291616D01*
X157009Y293582D01*
X157470Y295900D01*
X157009Y298218D01*
X155696Y300184D01*
X153730Y301497D01*
X153201Y301602D01*
Y302897D01*
X153730Y303003D01*
X155696Y304316D01*
X157009Y306282D01*
X157470Y308600D01*
X157009Y310919D01*
X155696Y312884D01*
X153730Y314197D01*
X153201Y314303D01*
Y315597D01*
X153730Y315703D01*
X155696Y317016D01*
X157009Y318981D01*
X157470Y321300D01*
X157009Y323619D01*
X155696Y325584D01*
X153730Y326897D01*
X153201Y327002D01*
Y328297D01*
X153730Y328403D01*
X155696Y329716D01*
X157009Y331682D01*
X157470Y334000D01*
X157009Y336319D01*
X155696Y338284D01*
X153730Y339597D01*
X153201Y339702D01*
Y340997D01*
X153730Y341103D01*
X155696Y342416D01*
X157009Y344381D01*
X157470Y346700D01*
X157009Y349019D01*
X155696Y350984D01*
X153730Y352297D01*
X151412Y352758D01*
D02*
G37*
G36*
X398520Y290929D02*
Y287270D01*
X402179D01*
X401523Y288855D01*
X400105Y290273D01*
X398520Y290929D01*
D02*
G37*
G36*
X395980D02*
X394395Y290273D01*
X392977Y288855D01*
X392321Y287270D01*
X395980D01*
Y290929D01*
D02*
G37*
G36*
X402179Y284730D02*
X398520D01*
Y281071D01*
X400105Y281727D01*
X401523Y283145D01*
X402179Y284730D01*
D02*
G37*
G36*
X395980D02*
X392321D01*
X392977Y283145D01*
X394395Y281727D01*
X395980Y281071D01*
Y284730D01*
D02*
G37*
G36*
X667267Y264350D02*
X666233D01*
X665277Y263954D01*
X664546Y263223D01*
X664150Y262267D01*
Y261233D01*
X664546Y260277D01*
X665277Y259546D01*
X666233Y259150D01*
X667267D01*
X668223Y259546D01*
X668954Y260277D01*
X669350Y261233D01*
Y262267D01*
X668954Y263223D01*
X668223Y263954D01*
X667267Y264350D01*
D02*
G37*
G36*
X540767D02*
X539733D01*
X538777Y263954D01*
X538046Y263223D01*
X537650Y262267D01*
Y261233D01*
X538046Y260277D01*
X538777Y259546D01*
X539733Y259150D01*
X540767D01*
X541723Y259546D01*
X542454Y260277D01*
X542850Y261233D01*
Y262267D01*
X542454Y263223D01*
X541723Y263954D01*
X540767Y264350D01*
D02*
G37*
G36*
X699267Y263850D02*
X698233D01*
X697277Y263454D01*
X696546Y262723D01*
X696150Y261767D01*
Y260733D01*
X696546Y259777D01*
X697277Y259046D01*
X698233Y258650D01*
X699267D01*
X700223Y259046D01*
X700954Y259777D01*
X701350Y260733D01*
Y261767D01*
X700954Y262723D01*
X700223Y263454D01*
X699267Y263850D01*
D02*
G37*
G36*
X398770Y255429D02*
Y251770D01*
X402429D01*
X401773Y253355D01*
X400355Y254773D01*
X398770Y255429D01*
D02*
G37*
G36*
X396230D02*
X394645Y254773D01*
X393227Y253355D01*
X392571Y251770D01*
X396230D01*
Y255429D01*
D02*
G37*
G36*
X402429Y249230D02*
X398770D01*
Y245571D01*
X400355Y246227D01*
X401773Y247645D01*
X402429Y249230D01*
D02*
G37*
G36*
X396230D02*
X392571D01*
X393227Y247645D01*
X394645Y246227D01*
X396230Y245571D01*
Y249230D01*
D02*
G37*
G36*
X601770Y247459D02*
Y236270D01*
X610627D01*
Y237500D01*
X610282Y240121D01*
X609270Y242563D01*
X607661Y244661D01*
X605563Y246270D01*
X603121Y247282D01*
X601770Y247459D01*
D02*
G37*
G36*
X599230Y247460D02*
X597879Y247282D01*
X595437Y246270D01*
X593340Y244661D01*
X591730Y242563D01*
X590718Y240121D01*
X590373Y237500D01*
Y236270D01*
X599230D01*
Y247460D01*
D02*
G37*
G36*
X114402Y263620D02*
X110698D01*
X107119Y262661D01*
X103911Y260809D01*
X101291Y258189D01*
X99439Y254981D01*
X98480Y251402D01*
Y247698D01*
X99439Y244119D01*
X101291Y240911D01*
X103911Y238291D01*
X107119Y236439D01*
X110698Y235480D01*
X114402D01*
X117981Y236439D01*
X121189Y238291D01*
X123809Y240911D01*
X125661Y244119D01*
X126620Y247698D01*
Y251402D01*
X125661Y254981D01*
X123809Y258189D01*
X121189Y260809D01*
X117981Y262661D01*
X114402Y263620D01*
D02*
G37*
G36*
X720500Y245166D02*
X718516Y244904D01*
X716667Y244139D01*
X715080Y242920D01*
X713861Y241333D01*
X713096Y239484D01*
X712834Y237500D01*
Y232500D01*
X713096Y230516D01*
X713861Y228667D01*
X715080Y227080D01*
X716667Y225861D01*
X718516Y225096D01*
X720500Y224834D01*
X722484Y225096D01*
X724333Y225861D01*
X725920Y227080D01*
X727139Y228667D01*
X727904Y230516D01*
X728166Y232500D01*
Y237500D01*
X727904Y239484D01*
X727139Y241333D01*
X725920Y242920D01*
X724333Y244139D01*
X722484Y244904D01*
X720500Y245166D01*
D02*
G37*
G36*
X700500D02*
X698516Y244904D01*
X696667Y244139D01*
X695080Y242920D01*
X693861Y241333D01*
X693096Y239484D01*
X692834Y237500D01*
Y232500D01*
X693096Y230516D01*
X693861Y228667D01*
X695080Y227080D01*
X696667Y225861D01*
X698516Y225096D01*
X700500Y224834D01*
X702484Y225096D01*
X704333Y225861D01*
X705920Y227080D01*
X707139Y228667D01*
X707904Y230516D01*
X708166Y232500D01*
Y237500D01*
X707904Y239484D01*
X707139Y241333D01*
X705920Y242920D01*
X704333Y244139D01*
X702484Y244904D01*
X700500Y245166D01*
D02*
G37*
G36*
X680500D02*
X678516Y244904D01*
X676667Y244139D01*
X675080Y242920D01*
X673861Y241333D01*
X673096Y239484D01*
X672834Y237500D01*
Y232500D01*
X673096Y230516D01*
X673861Y228667D01*
X675080Y227080D01*
X676667Y225861D01*
X678516Y225096D01*
X680500Y224834D01*
X682484Y225096D01*
X684333Y225861D01*
X685920Y227080D01*
X687139Y228667D01*
X687904Y230516D01*
X688166Y232500D01*
Y237500D01*
X687904Y239484D01*
X687139Y241333D01*
X685920Y242920D01*
X684333Y244139D01*
X682484Y244904D01*
X680500Y245166D01*
D02*
G37*
G36*
X660500D02*
X658516Y244904D01*
X656667Y244139D01*
X655080Y242920D01*
X653861Y241333D01*
X653096Y239484D01*
X652834Y237500D01*
Y232500D01*
X653096Y230516D01*
X653861Y228667D01*
X655080Y227080D01*
X656667Y225861D01*
X658516Y225096D01*
X660500Y224834D01*
X662484Y225096D01*
X664333Y225861D01*
X665920Y227080D01*
X667139Y228667D01*
X667904Y230516D01*
X668166Y232500D01*
Y237500D01*
X667904Y239484D01*
X667139Y241333D01*
X665920Y242920D01*
X664333Y244139D01*
X662484Y244904D01*
X660500Y245166D01*
D02*
G37*
G36*
X640500D02*
X638516Y244904D01*
X636667Y244139D01*
X635080Y242920D01*
X633862Y241333D01*
X633096Y239484D01*
X632835Y237500D01*
Y232500D01*
X633096Y230516D01*
X633862Y228667D01*
X635080Y227080D01*
X636667Y225861D01*
X638516Y225096D01*
X640500Y224834D01*
X642484Y225096D01*
X644333Y225861D01*
X645920Y227080D01*
X647139Y228667D01*
X647904Y230516D01*
X648166Y232500D01*
Y237500D01*
X647904Y239484D01*
X647139Y241333D01*
X645920Y242920D01*
X644333Y244139D01*
X642484Y244904D01*
X640500Y245166D01*
D02*
G37*
G36*
X620500D02*
X618516Y244904D01*
X616667Y244139D01*
X615080Y242920D01*
X613862Y241333D01*
X613096Y239484D01*
X612835Y237500D01*
Y232500D01*
X613096Y230516D01*
X613862Y228667D01*
X615080Y227080D01*
X616667Y225861D01*
X618516Y225096D01*
X620500Y224834D01*
X622484Y225096D01*
X624333Y225861D01*
X625920Y227080D01*
X627139Y228667D01*
X627904Y230516D01*
X628166Y232500D01*
Y237500D01*
X627904Y239484D01*
X627139Y241333D01*
X625920Y242920D01*
X624333Y244139D01*
X622484Y244904D01*
X620500Y245166D01*
D02*
G37*
G36*
X580500D02*
X578516Y244904D01*
X576667Y244139D01*
X575080Y242920D01*
X573862Y241333D01*
X573096Y239484D01*
X572835Y237500D01*
Y232500D01*
X573096Y230516D01*
X573862Y228667D01*
X575080Y227080D01*
X576667Y225861D01*
X578516Y225096D01*
X580500Y224834D01*
X582484Y225096D01*
X584333Y225861D01*
X585920Y227080D01*
X587139Y228667D01*
X587905Y230516D01*
X588166Y232500D01*
Y237500D01*
X587905Y239484D01*
X587139Y241333D01*
X585920Y242920D01*
X584333Y244139D01*
X582484Y244904D01*
X580500Y245166D01*
D02*
G37*
G36*
X560500D02*
X558516Y244904D01*
X556667Y244139D01*
X555080Y242920D01*
X553862Y241333D01*
X553096Y239484D01*
X552835Y237500D01*
Y232500D01*
X553096Y230516D01*
X553862Y228667D01*
X555080Y227080D01*
X556667Y225861D01*
X558516Y225096D01*
X560500Y224834D01*
X562484Y225096D01*
X564333Y225861D01*
X565920Y227080D01*
X567139Y228667D01*
X567905Y230516D01*
X568166Y232500D01*
Y237500D01*
X567905Y239484D01*
X567139Y241333D01*
X565920Y242920D01*
X564333Y244139D01*
X562484Y244904D01*
X560500Y245166D01*
D02*
G37*
G36*
X540500D02*
X538516Y244904D01*
X536667Y244139D01*
X535080Y242920D01*
X533862Y241333D01*
X533096Y239484D01*
X532835Y237500D01*
Y232500D01*
X533096Y230516D01*
X533862Y228667D01*
X535080Y227080D01*
X536667Y225861D01*
X538516Y225096D01*
X540500Y224834D01*
X542484Y225096D01*
X544333Y225861D01*
X545920Y227080D01*
X547139Y228667D01*
X547905Y230516D01*
X548166Y232500D01*
Y237500D01*
X547905Y239484D01*
X547139Y241333D01*
X545920Y242920D01*
X544333Y244139D01*
X542484Y244904D01*
X540500Y245166D01*
D02*
G37*
G36*
X610627Y233730D02*
X601770D01*
Y222541D01*
X603121Y222718D01*
X605563Y223730D01*
X607661Y225339D01*
X609270Y227437D01*
X610282Y229879D01*
X610627Y232500D01*
Y233730D01*
D02*
G37*
G36*
X599230D02*
X590373D01*
Y232500D01*
X590718Y229879D01*
X591730Y227437D01*
X593340Y225339D01*
X595437Y223730D01*
X597879Y222718D01*
X599230Y222541D01*
Y233730D01*
D02*
G37*
G36*
X125020Y212679D02*
Y209020D01*
X128679D01*
X128023Y210605D01*
X126605Y212023D01*
X125020Y212679D01*
D02*
G37*
G36*
X122480D02*
X120895Y212023D01*
X119477Y210605D01*
X118821Y209020D01*
X122480D01*
Y212679D01*
D02*
G37*
G36*
X128679Y206480D02*
X118821D01*
X119477Y204895D01*
X120747Y203625D01*
X119477Y202355D01*
X118821Y200770D01*
X128679D01*
X128023Y202355D01*
X126753Y203625D01*
X128023Y204895D01*
X128679Y206480D01*
D02*
G37*
G36*
Y198230D02*
X118821D01*
X119477Y196645D01*
X120895Y195227D01*
X122747Y194460D01*
X124036D01*
X124562Y193190D01*
X123727Y192355D01*
X123071Y190770D01*
X132929D01*
X132273Y192355D01*
X130855Y193773D01*
X129003Y194540D01*
X127714D01*
X127188Y195810D01*
X128023Y196645D01*
X128679Y198230D01*
D02*
G37*
G36*
X181270Y189179D02*
Y185520D01*
X184929D01*
X184273Y187105D01*
X182855Y188523D01*
X181270Y189179D01*
D02*
G37*
G36*
X178730D02*
X177145Y188523D01*
X175727Y187105D01*
X175071Y185520D01*
X178730D01*
Y189179D01*
D02*
G37*
G36*
X132929Y188230D02*
X123071D01*
X123727Y186645D01*
X124622Y185750D01*
X123477Y184605D01*
X122821Y183020D01*
X132679D01*
X132023Y184605D01*
X131128Y185500D01*
X132273Y186645D01*
X132929Y188230D01*
D02*
G37*
G36*
X184929Y182980D02*
X181270D01*
Y179321D01*
X182855Y179977D01*
X184273Y181395D01*
X184929Y182980D01*
D02*
G37*
G36*
X178730D02*
X175071D01*
X175727Y181395D01*
X177145Y179977D01*
X178730Y179321D01*
Y182980D01*
D02*
G37*
G36*
X132679Y180480D02*
X129020D01*
Y176821D01*
X130605Y177477D01*
X132023Y178895D01*
X132679Y180480D01*
D02*
G37*
G36*
X126480D02*
X122821D01*
X123477Y178895D01*
X124895Y177477D01*
X126480Y176821D01*
Y180480D01*
D02*
G37*
G36*
X150267Y130100D02*
X149233D01*
X148277Y129704D01*
X147546Y128973D01*
X147150Y128017D01*
Y126983D01*
X147546Y126027D01*
X148277Y125296D01*
X149233Y124900D01*
X150267D01*
X151223Y125296D01*
X151954Y126027D01*
X152350Y126983D01*
Y128017D01*
X151954Y128973D01*
X151223Y129704D01*
X150267Y130100D01*
D02*
G37*
G36*
X203267Y125100D02*
X202233D01*
X201277Y124704D01*
X200546Y123973D01*
X200150Y123017D01*
Y121983D01*
X200546Y121027D01*
X201277Y120296D01*
X202233Y119900D01*
X203267D01*
X204223Y120296D01*
X204954Y121027D01*
X205350Y121983D01*
Y123017D01*
X204954Y123973D01*
X204223Y124704D01*
X203267Y125100D01*
D02*
G37*
G36*
X234267Y116600D02*
X233233D01*
X232277Y116204D01*
X231546Y115473D01*
X231150Y114517D01*
Y113483D01*
X231546Y112527D01*
X232277Y111796D01*
X233233Y111400D01*
X234267D01*
X235223Y111796D01*
X235954Y112527D01*
X236350Y113483D01*
Y114517D01*
X235954Y115473D01*
X235223Y116204D01*
X234267Y116600D01*
D02*
G37*
G36*
X184517Y115850D02*
X183483D01*
X182527Y115454D01*
X181796Y114723D01*
X181400Y113767D01*
Y112733D01*
X181796Y111777D01*
X182527Y111046D01*
X183483Y110650D01*
X184517D01*
X185473Y111046D01*
X186204Y111777D01*
X186600Y112733D01*
Y113767D01*
X186204Y114723D01*
X185473Y115454D01*
X184517Y115850D01*
D02*
G37*
G36*
X257270Y104929D02*
Y101270D01*
X260929D01*
X260273Y102855D01*
X258855Y104273D01*
X257270Y104929D01*
D02*
G37*
G36*
X254730D02*
X253145Y104273D01*
X251727Y102855D01*
X251071Y101270D01*
X254730D01*
Y104929D01*
D02*
G37*
G36*
X260929Y98730D02*
X257270D01*
Y95071D01*
X258855Y95727D01*
X260273Y97145D01*
X260929Y98730D01*
D02*
G37*
G36*
X254730D02*
X251071D01*
X251727Y97145D01*
X253145Y95727D01*
X254730Y95071D01*
Y98730D01*
D02*
G37*
G36*
X220267Y86600D02*
X219233D01*
X218277Y86204D01*
X217546Y85473D01*
X217150Y84517D01*
Y83483D01*
X217546Y82527D01*
X218277Y81796D01*
X219233Y81400D01*
X220267D01*
X221223Y81796D01*
X221954Y82527D01*
X222350Y83483D01*
Y84517D01*
X221954Y85473D01*
X221223Y86204D01*
X220267Y86600D01*
D02*
G37*
G36*
X130033Y148450D02*
X127467D01*
X125096Y147468D01*
X123282Y145654D01*
X122300Y143283D01*
Y140717D01*
X123282Y138346D01*
X125096Y136532D01*
X127267Y135633D01*
Y89218D01*
X127267Y89218D01*
X127701Y88169D01*
X134676Y81195D01*
X134676Y81194D01*
X135725Y80760D01*
X135725Y80760D01*
X141949D01*
X142046Y80527D01*
X142777Y79796D01*
X143733Y79400D01*
X144767D01*
X145723Y79796D01*
X146454Y80527D01*
X146850Y81483D01*
Y82517D01*
X147482Y83463D01*
X161197D01*
X162188Y83660D01*
X163028Y84222D01*
X163589Y85062D01*
X163787Y86053D01*
Y97668D01*
X164733Y98300D01*
X165767D01*
X166723Y98696D01*
X167454Y99427D01*
X167850Y100383D01*
Y101417D01*
X167454Y102373D01*
X166723Y103104D01*
X165767Y103500D01*
X164733D01*
X163787Y104132D01*
Y109947D01*
X163589Y110938D01*
X163028Y111778D01*
X162188Y112339D01*
X161197Y112537D01*
X158917D01*
X158840Y112596D01*
X158174Y113807D01*
X158350Y114233D01*
Y115267D01*
X157954Y116223D01*
X157223Y116954D01*
X156267Y117350D01*
X155233D01*
X154277Y116954D01*
X153546Y116223D01*
X153150Y115267D01*
Y114233D01*
X153327Y113807D01*
X152660Y112596D01*
X152583Y112537D01*
X137303D01*
X136312Y112339D01*
X135472Y111778D01*
X134910Y110938D01*
X134713Y109947D01*
Y87148D01*
X133443Y86622D01*
X130233Y89832D01*
Y135633D01*
X132404Y136532D01*
X134218Y138346D01*
X135200Y140717D01*
Y143283D01*
X134218Y145654D01*
X132404Y147468D01*
X130033Y148450D01*
D02*
G37*
G36*
X98850Y90100D02*
X64650D01*
Y74900D01*
X98850D01*
Y90100D01*
D02*
G37*
G36*
X206017Y78600D02*
X204983D01*
X204027Y78204D01*
X203296Y77473D01*
X202900Y76517D01*
Y75483D01*
X203296Y74527D01*
X204027Y73796D01*
X204983Y73400D01*
X206017D01*
X206973Y73796D01*
X207704Y74527D01*
X208100Y75483D01*
Y76517D01*
X207704Y77473D01*
X206973Y78204D01*
X206017Y78600D01*
D02*
G37*
G36*
X93850Y144600D02*
X69150D01*
Y112900D01*
X93850D01*
Y114267D01*
X101028D01*
X117517Y97778D01*
Y71500D01*
X117517Y71500D01*
X117951Y70451D01*
X121701Y66701D01*
X121701Y66701D01*
X122750Y66267D01*
X122750Y66267D01*
X148750D01*
X148750Y66267D01*
X149799Y66701D01*
X154347Y71250D01*
X155367D01*
X156323Y71646D01*
X157054Y72377D01*
X157450Y73333D01*
Y74367D01*
X157054Y75323D01*
X156323Y76054D01*
X155367Y76450D01*
X154333D01*
X153377Y76054D01*
X152646Y75323D01*
X152250Y74367D01*
Y73347D01*
X148136Y69233D01*
X123364D01*
X120483Y72114D01*
Y98392D01*
X120483Y98392D01*
X120049Y99441D01*
X120049Y99441D01*
X102691Y116799D01*
X101642Y117233D01*
X101642Y117233D01*
X93850D01*
Y144600D01*
D02*
G37*
G36*
X31850D02*
X7150D01*
Y112900D01*
X18017D01*
Y64100D01*
X6650D01*
Y53900D01*
X41850D01*
Y64100D01*
X20983D01*
Y112900D01*
X31850D01*
Y144600D01*
D02*
G37*
G36*
X221517Y55350D02*
X220483D01*
X219527Y54954D01*
X218796Y54223D01*
X218400Y53267D01*
Y52233D01*
X218796Y51277D01*
X219527Y50546D01*
X220483Y50150D01*
X221517D01*
X222473Y50546D01*
X223204Y51277D01*
X223600Y52233D01*
Y53267D01*
X223204Y54223D01*
X222473Y54954D01*
X221517Y55350D01*
D02*
G37*
G36*
X41850Y44100D02*
X6650D01*
Y33900D01*
X14017D01*
Y30194D01*
X13296Y29473D01*
X12900Y28517D01*
Y27483D01*
X13296Y26527D01*
X14027Y25796D01*
X14983Y25400D01*
X16017D01*
X16973Y25796D01*
X17704Y26527D01*
X18100Y27483D01*
Y28517D01*
X17704Y29473D01*
X16983Y30194D01*
Y33900D01*
X41850D01*
Y37017D01*
X47306D01*
X48027Y36296D01*
X48983Y35900D01*
X50017D01*
X50973Y36296D01*
X51704Y37027D01*
X52100Y37983D01*
Y39017D01*
X51704Y39973D01*
X50973Y40704D01*
X50017Y41100D01*
X48983D01*
X48027Y40704D01*
X47306Y39983D01*
X41850D01*
Y44100D01*
D02*
G37*
G36*
X554270Y33959D02*
Y22770D01*
X563127D01*
Y24000D01*
X562782Y26621D01*
X561770Y29063D01*
X560161Y31161D01*
X558063Y32770D01*
X555621Y33782D01*
X554270Y33959D01*
D02*
G37*
G36*
X551730Y33960D02*
X550379Y33782D01*
X547937Y32770D01*
X545839Y31161D01*
X544230Y29063D01*
X543218Y26621D01*
X542873Y24000D01*
Y22770D01*
X551730D01*
Y33960D01*
D02*
G37*
G36*
X122770Y23679D02*
Y20020D01*
X126429D01*
X125773Y21605D01*
X124355Y23023D01*
X122770Y23679D01*
D02*
G37*
G36*
X120230D02*
X118645Y23023D01*
X117227Y21605D01*
X116571Y20020D01*
X120230D01*
Y23679D01*
D02*
G37*
G36*
X126429Y17480D02*
X122770D01*
Y13821D01*
X124355Y14477D01*
X125773Y15895D01*
X126429Y17480D01*
D02*
G37*
G36*
X120230D02*
X116571D01*
X117227Y15895D01*
X118645Y14477D01*
X120230Y13821D01*
Y17480D01*
D02*
G37*
G36*
X733000Y31666D02*
X731016Y31404D01*
X729167Y30639D01*
X727579Y29420D01*
X726361Y27833D01*
X725596Y25984D01*
X725334Y24000D01*
Y19000D01*
X725596Y17016D01*
X726361Y15167D01*
X727579Y13580D01*
X729167Y12361D01*
X731016Y11596D01*
X733000Y11334D01*
X734984Y11596D01*
X736833Y12361D01*
X738420Y13580D01*
X739639Y15167D01*
X740404Y17016D01*
X740666Y19000D01*
Y24000D01*
X740404Y25984D01*
X739639Y27833D01*
X738420Y29420D01*
X736833Y30639D01*
X734984Y31404D01*
X733000Y31666D01*
D02*
G37*
G36*
X713000D02*
X711016Y31404D01*
X709167Y30639D01*
X707580Y29420D01*
X706361Y27833D01*
X705596Y25984D01*
X705334Y24000D01*
Y19000D01*
X705596Y17016D01*
X706361Y15167D01*
X707580Y13580D01*
X709167Y12361D01*
X711016Y11596D01*
X713000Y11334D01*
X714984Y11596D01*
X716833Y12361D01*
X718420Y13580D01*
X719639Y15167D01*
X720404Y17016D01*
X720666Y19000D01*
Y24000D01*
X720404Y25984D01*
X719639Y27833D01*
X718420Y29420D01*
X716833Y30639D01*
X714984Y31404D01*
X713000Y31666D01*
D02*
G37*
G36*
X693000D02*
X691016Y31404D01*
X689167Y30639D01*
X687580Y29420D01*
X686361Y27833D01*
X685596Y25984D01*
X685334Y24000D01*
Y19000D01*
X685596Y17016D01*
X686361Y15167D01*
X687580Y13580D01*
X689167Y12361D01*
X691016Y11596D01*
X693000Y11334D01*
X694984Y11596D01*
X696833Y12361D01*
X698420Y13580D01*
X699639Y15167D01*
X700404Y17016D01*
X700666Y19000D01*
Y24000D01*
X700404Y25984D01*
X699639Y27833D01*
X698420Y29420D01*
X696833Y30639D01*
X694984Y31404D01*
X693000Y31666D01*
D02*
G37*
G36*
X673000D02*
X671016Y31404D01*
X669167Y30639D01*
X667580Y29420D01*
X666361Y27833D01*
X665596Y25984D01*
X665334Y24000D01*
Y19000D01*
X665596Y17016D01*
X666361Y15167D01*
X667580Y13580D01*
X669167Y12361D01*
X671016Y11596D01*
X673000Y11334D01*
X674984Y11596D01*
X676833Y12361D01*
X678420Y13580D01*
X679639Y15167D01*
X680404Y17016D01*
X680666Y19000D01*
Y24000D01*
X680404Y25984D01*
X679639Y27833D01*
X678420Y29420D01*
X676833Y30639D01*
X674984Y31404D01*
X673000Y31666D01*
D02*
G37*
G36*
X653000D02*
X651016Y31404D01*
X649167Y30639D01*
X647580Y29420D01*
X646361Y27833D01*
X645596Y25984D01*
X645334Y24000D01*
Y19000D01*
X645596Y17016D01*
X646361Y15167D01*
X647580Y13580D01*
X649167Y12361D01*
X651016Y11596D01*
X653000Y11334D01*
X654984Y11596D01*
X656833Y12361D01*
X658420Y13580D01*
X659639Y15167D01*
X660404Y17016D01*
X660666Y19000D01*
Y24000D01*
X660404Y25984D01*
X659639Y27833D01*
X658420Y29420D01*
X656833Y30639D01*
X654984Y31404D01*
X653000Y31666D01*
D02*
G37*
G36*
X633000D02*
X631016Y31404D01*
X629167Y30639D01*
X627580Y29420D01*
X626361Y27833D01*
X625596Y25984D01*
X625334Y24000D01*
Y19000D01*
X625596Y17016D01*
X626361Y15167D01*
X627580Y13580D01*
X629167Y12361D01*
X631016Y11596D01*
X633000Y11334D01*
X634984Y11596D01*
X636833Y12361D01*
X638420Y13580D01*
X639639Y15167D01*
X640404Y17016D01*
X640666Y19000D01*
Y24000D01*
X640404Y25984D01*
X639639Y27833D01*
X638420Y29420D01*
X636833Y30639D01*
X634984Y31404D01*
X633000Y31666D01*
D02*
G37*
G36*
X613000D02*
X611016Y31404D01*
X609167Y30639D01*
X607580Y29420D01*
X606361Y27833D01*
X605596Y25984D01*
X605335Y24000D01*
Y19000D01*
X605596Y17016D01*
X606361Y15167D01*
X607580Y13580D01*
X609167Y12361D01*
X611016Y11596D01*
X613000Y11334D01*
X614984Y11596D01*
X616833Y12361D01*
X618420Y13580D01*
X619639Y15167D01*
X620404Y17016D01*
X620666Y19000D01*
Y24000D01*
X620404Y25984D01*
X619639Y27833D01*
X618420Y29420D01*
X616833Y30639D01*
X614984Y31404D01*
X613000Y31666D01*
D02*
G37*
G36*
X593000D02*
X591016Y31404D01*
X589167Y30639D01*
X587580Y29420D01*
X586362Y27833D01*
X585596Y25984D01*
X585335Y24000D01*
Y19000D01*
X585596Y17016D01*
X586362Y15167D01*
X587580Y13580D01*
X589167Y12361D01*
X591016Y11596D01*
X593000Y11334D01*
X594984Y11596D01*
X596833Y12361D01*
X598420Y13580D01*
X599639Y15167D01*
X600404Y17016D01*
X600666Y19000D01*
Y24000D01*
X600404Y25984D01*
X599639Y27833D01*
X598420Y29420D01*
X596833Y30639D01*
X594984Y31404D01*
X593000Y31666D01*
D02*
G37*
G36*
X573000D02*
X571016Y31404D01*
X569167Y30639D01*
X567580Y29420D01*
X566362Y27833D01*
X565596Y25984D01*
X565335Y24000D01*
Y19000D01*
X565596Y17016D01*
X566362Y15167D01*
X567580Y13580D01*
X569167Y12361D01*
X571016Y11596D01*
X573000Y11334D01*
X574984Y11596D01*
X576833Y12361D01*
X578420Y13580D01*
X579639Y15167D01*
X580404Y17016D01*
X580666Y19000D01*
Y24000D01*
X580404Y25984D01*
X579639Y27833D01*
X578420Y29420D01*
X576833Y30639D01*
X574984Y31404D01*
X573000Y31666D01*
D02*
G37*
G36*
X563127Y20230D02*
X554270D01*
Y9041D01*
X555621Y9218D01*
X558063Y10230D01*
X560161Y11839D01*
X561770Y13937D01*
X562782Y16379D01*
X563127Y19000D01*
Y20230D01*
D02*
G37*
G36*
X551730D02*
X542873D01*
Y19000D01*
X543218Y16379D01*
X544230Y13937D01*
X545839Y11839D01*
X547937Y10230D01*
X550379Y9218D01*
X551730Y9040D01*
Y20230D01*
D02*
G37*
G36*
X98850Y23100D02*
X64650D01*
Y7900D01*
X98850D01*
Y23100D01*
D02*
G37*
G36*
X154267Y11350D02*
X153233D01*
X152277Y10954D01*
X151546Y10223D01*
X151150Y9267D01*
Y8233D01*
X151546Y7277D01*
X152277Y6546D01*
X153233Y6150D01*
X154267D01*
X155223Y6546D01*
X155954Y7277D01*
X156350Y8233D01*
Y9267D01*
X155954Y10223D01*
X155223Y10954D01*
X154267Y11350D01*
D02*
G37*
%LPD*%
D17*
X128750Y89218D02*
X135725Y82243D01*
X128750Y89218D02*
Y142000D01*
X101642Y115750D02*
X119000Y98392D01*
X81500Y125250D02*
X91000Y115750D01*
X101642D01*
X81500Y125250D02*
Y128750D01*
X122750Y67750D02*
X148750D01*
X154850Y73850D01*
X119000Y71500D02*
X122750Y67750D01*
X119000Y71500D02*
Y98392D01*
X135725Y82243D02*
X144007D01*
X144250Y82000D01*
X24750Y38500D02*
X49500D01*
X24250Y39000D02*
X24750Y38500D01*
X15500Y28000D02*
Y35270D01*
X19230Y39000D02*
X24250D01*
X15500Y35270D02*
X19230Y39000D01*
X769375Y625875D02*
Y637975D01*
Y625875D02*
X769750Y625500D01*
X19500Y62730D02*
X23230Y59000D01*
X19500Y62730D02*
Y128750D01*
X23230Y59000D02*
X24250D01*
X769000Y638350D02*
X769375Y637975D01*
X800000Y0D02*
Y800000D01*
X0Y0D02*
X800000D01*
X0Y800000D02*
X800000D01*
X0Y0D02*
Y800000D01*
D27*
X769000Y638350D02*
D03*
Y647150D02*
D03*
D72*
X150650Y295900D02*
D03*
Y308600D02*
D03*
Y321300D02*
D03*
Y334000D02*
D03*
Y346700D02*
D03*
X125250Y302250D02*
D03*
Y314950D02*
D03*
Y327650D02*
D03*
Y340350D02*
D03*
D81*
X720500Y235000D02*
D03*
X680500D02*
D03*
X660500D02*
D03*
X640500D02*
D03*
X580500D02*
D03*
X560500D02*
D03*
X540500D02*
D03*
X600500D02*
D03*
X620500D02*
D03*
X700500D02*
D03*
X733000Y21500D02*
D03*
X693000D02*
D03*
X673000D02*
D03*
X653000D02*
D03*
X593000D02*
D03*
X573000D02*
D03*
X553000D02*
D03*
X613000D02*
D03*
X633000D02*
D03*
X713000D02*
D03*
D82*
X112550Y249550D02*
D03*
Y393050D02*
D03*
D83*
X165250Y100900D02*
D03*
X155750Y114750D02*
D03*
X153750Y8750D02*
D03*
X256000Y100000D02*
D03*
X144250Y82000D02*
D03*
X154850Y73850D02*
D03*
X15500Y28000D02*
D03*
X49500Y38500D02*
D03*
X640000Y412000D02*
D03*
X605500Y414500D02*
D03*
X638750Y447000D02*
D03*
X604250Y445750D02*
D03*
X621500Y430250D02*
D03*
X638500Y365000D02*
D03*
X586250Y396500D02*
D03*
X619250Y525500D02*
D03*
X614500Y518250D02*
D03*
X602000Y496250D02*
D03*
X581250Y536500D02*
D03*
X564750Y503250D02*
D03*
X564500Y514000D02*
D03*
X553750Y390250D02*
D03*
X545750Y390500D02*
D03*
X518250Y346750D02*
D03*
X519000Y437250D02*
D03*
X494000Y373500D02*
D03*
Y362500D02*
D03*
X494250Y338250D02*
D03*
X637388Y478362D02*
D03*
X587000Y464500D02*
D03*
X599000Y479000D02*
D03*
X631250Y498250D02*
D03*
X557750Y462750D02*
D03*
X537000Y447750D02*
D03*
X495000Y427000D02*
D03*
X578000Y482000D02*
D03*
X573000Y404250D02*
D03*
X650500Y475500D02*
D03*
X644750Y480250D02*
D03*
X631500Y474000D02*
D03*
X667000Y329750D02*
D03*
X560750Y328500D02*
D03*
X619000Y385750D02*
D03*
X623500Y378750D02*
D03*
X507500Y457750D02*
D03*
X629750Y382750D02*
D03*
X368000Y352000D02*
D03*
X322250Y361000D02*
D03*
X334000Y360750D02*
D03*
X100000Y747500D02*
D03*
X99500Y728500D02*
D03*
X99750Y768000D02*
D03*
X505500Y730250D02*
D03*
Y748750D02*
D03*
Y770750D02*
D03*
X296750Y748250D02*
D03*
X297000Y730500D02*
D03*
X296750Y767250D02*
D03*
X557000Y520500D02*
D03*
X709500Y404000D02*
D03*
X732000Y410250D02*
D03*
X685000Y403750D02*
D03*
X684500Y418000D02*
D03*
X666750Y261750D02*
D03*
X674500Y391500D02*
D03*
X540250Y261750D02*
D03*
X694000Y411000D02*
D03*
X698750Y261250D02*
D03*
X688250Y461000D02*
D03*
X754500Y614250D02*
D03*
X754000Y636500D02*
D03*
X769750Y625500D02*
D03*
X677750Y470250D02*
D03*
X753500Y658750D02*
D03*
X575750Y452500D02*
D03*
X506750Y494500D02*
D03*
X493250Y470250D02*
D03*
X346750Y417250D02*
D03*
X754370Y669250D02*
D03*
X717000Y375269D02*
D03*
X202750Y122500D02*
D03*
X328000Y398250D02*
D03*
X327500Y466000D02*
D03*
X316750Y464000D02*
D03*
X233750Y114000D02*
D03*
X121500Y18750D02*
D03*
X557000Y551750D02*
D03*
X180000Y184250D02*
D03*
X127750Y181750D02*
D03*
X128000Y189500D02*
D03*
X123750Y199500D02*
D03*
Y207750D02*
D03*
X221000Y52750D02*
D03*
X219750Y84000D02*
D03*
X184000Y113250D02*
D03*
X205500Y76000D02*
D03*
X149750Y127500D02*
D03*
X316750Y398250D02*
D03*
X769000Y647150D02*
D03*
X397250Y286000D02*
D03*
X397500Y250500D02*
D03*
X667750Y470250D02*
D03*
X558500Y415500D02*
D03*
X346750Y690250D02*
D03*
X535250Y707500D02*
D03*
X129500Y708250D02*
D03*
X327498Y708082D02*
D03*
D84*
X128750Y142000D02*
D03*
D86*
X81500Y128750D02*
D03*
X19500D02*
D03*
D87*
X81750Y15500D02*
D03*
Y82500D02*
D03*
D88*
X24250Y39000D02*
D03*
Y59000D02*
D03*
M02*
